<svg xmlns="http://www.w3.org/2000/svg" width="13.951" height="16" viewBox="0 0 13.951 16"><path d="M13.93,8c0,1.247-.01,2.484,0,3.731a.448.448,0,0,1-.261.454c-2.156,1.237-4.3,2.475-6.447,3.731a.435.435,0,0,1-.522,0Q3.525,14.073.35,12.24A.638.638,0,0,1,0,11.612C.012,9.176.012,6.731,0,4.3a.5.5,0,0,1,.29-.5C2.457,2.556,4.6,1.318,6.748.072a.437.437,0,0,1,.493.009Q10.46,1.952,13.688,3.8a.47.47,0,0,1,.261.464C13.93,5.5,13.93,6.75,13.93,8ZM6.98,3.677c-1.3,2.339-2.58,4.61-3.875,6.91h7.751ZM7.367,3.5l3.827,6.823c.764-2.068,1.489-4.04,2.243-6.06ZM.524,4.266c.744,2.03,1.479,4,2.233,6.06L6.584,3.512ZM10.75,11.071H3.2c1.276,1.488,2.523,2.938,3.77,4.407ZM7.193,3.049l5.326.666.029-.067L7.2.555ZM6.748.565,1.413,3.648l.039.067,5.3-.666ZM13.5,11.573V5.484l-.058-.009C12.8,7.214,12.151,8.954,11.5,10.723ZM.514,5.494l-.048.019v6.051l1.972-.851Zm7.578,9.337.039.048,5.1-2.958c-.619-.261-1.15-.483-1.672-.725a.349.349,0,0,0-.484.116c-.444.542-.908,1.064-1.362,1.6-.532.648-1.073,1.286-1.624,1.924ZM5.8,14.879l.049-.048-3.074-3.6a.241.241,0,0,0-.2-.087c-.609.251-1.2.512-1.856.793ZM6.884,9.592a2.5,2.5,0,0,0-.01.474l-.029.029c-.4-.02-.715-.02-.966-.02s-.571.01-.928.02l-.029-.029V9.872l.435-.444A4.791,4.791,0,0,0,6,8.674.978.978,0,0,0,6.12,8.4a.835.835,0,0,0,.039-.271c0-.338-.155-.512-.464-.512a.494.494,0,0,0-.416.194q-.029.087-.087.318l-.019.02H5.047l-.019-.02.077-.715a1,1,0,0,1,.754-.27.9.9,0,0,1,.657.222.712.712,0,0,1,.213.541,1.221,1.221,0,0,1-.029.261,1.319,1.319,0,0,1-.271.483,6.709,6.709,0,0,1-.521.532c-.087.087-.213.2-.387.367v.029h.686l.367-.009c.1,0,.174-.01.242-.01ZM9.058,8.529a2.448,2.448,0,0,1-.212,1.2.857.857,0,0,1-.773.445.785.785,0,0,1-.735-.387,2.2,2.2,0,0,1-.193-1.063A2.946,2.946,0,0,1,7.261,7.8.944.944,0,0,1,7.6,7.321a.93.93,0,0,1,.532-.165.812.812,0,0,1,.7.29A1.893,1.893,0,0,1,9.058,8.529Zm-.531.348a4.359,4.359,0,0,0-.116-1.2c-.068-.193-.174-.29-.329-.29a.313.313,0,0,0-.309.223,2.236,2.236,0,0,0-.1.8,5.245,5.245,0,0,0,.087,1.092,1.48,1.48,0,0,0,.087.261.31.31,0,0,0,.29.184c.2,0,.329-.155.368-.474A4.136,4.136,0,0,0,8.527,8.877Z" fill="none"/></svg>