<svg xmlns="http://www.w3.org/2000/svg" width="15.357" height="16.2" viewBox="0 0 15.357 16.2"><path d="M7.32,8.5h0V8.4h.5a.1.1,0,0,0,.1-.1V7.5H6.42V7.4a18.459,18.459,0,0,1,1.6-2.6l.4-.2h.1V7.2h.6v.4h-.7v.6c0,.1,0,.1.1.2l.1.1h.4v.1h-.8A3.445,3.445,0,0,0,7.32,8.5Zm-.6-1.3h1.2V5.3c-.2.3-.4.6-.7,1A4.385,4.385,0,0,0,6.72,7.2Zm1.3,8.9c-2.2-1.8-4.4-3.5-6.6-5.3a7.459,7.459,0,0,1-.7-1.2c-.2-.5-.7-1-.6-1.4s.6-.8,1-1.2l6-6.3c.7-.8.6-.7,1.3,0,2.2,2.2,4.4,4.4,6.6,6.7a.651.651,0,0,1,.2.9c-.2.6-.4,1.2-.6,1.9,0,.1-.1.2-.2.3-2.1,1.9-4.2,3.8-6.3,5.6ZM2.92,9c.2.1.4.1.6.2a14.763,14.763,0,0,1,2.9,1.2,2.891,2.891,0,0,0,3.1-.1,35.394,35.394,0,0,1,3.4-1.6L7.72.5Zm-1.4,1.5,6.4,5.2c0-1.5-.1-2.9-.1-4.2a.319.319,0,0,0-.3-.3L3.02,9.4a.661.661,0,0,0-.6.1A4.5,4.5,0,0,0,1.52,10.5Zm12.8-.4a9.958,9.958,0,0,0-1.1-1,.446.446,0,0,0-.5,0c-1.4.7-2.9,1.3-4.3,2-.1.1-.3.2-.3.4,0,1.4,0,2.7.1,4.2ZM6.82,1.5h0L.32,8.2l1,2a7.993,7.993,0,0,0,1.3-1.3C4.02,6.4,5.42,4,6.82,1.5Zm2.1,0h0c1.3,2.4,2.8,4.7,4.2,7a7.993,7.993,0,0,0,1.3,1.3,13.081,13.081,0,0,1,.5-1.5.651.651,0,0,0-.2-.9L9.62,2.3A5.716,5.716,0,0,1,8.92,1.5Zm-.9,14.7h0c-.7-.5-1.3-1-1.9-1.5-1.6-1.3-3.2-2.5-4.7-3.9a2.55,2.55,0,0,1-.8-1.2c-.1-.1-.1-.2-.2-.4-.2-.3-.5-.7-.4-1.1s.4-.6.7-.9l.3-.3,6-6.3.1-.1c.3-.4.4-.5.6-.5h0c.2,0,.3.1.5.4l.2.2c2.2,2.2,4.4,4.4,6.6,6.7a1.068,1.068,0,0,1,.3,1.1c-.1.3-.2.7-.3,1-.1.2-.1.5-.2.7,0,.1-.1.2-.2.3-2.1,1.9-4.2,3.8-6.3,5.6-.1.2-.2.2-.3.2Zm-6.5-5.5h0c1.6,1.3,3.2,2.6,4.7,3.8.6.5,1.2.9,1.8,1.4h.1c2.1-1.9,4.2-3.7,6.3-5.6l.1-.1-6.4,5.7V11.4a.664.664,0,0,1,.4-.5c.1-.1.3-.1.4-.2a3.219,3.219,0,0,1-1.7.1c.2.1.3.1.5.2s.3.2.3.4c0,1.1.1,2.2.1,3.4v1.1Zm.1-.2,6.1,4.9v-.6c0-1.2,0-2.3-.1-3.4a.215.215,0,0,0-.2-.2c-1.6-.7-3.1-1.2-4.4-1.8-.2-.1-.3,0-.5,0a5.547,5.547,0,0,1-.6.8Zm11.3-1.3h-.1c-1.4.6-2.8,1.3-4.3,2-.1.1-.2.2-.2.3v3.9l5.8-5.3c-.1-.1-.2-.2-.3-.2l-.7-.7Zm-9.8-.3a.1.1,0,0,1,.1.1c.1,0,.2.1.3.1a14.763,14.763,0,0,1,2.9,1.2,2.938,2.938,0,0,0,3-.1,16.269,16.269,0,0,1,2.3-1.1,10.375,10.375,0,0,1,1-.4L7.72.8Zm-.2.3h.3c1,.4,2.1.8,3.2,1.3h0l-3-1.2c-.1,0-.2-.1-.3-.1a.367.367,0,0,0-.3-.1L2.72,9l5-8.8c-.1,0-.2.2-.4.4l-.1.1L1.22,7a.781.781,0,0,1-.4.4c-.2.2-.5.4-.5.7l6.4-6.8.3.1-.1.2c-.4.7-.8,1.3-1.2,2-1,1.7-2,3.5-3,5.3a7.993,7.993,0,0,1-1.3,1.3l-.1.1L.22,8.2a1.8,1.8,0,0,0,.4.9.758.758,0,0,1,.2.4,4.053,4.053,0,0,0,.5.9h0a1.38,1.38,0,0,0,.3-.4,4.62,4.62,0,0,1,.7-.7C2.62,9.3,2.72,9.2,2.92,9.2Zm4.8-9,.1.2,5.2,8.4-.1.1c-.4.2-.7.3-1.1.5-.8.4-1.6.7-2.3,1.1h0c1.1-.5,2.1-1,3.2-1.5a.661.661,0,0,1,.6.1,5.008,5.008,0,0,1,.8.7,1.38,1.38,0,0,0,.4.3l.1.1v-.1c.1-.2.1-.5.2-.7a5.638,5.638,0,0,1,.4-1.2.778.778,0,0,0-.2-.8C12.82,5.2,10.62,3,8.42.7a.52.52,0,0,1-.4-.2c-.1-.1-.2-.3-.3-.3Zm-7.2,8,.9,1.8a11.985,11.985,0,0,0,1.1-1.2c1-1.7,2-3.5,3-5.3.3-.5.6-1,.9-1.6Zm14,1.8-.1-.1a7.993,7.993,0,0,1-1.3-1.3c-1.1-1.7-2.2-3.5-3.2-5.2a6.57,6.57,0,0,1-1.2-1.7l-.1-.1.3-.2,1.9,1.9,4.1,4.1a.775.775,0,0,1,.2,1l-.3.9c-.1.2-.1.4-.2.6ZM9.12,2c.3.4.5.9.8,1.3,1,1.7,2.1,3.5,3.2,5.2a4.263,4.263,0,0,0,1.2,1.1c0-.1.1-.3.1-.4l.3-.9c.1-.3.1-.6-.2-.7l-4.1-4.1ZM7.22,8.7h0l-.1-.4.1-.1h.6V7.6H6.32V7.4h0a18.268,18.268,0,0,1,1.6-2.7h0l.5-.2.2.1V7h.5v.1h0v.1h0v.2l-.1.3h-.5v.6h.6v.3h-.9a3.083,3.083,0,0,0-1,.1Zm1-.3h.2c0-.1-.1-.1-.1-.2V7.4h.6V7.3h-.6V4.8l-.2.1V7.3H6.62a.1.1,0,0,1-.1.1h1.5v.7a.367.367,0,0,1-.1.3h.3ZM7.02,7h.8V5.6a4.348,4.348,0,0,0-.4.7C7.22,6.6,7.12,6.9,7.02,7Z" fill="none"/></svg>