<svg xmlns="http://www.w3.org/2000/svg" width="15.138" height="16" viewBox="0 0 15.138 16"><path d="M6.4,8.7h0V8.5l.9-1A5.716,5.716,0,0,0,8,6.7a1.421,1.421,0,0,0,.2-.6A.764.764,0,0,0,8,5.6a.864.864,0,0,0-.6-.3.6.6,0,0,0-.4.1.215.215,0,0,0-.2.2c-.1.1-.1.2-.2.4H6.5c0-.2.1-.5.1-.7a1,1,0,0,1,.5-.4,4.331,4.331,0,0,1,.5-.1.749.749,0,0,1,.5.1,1.38,1.38,0,0,1,.4.3,1.421,1.421,0,0,1,.2.6.9.9,0,0,1-.1.5,2.186,2.186,0,0,1-.3.5,2.651,2.651,0,0,1-.5.6l-.9.8H8.8v.4H7A1.759,1.759,0,0,1,6.4,8.7Zm1.5,7.2c-2.2-1.7-4.3-3.5-6.5-5.2A3.458,3.458,0,0,1,.7,9.5,4.714,4.714,0,0,1,.1,8c.1-.4.6-.8,1-1.2C3.1,4.8,5,2.7,7,.7c.7-.7.6-.7,1.3,0,2.2,2.2,4.3,4.4,6.5,6.6a.651.651,0,0,1,.2.9L14.4,10c0,.1-.1.2-.2.3C12.1,12.2,10.1,14,8,15.9,8,15.8,7.9,15.9,7.9,15.9Zm-5-7.1a2.186,2.186,0,0,1,.5.3,17.8,17.8,0,0,1,2.9,1.2,2.729,2.729,0,0,0,3-.1c1-.6,2.2-1,3.3-1.6L7.6.5ZM1.5,10.4l6.3,5.1c0-1.5-.1-2.8-.1-4.1a.319.319,0,0,0-.3-.3A39.29,39.29,0,0,0,3.1,9.3a.661.661,0,0,0-.6.1A3.178,3.178,0,0,0,1.5,10.4ZM14.1,10A9.958,9.958,0,0,0,13,9a.749.749,0,0,0-.5-.1c-1.4.6-2.8,1.3-4.2,2a1.38,1.38,0,0,0-.3.4c0,1.3,0,2.7.1,4.1ZM6.7,1.5h0L.4,8.1l1,2A4.894,4.894,0,0,0,2.6,8.8C4,6.4,5.3,3.9,6.7,1.5Zm2,.1h0C10,4,11.4,6.2,12.9,8.5a7.993,7.993,0,0,0,1.3,1.3,13.081,13.081,0,0,1,.5-1.5.651.651,0,0,0-.2-.9l-5-5A6.034,6.034,0,0,0,8.7,1.6ZM7.9,16h0c-.7-.5-1.3-1-1.9-1.5C4.5,13.3,2.9,12,1.3,10.7A4.728,4.728,0,0,1,.6,9.5c0-.1-.1-.2-.2-.4A2.1,2.1,0,0,1,0,8c0-.4.4-.6.7-.9L1,6.8C3,4.7,4.9,2.7,6.9.6L7,.5c.3-.3.4-.5.6-.5h0c.2,0,.3.1.5.4l.2.2c2.2,2.2,4.3,4.4,6.5,6.6a.959.959,0,0,1,.3,1c-.1.4-.3.8-.4,1.1-.1.2-.1.5-.2.7,0,.1-.1.2-.2.3-2.1,1.9-4.1,3.7-6.2,5.6a.349.349,0,0,1-.2.1ZM1.5,10.5h0c1.5,1.3,3.1,2.6,4.7,3.8.6.5,1.2.9,1.7,1.4H8c2.1-1.8,4.1-3.7,6.2-5.5l.1-.1L8,15.7V11.4a.664.664,0,0,1,.4-.5c.1-.1.3-.1.4-.2a3.219,3.219,0,0,1-1.7.1c.2.1.3.1.5.2s.3.2.3.4c0,1.1.1,2.2.1,3.4v1.1Zm.1-.2,6,4.8v-.5c0-1.2,0-2.3-.1-3.3a.215.215,0,0,0-.2-.2c-1.6-.6-3-1.2-4.4-1.7-.1-.1-.3,0-.5,0l-.7.7C1.8,10.2,1.7,10.3,1.6,10.3ZM12.7,9.1h-.1c-1.4.6-2.8,1.3-4.2,2-.1.1-.2.2-.2.3v3.8l5.7-5.1c-.1-.1-.2-.2-.3-.2-.2-.2-.5-.4-.7-.6C12.9,9.1,12.8,9.1,12.7,9.1ZM3,8.8a.1.1,0,0,1,.1.1c.2,0,.3,0,.4.1a17.8,17.8,0,0,1,2.9,1.2,2.759,2.759,0,0,0,2.9-.1A15.054,15.054,0,0,1,11.5,9c.3-.1.6-.3.9-.4L7.6.7Zm-.2.3h.3c1,.4,2.1.8,3.2,1.2h0c-1-.4-1.9-.8-2.9-1.1-.1,0-.2-.1-.4-.1C3,9,2.9,9,2.8,9l-.1-.1L7.6.3c-.1,0-.2.2-.4.4H7.1C5.1,2.8,3.2,4.9,1.2,7l-.3.3A1.344,1.344,0,0,0,.3,8L6.6,1.3l.3.1-.1.2a19.832,19.832,0,0,0-1.1,2c-1,1.7-2,3.5-3,5.2a7.993,7.993,0,0,1-1.3,1.3l-.1.1L.3,8.1A1.8,1.8,0,0,0,.7,9a.758.758,0,0,1,.2.4,3.552,3.552,0,0,0,.4.9h0l.3-.3a4.62,4.62,0,0,1,.7-.7A.646.646,0,0,1,2.8,9.1ZM7.6.3l.1.2,5.1,8.2-.1.1a4.875,4.875,0,0,0-1.1.4c-.8.4-1.5.7-2.2,1.1h0c1-.5,2.1-1,3.1-1.4a.661.661,0,0,1,.6.1,2.336,2.336,0,0,1,.7.7,1.38,1.38,0,0,0,.4.3l.1.1V10c.1-.2.1-.5.2-.7a5.638,5.638,0,0,1,.4-1.2.778.778,0,0,0-.2-.8C12.5,5.1,10.3,2.9,8.2.7,8.1.7,8,.6,7.9.5S7.7.3,7.6.3ZM.5,8.1l.9,1.8A4.263,4.263,0,0,0,2.5,8.7c1-1.7,2-3.5,3-5.2A10.93,10.93,0,0,1,6.3,2ZM14.3,9.9l-.1-.1a7.993,7.993,0,0,1-1.3-1.3c-1.1-1.7-2.2-3.4-3.2-5.1A10.382,10.382,0,0,1,8.5,1.7V1.6l.3-.2,1.9,1.9,4,4a.775.775,0,0,1,.2,1l-.3.9c-.1.2-.1.4-.2.6ZM9,2c.3.4.5.9.8,1.3,1,1.7,2.1,3.4,3.2,5.1a5.731,5.731,0,0,0,1.1,1.1c0-.1.1-.3.1-.4l.3-.9c.1-.3.1-.6-.2-.7-1.4-1.3-2.7-2.7-4-4ZM6.3,8.8l-.1-.1V8.5l.9-1a5.5,5.5,0,0,0,.7-.9A.646.646,0,0,0,8,6.1a.749.749,0,0,0-.1-.5c-.2-.1-.3-.2-.5-.2a.367.367,0,0,0-.3.1c-.1,0-.2,0-.2.1s-.1.3-.1.4h0l-.1.1H6.5L6.4,6V5.9c0-.2.1-.5.1-.7h0A1,1,0,0,1,7,4.8a2.045,2.045,0,0,1,1.1,0,1,1,0,0,1,.5.4,1.421,1.421,0,0,1,.2.6.749.749,0,0,1-.1.5,1.628,1.628,0,0,1-.3.6l-.5.5-.7.7H8.9l.1.1v.5H9l-.1.1H6.3Zm1.4-.3h1V8.3h-2l-.2.3H7A1.952,1.952,0,0,1,7.7,8.5ZM7.4,5.2a.864.864,0,0,1,.6.3.735.735,0,0,1,.2.6,1.854,1.854,0,0,1-.2.7.536.536,0,0,1-.3.4,1.756,1.756,0,0,0,.4-.5c.1-.1.2-.3.3-.4a.6.6,0,0,0,.1-.4.9.9,0,0,0-.1-.5A1.38,1.38,0,0,0,8,5.1a1.388,1.388,0,0,0-.9,0,.52.52,0,0,0-.4.2v.2h0c.1-.2.2-.2.3-.3Z" fill="none"/></svg>