<svg xmlns="http://www.w3.org/2000/svg" width="15.331" height="16" viewBox="0 0 15.331 16"><path d="M.124,8.018C.124,7.38.138,6.741.119,6.1A1.731,1.731,0,0,1,.482,4.994C1.267,3.912,2.039,2.82,2.827,1.739a.771.771,0,0,1,.356-.27C4.383,1.078,5.588.7,6.792.323c.108-.034.219-.062.324-.1a1.448,1.448,0,0,1,1-.023c1.328.422,2.655.847,3.985,1.263a.9.9,0,0,1,.449.4c.794,1.091,1.584,2.184,2.38,3.273a1.4,1.4,0,0,1,.275.86q0,2.112,0,4.224a1.079,1.079,0,0,1-.318.627c-.764,1.063-1.536,2.12-2.3,3.182a1.342,1.342,0,0,1-.7.5c-1.082.352-2.158.719-3.236,1.08-.259.086-.515.185-.78.247a.9.9,0,0,1-.462,0c-1.1-.357-2.188-.73-3.282-1.1-.264-.089-.529-.175-.794-.26a1.015,1.015,0,0,1-.533-.38q-.859-1.2-1.716-2.4c-.279-.388-.569-.768-.842-1.161a.622.622,0,0,1-.109-.33c-.009-.626,0-1.253,0-1.879V8.018ZM7.652,12h0q1.249,0,2.5,0c.351,0,.434-.055.545-.392.216-.653.424-1.309.636-1.963.307-.946.617-1.89.922-2.836a.425.425,0,0,0-.176-.565q-1.047-.766-2.1-1.529Q8.964,3.973,7.953,3.23A.45.45,0,0,0,7.4,3.217c-.317.223-.628.453-.941.68q-1.111.809-2.223,1.617c-.354.258-.708.516-1.059.779a.3.3,0,0,0-.134.369c.16.48.307.965.461,1.447q.56,1.755,1.119,3.51c.094.3.19.379.5.379Zm7.2-3.876h0c0-.667,0-1.334,0-2,0-.224-.093-.287-.3-.216-.559.19-1.118.383-1.679.566a.3.3,0,0,0-.22.212c-.158.492-.321.981-.48,1.473-.214.659-.425,1.319-.638,1.979-.2.617-.4,1.232-.594,1.852a.344.344,0,0,0,.035.267c.345.48.7.953,1.059,1.424.14.186.25.176.387-.014.763-1.056,1.53-2.109,2.283-3.172a.875.875,0,0,0,.144-.457C14.865,9.4,14.856,8.761,14.856,8.123ZM7.462,1.685h0c0-.3,0-.6,0-.906,0-.226-.086-.284-.3-.214-.276.088-.55.182-.826.269l-2.8.877a1.07,1.07,0,0,0-.576.432c-.245.356-.5.7-.755,1.055Q1.482,4.2.763,5.212c-.132.186-.1.285.111.359.569.2,1.139.4,1.711.583A.3.3,0,0,0,2.8,6.12c.16-.1.308-.215.46-.325Q5.3,4.312,7.334,2.825a.342.342,0,0,0,.122-.234C7.471,2.29,7.462,1.987,7.462,1.685ZM.474,8.081h0c0,.61.006,1.22,0,1.83a1.073,1.073,0,0,0,.22.683c.253.343.5.691.751,1.036q.744,1.03,1.49,2.061c.114.157.233.162.343.013.363-.5.724-.993,1.078-1.5a.283.283,0,0,0,.027-.218c-.542-1.713-1.093-3.424-1.632-5.137a.62.62,0,0,0-.46-.446c-.5-.151-.995-.323-1.49-.491-.241-.082-.322-.028-.322.233Q.474,7.115.474,8.081Zm7.19,4.262c-.917,0-1.835,0-2.752,0a.386.386,0,0,0-.274.09c-.373.488-.731.987-1.09,1.486-.1.146-.062.259.107.315s.325.1.486.156c1.06.358,2.12.72,3.181,1.074a1.026,1.026,0,0,0,.672-.009c.252-.088.506-.17.76-.255.965-.322,1.931-.642,2.895-.967.2-.067.233-.183.109-.35-.342-.462-.693-.918-1.03-1.383a.375.375,0,0,0-.346-.163C9.476,12.346,8.57,12.343,7.664,12.343ZM7.818,1.677h.008c0,.239.015.48,0,.717a.507.507,0,0,0,.252.5c1.473,1.061,2.935,2.138,4.4,3.205a.3.3,0,0,0,.233.056c.595-.192,1.187-.394,1.777-.6.182-.064.2-.181.081-.347-.756-1.033-1.514-2.064-2.265-3.1a1.093,1.093,0,0,0-.572-.408Q9.936,1.132,8.138.567C7.916.5,7.823.556,7.819.788,7.814,1.084,7.818,1.381,7.818,1.677ZM7.632,16a.851.851,0,0,1-.26-.037c-.8-.261-1.61-.534-2.394-.8l-.889-.3c-.275-.092-.555-.183-.793-.259a1.138,1.138,0,0,1-.592-.424l-.725-1.014L.988,11.782c-.109-.152-.22-.3-.331-.453-.17-.231-.345-.469-.512-.71a.739.739,0,0,1-.131-.395c-.006-.465,0-.937,0-1.394,0-.163,0-.325,0-.487V8.138h0l-.007-.12c0-.19,0-.381,0-.572,0-.439.006-.894-.007-1.339A1.838,1.838,0,0,1,.386,4.924c.375-.516.753-1.043,1.118-1.553.4-.558.815-1.136,1.227-1.7a.888.888,0,0,1,.415-.313c.926-.3,1.87-.6,2.782-.886l.829-.26.1-.031A2.1,2.1,0,0,0,7.072.109,1.578,1.578,0,0,1,8.155.083L9.33.457c.92.293,1.872.6,2.809.889a.978.978,0,0,1,.494.419l.015.021q.432.592.861,1.185.757,1.044,1.52,2.088a1.524,1.524,0,0,1,.3.93c0,1.217,0,2.52,0,4.224a.94.94,0,0,1-.262.593c-.026.034-.053.068-.078.1q-.67.931-1.346,1.861-.478.66-.957,1.321a1.468,1.468,0,0,1-.765.549c-.749.243-1.508.5-2.242.746l-.993.333-.189.065a6.081,6.081,0,0,1-.6.185A1.176,1.176,0,0,1,7.632,16ZM.242,7.9H.251v.443c0,.163,0,.325,0,.488,0,.456,0,.927,0,1.39a.516.516,0,0,0,.088.264c.165.237.34.475.509.7.111.152.222.3.332.455q.5.693.991,1.387.363.507.725,1.013a.892.892,0,0,0,.473.337c.238.076.519.167.8.26l.889.3c.783.265,1.593.538,2.392.8a.785.785,0,0,0,.4,0,5.664,5.664,0,0,0,.578-.178l.191-.065.992-.333c.735-.248,1.495-.5,2.245-.747a1.221,1.221,0,0,0,.646-.463q.478-.662.958-1.321.674-.93,1.345-1.86c.027-.037.055-.074.084-.11a.735.735,0,0,0,.212-.448c0-1.7-.005-3.007-.005-4.224a1.289,1.289,0,0,0-.252-.79q-.763-1.043-1.521-2.089-.429-.592-.86-1.184L12.441,1.9a.748.748,0,0,0-.373-.332c-.938-.293-1.89-.6-2.81-.89L8.083.309a1.323,1.323,0,0,0-.923.02C7.081.36,7,.384,6.924.407l-.1.029L6,.7c-.912.287-1.855.584-2.78.885a.649.649,0,0,0-.3.227c-.411.564-.825,1.142-1.225,1.7-.366.51-.744,1.038-1.12,1.554A1.614,1.614,0,0,0,.237,6.1c.014.45.011.906.008,1.348Zm7.4,7.739a1.115,1.115,0,0,1-.355-.059c-.714-.238-1.427-.48-2.14-.721L4.1,14.506c-.086-.029-.172-.056-.259-.083l-.227-.073a.328.328,0,0,1-.232-.2.324.324,0,0,1,.067-.294l.025-.035c.345-.48.7-.976,1.067-1.454a.5.5,0,0,1,.367-.136c.715,0,1.442,0,2.146,0H8.365c.661,0,1.344,0,2.016,0a.5.5,0,0,1,.443.212c.209.288.426.577.637.857q.2.261.392.524a.358.358,0,0,1,.085.32.353.353,0,0,1-.251.213q-1.054.355-2.111.706l-1,.333c-.181.06-.362.12-.542.182A1.188,1.188,0,0,1,7.64,15.639ZM6.455,12.461c-.512,0-1.03,0-1.542,0a.335.335,0,0,0-.182.043c-.362.475-.718.97-1.062,1.448l-.025.035c-.033.046-.037.074-.034.083s.024.031.082.05c.074.025.149.049.223.072l.264.085,1.042.353c.713.241,1.425.483,2.139.721a.907.907,0,0,0,.595-.009c.181-.063.364-.123.546-.184l1-.332q1.056-.352,2.111-.706c.072-.024.1-.049.1-.06s0-.046-.049-.108q-.2-.263-.391-.523c-.211-.281-.43-.571-.64-.86a.261.261,0,0,0-.25-.115c-.672,0-1.356,0-2.017,0H6.455Zm5.769,1.471a.378.378,0,0,1-.283-.18c-.339-.446-.7-.928-1.061-1.427a.463.463,0,0,1-.052-.371c.139-.452.287-.908.431-1.349.055-.168.109-.336.164-.5l.274-.853q.181-.564.364-1.127c.068-.212.138-.424.207-.637q.138-.417.273-.835a.418.418,0,0,1,.295-.288c.425-.139.856-.286,1.273-.428l.406-.138a.382.382,0,0,1,.337.014.378.378,0,0,1,.122.313c0,.48,0,.96,0,1.439v.68c0,.132,0,.264,0,.4,0,.459,0,.935-.008,1.4a.989.989,0,0,1-.166.523c-.571.806-1.16,1.62-1.73,2.407l-.553.765a.394.394,0,0,1-.291.2ZM14.692,6a.345.345,0,0,0-.1.021l-.4.138c-.417.142-.849.289-1.276.428a.189.189,0,0,0-.143.136q-.135.418-.273.837c-.069.212-.139.424-.208.636L11.922,9.32c-.091.285-.183.569-.274.854-.055.168-.109.336-.164.5-.143.44-.292.9-.43,1.345a.237.237,0,0,0,.018.164c.357.5.719.977,1.057,1.422.064.085.1.087.1.087s.032,0,.1-.1l.554-.765c.569-.786,1.157-1.6,1.728-2.4a.761.761,0,0,0,.123-.392c.011-.465.01-.938.008-1.4,0-.172,0-.344,0-.515V7.561q0-.719,0-1.438c0-.1-.023-.122-.023-.122A.058.058,0,0,0,14.692,6ZM3.109,13.931h0a.349.349,0,0,1-.273-.17q-.537-.738-1.07-1.479l-.63-.872c-.177-.245-.359-.5-.542-.746a1.2,1.2,0,0,1-.242-.755c.006-.433.005-.874,0-1.3,0-.176,0-.351,0-.527V6.149a.4.4,0,0,1,.121-.341.4.4,0,0,1,.358,0l.256.087c.4.137.818.279,1.23.4a.735.735,0,0,1,.539.523q.447,1.421.9,2.838.366,1.149.73,2.3a.4.4,0,0,1-.042.323c-.306.434-.639.9-1.08,1.5A.326.326,0,0,1,3.109,13.931ZM.591,8.2c0,.136,0,.272,0,.408,0,.428,0,.87,0,1.305a.957.957,0,0,0,.2.612c.183.248.366.5.543.748l.63.872q.534.74,1.069,1.478c.042.057.072.072.082.072h0c.009,0,.034-.012.069-.06.44-.6.772-1.06,1.077-1.494a.172.172,0,0,0,.011-.115q-.363-1.149-.731-2.3-.452-1.419-.9-2.839a.5.5,0,0,0-.381-.368c-.417-.125-.834-.268-1.238-.406L.759,6.028C.643,5.988.614,6,.613,6h0a.3.3,0,0,0-.02.148c0,.458,0,.916,0,1.374V8.2Zm5.615,3.918H5.121a.538.538,0,0,1-.613-.462q-.363-1.144-.728-2.287-.2-.61-.391-1.223l-.156-.5c-.1-.312-.2-.634-.3-.949A.419.419,0,0,1,3.1,6.2c.347-.26.7-.519,1.047-.77l.014-.01L6.2,3.94l.417-.3c.234-.17.475-.346.716-.515a.57.57,0,0,1,.693.014q1.011.743,2.025,1.483l.889.647,1.209.881a.54.54,0,0,1,.218.7c-.191.594-.385,1.188-.578,1.781l-.344,1.055c-.078.241-.156.483-.233.724q-.2.621-.4,1.24c-.127.384-.249.473-.657.473-.591,0-1.182,0-1.774,0H6.206ZM7.664,3.246a.335.335,0,0,0-.2.068c-.239.168-.48.344-.712.513l-.418.3L4.3,5.609l-.014.01c-.343.251-.7.509-1.044.768-.1.076-.125.138-.092.237.1.317.206.64.3.953q.078.249.157.5L4.005,9.3q.365,1.143.728,2.287c.081.255.135.3.389.3h5.027c.3,0,.339-.027.433-.311.136-.412.269-.825.4-1.238.077-.242.155-.483.234-.725q.171-.528.343-1.055c.193-.593.387-1.186.578-1.78a.313.313,0,0,0-.133-.434L10.8,5.456q-.446-.323-.889-.647Q8.9,4.068,7.883,3.325A.372.372,0,0,0,7.664,3.246Zm5,3.039a.465.465,0,0,1-.256-.086q-.838-.607-1.674-1.22C9.841,4.327,8.917,3.653,8.005,3a.627.627,0,0,1-.3-.61c.013-.16.01-.326.007-.487l0-.1H7.7V1.677c0-.089,0-.179,0-.268,0-.2,0-.415,0-.623A.382.382,0,0,1,7.825.47.393.393,0,0,1,8.173.455L9.5.874q1.133.357,2.266.717a1.207,1.207,0,0,1,.632.452c.588.812,1.191,1.634,1.773,2.43l.492.671a.369.369,0,0,1,.087.327.323.323,0,0,1-.225.2c-.693.243-1.258.434-1.78.6A.276.276,0,0,1,12.664,6.285ZM7.936,1.559h.009v.118c0,.072,0,.144,0,.216A4.855,4.855,0,0,1,7.94,2.4a.391.391,0,0,0,.2.4c.913.658,1.837,1.333,2.73,1.985q.837.611,1.674,1.22a.208.208,0,0,0,.127.04c.519-.168,1.083-.358,1.774-.6.055-.019.075-.039.077-.047s0-.05-.052-.118l-.491-.671C13.4,3.817,12.8,2.994,12.207,2.181a.975.975,0,0,0-.512-.365Q10.563,1.456,9.43,1.1L8.1.68C7.989.644,7.963.662,7.963.662S7.939.7,7.937.79c0,.206,0,.415,0,.618ZM2.647,6.281a.3.3,0,0,1-.1-.015C1.923,6.061,1.3,5.847.835,5.683A.378.378,0,0,1,.577,5.47a.382.382,0,0,1,.09-.326c.377-.532.758-1.062,1.138-1.592l.3-.423c.081-.114.164-.228.246-.342.169-.232.343-.472.508-.711A1.18,1.18,0,0,1,3.5,1.6l1.3-.406L6.3.721c.158-.05.316-.1.473-.154L7.126.452a.38.38,0,0,1,.339.014.375.375,0,0,1,.118.312c0,.212,0,.424,0,.636l0,.389v.129c0,.217,0,.443-.008.665a.458.458,0,0,1-.17.324c-1.164.854-2.351,1.718-3.5,2.554l-.571.415-.113.083c-.113.084-.231.172-.355.248A.444.444,0,0,1,2.647,6.281ZM7.306.655A.38.38,0,0,0,7.2.677L6.847.792c-.158.052-.317.1-.476.154l-1.505.472-1.294.406a.953.953,0,0,0-.514.386c-.167.242-.342.483-.511.716-.082.114-.165.227-.246.341L2,3.69q-.57.795-1.138,1.591C.8,5.368.8,5.4.8,5.4s.012.026.11.061c.468.163,1.086.377,1.709.582a.184.184,0,0,0,.12-.023,4.094,4.094,0,0,0,.338-.236L3.194,5.7l.572-.416c1.148-.835,2.335-1.7,3.5-2.553a.228.228,0,0,0,.073-.144c.011-.216.009-.438.007-.652,0-.083,0-.166,0-.249l0-.271c0-.212,0-.423,0-.635,0-.1-.021-.121-.021-.122h0A.063.063,0,0,0,7.306.655ZM6.493,9.971l-.059-.059c.067-.1.206-.317.417-.65l.512-.817.482-.786.42-.723c.089-.156.16-.283.212-.38l-.028-.028H7.582c-.219,0-.413,0-.582.011a1.232,1.232,0,0,0-.3.032.134.134,0,0,0-.063.052.82.82,0,0,0-.04.213l-.051.394-.025.023H6.4L6.378,7.23l.014-.767c0-.087-.005-.223-.014-.406l.056-.028c.1.012.311.024.626.037s.525.019.631.019q.569,0,1.24-.039l.022.023v.145l-.4.714q-.366.656-.837,1.552a13.837,13.837,0,0,0-.685,1.468L7,9.971c-.107-.01-.187-.014-.241-.014A2.434,2.434,0,0,0,6.493,9.971Zm-.015.041-.095-.1L6.4,9.89c.067-.1.207-.318.417-.649l.512-.817.481-.786.42-.721c.079-.139.144-.256.2-.35H7.582c-.216,0-.411,0-.581.011a1.077,1.077,0,0,0-.284.029.093.093,0,0,0-.046.036.853.853,0,0,0-.035.2l-.053.41-.047.042H6.388l-.05-.044.015-.785c0-.086,0-.222-.014-.4l0-.025.09-.045h.011c.1.011.311.024.623.036s.524.02.63.02c.376,0,.793-.013,1.238-.039h.017l.047.046v.173l-.408.722c-.243.434-.525.956-.837,1.551a14.211,14.211,0,0,0-.684,1.464l0,.01-.049.039H7C6.892,10,6.812,10,6.759,10a2.617,2.617,0,0,0-.262.014Zm.281-.1c.053,0,.129,0,.228.013l.007-.006a14.148,14.148,0,0,1,.684-1.462c.313-.6.595-1.119.838-1.553l.4-.7V6.087c-.439.025-.851.038-1.223.038-.107,0-.32-.007-.633-.02s-.51-.024-.617-.035l-.022.011c.008.171.013.3.013.382l-.014.75h0l.091,0,.048-.38A.714.714,0,0,1,6.6,6.6a.176.176,0,0,1,.08-.068A1.063,1.063,0,0,1,7,6.5c.17-.008.367-.012.584-.012h.884l.06.061-.014.025c-.053.1-.125.228-.213.382l-.42.722L7.4,8.466l-.512.817c-.193.3-.328.514-.4.624l.023.023A2.385,2.385,0,0,1,6.759,9.917Z" fill="none"/></svg>