<svg xmlns="http://www.w3.org/2000/svg" width="13.951" height="16" viewBox="0 0 13.951 16"><path d="M13.93,8c0,1.247-.01,2.484,0,3.731a.448.448,0,0,1-.261.454q-3.233,1.854-6.446,3.73a.435.435,0,0,1-.522,0Q3.527,14.071.353,12.238A.638.638,0,0,1,0,11.61C.015,9.174.015,6.73,0,4.3a.5.5,0,0,1,.29-.5C2.459,2.555,4.6,1.318,6.749.072a.435.435,0,0,1,.493.009Q10.461,1.952,13.688,3.8a.469.469,0,0,1,.261.464C13.93,5.5,13.93,6.749,13.93,8ZM6.981,3.676C5.682,6.015,4.4,8.285,3.107,10.585h7.75ZM7.368,3.5,11.2,10.321c.764-2.068,1.488-4.039,2.242-6.059ZM.527,4.265c.743,2.03,1.478,4,2.232,6.059L6.585,3.511Zm10.224,6.8H3.2c1.276,1.488,2.523,2.937,3.769,4.406ZM7.194,3.048l5.325.666.029-.067L7.2.555ZM6.749.565,1.415,3.647l.039.067,5.3-.666ZM13.5,11.571V5.483l-.058-.009c-.642,1.739-1.29,3.478-1.941,5.247ZM.517,5.493l-.048.019v6.05l1.971-.851Zm7.576,9.335.039.048,5.1-2.957c-.619-.261-1.149-.483-1.671-.725a.349.349,0,0,0-.481.111l0,.005c-.444.542-.908,1.064-1.362,1.6-.532.647-1.073,1.285-1.624,1.923ZM5.8,14.876l.049-.048-3.074-3.6a.24.24,0,0,0-.2-.087c-.609.251-1.2.512-1.856.793Zm-.809-4.763a5.078,5.078,0,0,0-.147-.624l.011-.033.081-.031.031.015a1.659,1.659,0,0,0,.165.335.553.553,0,0,0,.253.2.894.894,0,0,0,.356.07.592.592,0,0,0,.6-.376.944.944,0,0,0,.077-.391.661.661,0,0,0-.152-.46.547.547,0,0,0-.424-.167.7.7,0,0,0-.165.018,1.7,1.7,0,0,0-.224.079l-.024-.022.048-.24c.119.007.2.011.238.011a.5.5,0,0,0,.408-.183.656.656,0,0,0,.15-.431A.481.481,0,0,0,6.12,7.52a.547.547,0,0,0-.388-.147.671.671,0,0,0-.287.062.737.737,0,0,0-.223.149c-.025.05-.065.148-.119.295l-.022.02h-.1l-.018-.02.132-.51a.947.947,0,0,1,.746-.311.855.855,0,0,1,.579.191.6.6,0,0,1,.221.478.689.689,0,0,1-.129.4,1.5,1.5,0,0,1-.361.346.807.807,0,0,1,.535.228.648.648,0,0,1,.155.438,1,1,0,0,1-.382.76,1.3,1.3,0,0,1-.884.338,1.543,1.543,0,0,1-.28-.025A1.446,1.446,0,0,1,4.993,10.113ZM7.153,8.82a5.753,5.753,0,0,1,.039-.7,1.555,1.555,0,0,1,.175-.558.949.949,0,0,1,.339-.368.884.884,0,0,1,.463-.122.9.9,0,0,1,.518.152.85.85,0,0,1,.321.466,3,3,0,0,1,.1.856,2.429,2.429,0,0,1-.27,1.3.889.889,0,0,1-1.17.312.806.806,0,0,1-.3-.3A1.317,1.317,0,0,1,7.2,9.387,3.189,3.189,0,0,1,7.153,8.82Zm.378-.127a4.215,4.215,0,0,0,.063.76.944.944,0,0,0,.208.494.469.469,0,0,0,.349.151.44.44,0,0,0,.327-.134.9.9,0,0,0,.191-.46,4.528,4.528,0,0,0,.061-.8,3.232,3.232,0,0,0-.143-1.113.491.491,0,0,0-.473-.36.469.469,0,0,0-.436.279A3.035,3.035,0,0,0,7.531,8.693Z" fill="none"/></svg>