<svg xmlns="http://www.w3.org/2000/svg" width="13.941" height="16" viewBox="0 0 13.941 16"><path d="M13.933,8c0,1.244-.006,2.488,0,3.733a.447.447,0,0,1-.261.452q-3.228,1.852-6.445,3.728a.444.444,0,0,1-.52,0Q3.539,14.068.355,12.243A.624.624,0,0,1,0,11.623Q.023,7.962,0,4.3a.5.5,0,0,1,.3-.5Q3.53,1.948,6.744.073a.42.42,0,0,1,.49.013q3.219,1.867,6.447,3.723a.458.458,0,0,1,.258.461C13.93,5.514,13.934,6.758,13.934,8ZM6.978,3.683,3.1,10.59h7.749Zm.394-.176L11.2,10.326c.763-2.067,1.492-4.043,2.239-6.058ZM.523,4.27C1.271,6.3,2,8.276,2.758,10.326L6.583,3.509Zm10.228,6.8H3.205c1.28,1.492,2.519,2.942,3.772,4.4C8.245,14,9.475,12.566,10.751,11.074ZM7.2,3.056l5.323.668.027-.068L7.2.563ZM6.747.571,1.415,3.655l.034.069,5.3-.667Zm6.751,11V5.486l-.054-.01c-.643,1.74-1.285,3.48-1.934,5.244ZM.519,5.5l-.045.022v6.052l1.973-.848ZM8.1,14.838l.043.053,5.106-2.956c-.614-.263-1.148-.484-1.669-.723a.342.342,0,0,0-.483.116c-.445.539-.907,1.063-1.361,1.6q-.82.957-1.636,1.914ZM5.8,14.886l.05-.051q-1.538-1.8-3.077-3.6c-.045-.053-.157-.108-.207-.088-.6.247-1.2.509-1.858.792ZM6.9,9.993l-.023.025c-.2-.012-.444-.019-.732-.019s-.583,0-.886.019L5.23,9.995V9.864l.027-.021c.072-.009.143-.015.211-.021A.976.976,0,0,0,5.7,9.785a.139.139,0,0,0,.062-.079,3.967,3.967,0,0,0,.041-.812V8.361q0-.242,0-.607V7.6c0-.072-.015-.108-.046-.108a.563.563,0,0,0-.125.05c-.194.09-.361.169-.5.237L5.1,7.759a2.305,2.305,0,0,0-.046-.272V7.47q.591-.167,1.319-.447l.044.032c0,.085-.013.209-.023.374,0,.063-.009.231-.012.5l-.007.84a6.827,6.827,0,0,0,.03.967.093.093,0,0,0,.064.059,2.455,2.455,0,0,0,.4.039L6.9,9.86Zm2.192,0-.023.025c-.2-.012-.443-.019-.731-.019s-.583,0-.887.019l-.023-.023V9.864l.025-.021c.072-.009.143-.015.212-.021A.976.976,0,0,0,7.9,9.785a.139.139,0,0,0,.062-.079A3.963,3.963,0,0,0,8,8.894V8.361q0-.24-.009-.607V7.6c0-.072-.014-.108-.044-.108a.579.579,0,0,0-.127.05c-.193.09-.361.169-.5.237l-.026-.015c-.01-.091-.025-.182-.044-.272V7.47q.585-.167,1.311-.447l.047.033c-.006.084-.014.209-.024.374,0,.063-.008.231-.013.5l-.007.84a6.724,6.724,0,0,0,.031.967.1.1,0,0,0,.064.059,2.464,2.464,0,0,0,.4.039l.031.019Z" fill="none"/></svg>