<svg xmlns="http://www.w3.org/2000/svg" width="13.941" height="16" viewBox="0 0 13.941 16"><path d="M13.933,8c0,1.244-.006,2.488,0,3.733a.447.447,0,0,1-.261.452q-3.228,1.852-6.445,3.728a.444.444,0,0,1-.52,0Q3.539,14.068.355,12.243A.624.624,0,0,1,0,11.623Q.023,7.962,0,4.3a.5.5,0,0,1,.3-.5Q3.53,1.948,6.744.073a.42.42,0,0,1,.49.013q3.219,1.867,6.447,3.723a.458.458,0,0,1,.258.461C13.93,5.514,13.934,6.758,13.934,8ZM6.978,3.683,3.1,10.59h7.749Zm.394-.176L11.2,10.326c.763-2.067,1.492-4.043,2.239-6.058ZM.523,4.27C1.271,6.3,2,8.276,2.758,10.326L6.583,3.509Zm10.228,6.8H3.205c1.28,1.492,2.519,2.942,3.772,4.4C8.245,14,9.475,12.566,10.751,11.074ZM7.2,3.056l5.323.668.027-.068L7.2.563ZM6.747.571,1.415,3.655l.034.069,5.3-.667Zm6.751,11V5.486l-.054-.01c-.643,1.74-1.285,3.48-1.934,5.244ZM.519,5.5l-.045.022v6.052l1.973-.848ZM8.1,14.838l.043.053,5.106-2.956c-.614-.263-1.148-.484-1.669-.723a.342.342,0,0,0-.483.116c-.445.539-.907,1.063-1.361,1.6q-.82.957-1.636,1.914ZM5.8,14.886l.05-.051q-1.538-1.8-3.077-3.6c-.045-.053-.157-.108-.207-.088-.6.247-1.2.509-1.858.792Zm1.086-4.7-.023.026q-.3-.019-.732-.019c-.288,0-.58.006-.887.019l-.023-.024v-.13l.026-.022.212-.021A1.027,1.027,0,0,0,5.7,9.98.139.139,0,0,0,5.757,9.9,4,4,0,0,0,5.8,9.089V8.556c0-.159,0-.362-.009-.607v-.16c0-.072-.015-.107-.045-.107a.568.568,0,0,0-.126.049q-.29.135-.5.238L5.09,7.953a2.47,2.47,0,0,0-.045-.271V7.665q.588-.167,1.318-.446l.045.032c-.006.083-.014.208-.023.374,0,.062-.009.231-.013.5l-.007.84a6.816,6.816,0,0,0,.03.967.1.1,0,0,0,.064.06,2.58,2.58,0,0,0,.4.038l.028.022Zm2.2-.985a.965.965,0,0,1-.38.773,1.352,1.352,0,0,1-.89.316,1.221,1.221,0,0,1-.521-.118,4.765,4.765,0,0,0-.1-.629l.012-.03.107-.032.026.011a.715.715,0,0,0,.676.541A.5.5,0,0,0,8.4,9.877a.611.611,0,0,0,.144-.433.544.544,0,0,0-.161-.42.58.58,0,0,0-.408-.141.916.916,0,0,0-.255.039L7.7,8.893a3.085,3.085,0,0,0,.081-.325h.175a.462.462,0,0,0,.33-.135.441.441,0,0,0,.138-.324.372.372,0,0,0-.123-.29.434.434,0,0,0-.306-.111.451.451,0,0,0-.4.15.842.842,0,0,0-.1.2l-.024.07-.03.019-.108-.008-.02-.022L7.4,7.772a2.61,2.61,0,0,0,.046-.29,1.131,1.131,0,0,1,.7-.209.862.862,0,0,1,.568.17.561.561,0,0,1,.2.447.735.735,0,0,1-.474.645.66.66,0,0,1,.433.165A.611.611,0,0,1,9.088,9.2Z" fill="none"/></svg>