<svg xmlns="http://www.w3.org/2000/svg" width="13.951" height="16" viewBox="0 0 13.951 16"><path d="M13.93,8c0,1.247-.01,2.484,0,3.731a.448.448,0,0,1-.261.454q-3.233,1.854-6.446,3.73a.435.435,0,0,1-.522,0Q3.527,14.071.353,12.238A.638.638,0,0,1,0,11.61C.015,9.174.015,6.73,0,4.3a.5.5,0,0,1,.29-.5C2.459,2.555,4.6,1.318,6.749.072a.435.435,0,0,1,.493.009Q10.461,1.952,13.688,3.8a.469.469,0,0,1,.261.464C13.93,5.5,13.93,6.749,13.93,8ZM6.981,3.676C5.682,6.015,4.4,8.285,3.107,10.585h7.75ZM7.368,3.5,11.2,10.321c.764-2.068,1.488-4.039,2.242-6.059ZM.527,4.265c.743,2.03,1.478,4,2.232,6.059L6.585,3.511Zm10.224,6.8H3.2c1.276,1.488,2.523,2.937,3.769,4.406ZM7.194,3.048l5.325.666.029-.067L7.2.555ZM6.749.565,1.415,3.647l.039.067,5.3-.666ZM13.5,11.571V5.483l-.058-.009c-.642,1.739-1.29,3.478-1.941,5.247ZM.517,5.493l-.048.019v6.05l1.971-.851Zm7.576,9.335.039.048,5.1-2.957c-.619-.261-1.149-.483-1.671-.725a.349.349,0,0,0-.481.111l0,.005c-.444.542-.908,1.064-1.362,1.6-.532.647-1.073,1.285-1.624,1.923ZM5.8,14.876l.049-.048-3.074-3.6a.24.24,0,0,0-.2-.087c-.609.251-1.2.512-1.856.793Zm-.923-4.71-.027-.022v-.1l.737-.78a3.726,3.726,0,0,0,.589-.746,1.087,1.087,0,0,0,.134-.493.639.639,0,0,0-.162-.446A.566.566,0,0,0,5.71,7.4a.8.8,0,0,0-.31.055.389.389,0,0,0-.177.123,1.784,1.784,0,0,0-.131.383l-.02.017h-.09L4.96,7.958a5.739,5.739,0,0,0,.07-.588,1.014,1.014,0,0,1,.386-.258,1.234,1.234,0,0,1,.375-.056,1.157,1.157,0,0,1,.447.088.737.737,0,0,1,.343.285.813.813,0,0,1,.13.456,1.075,1.075,0,0,1-.076.388,1.446,1.446,0,0,1-.222.376,5.825,5.825,0,0,1-.4.435l-.686.7H6.2a6.409,6.409,0,0,0,.666-.029l.016.018a1.137,1.137,0,0,0-.014.2.863.863,0,0,0,.014.173l-.016.025c-.105-.006-.267-.011-.486-.016l-.433-.006c-.142,0-.334,0-.574,0S4.965,10.158,4.879,10.166Zm2.439-.053c-.036-.115-.108-.3-.218-.568l0-.028.077-.044.027.006a2.713,2.713,0,0,0,.227.378.651.651,0,0,0,.206.105.939.939,0,0,0,.339.061.79.79,0,0,0,.393-.1.589.589,0,0,0,.255-.286,1.046,1.046,0,0,0,.084-.429.925.925,0,0,0-.083-.406.56.56,0,0,0-.251-.258.778.778,0,0,0-.365-.088.712.712,0,0,0-.224.033.557.557,0,0,0-.167.085,1.245,1.245,0,0,0-.159.152L7.373,8.7,7.4,8.23q.009-.134.009-.27V7.568c0-.117,0-.229-.011-.336,0-.066-.007-.108-.007-.126l.029-.022q.336.027.767.027c.219,0,.48-.009.785-.027l.009.022a1.467,1.467,0,0,0-.015.2c0,.03,0,.082.006.153l-.022.014q-.25-.018-.673-.018c-.382,0-.6,0-.666,0-.022.173-.038.478-.046.915A1.205,1.205,0,0,1,7.887,8.2,1.029,1.029,0,0,1,8.2,8.149a1.017,1.017,0,0,1,.459.11.717.717,0,0,1,.329.319.954.954,0,0,1,.109.451,1.155,1.155,0,0,1-.368.821,1.266,1.266,0,0,1-.943.375,1.055,1.055,0,0,1-.254-.026A1.139,1.139,0,0,1,7.318,10.113Z" fill="none"/></svg>