<svg xmlns="http://www.w3.org/2000/svg" width="13.951" height="16" viewBox="0 0 13.951 16"><path d="M13.93,8c0,1.247-.01,2.484,0,3.731a.448.448,0,0,1-.261.454q-3.233,1.854-6.446,3.73a.435.435,0,0,1-.522,0Q3.527,14.071.353,12.238A.638.638,0,0,1,0,11.61C.015,9.174.015,6.73,0,4.3a.5.5,0,0,1,.29-.5C2.459,2.555,4.6,1.318,6.749.072a.435.435,0,0,1,.493.009Q10.461,1.952,13.688,3.8a.469.469,0,0,1,.261.464C13.93,5.5,13.93,6.749,13.93,8ZM6.981,3.676C5.682,6.015,4.4,8.285,3.107,10.585h7.75ZM7.368,3.5,11.2,10.321c.764-2.068,1.488-4.039,2.242-6.059ZM.527,4.265c.743,2.03,1.478,4,2.232,6.059L6.585,3.511Zm10.224,6.8H3.2c1.276,1.488,2.523,2.937,3.769,4.406ZM7.194,3.048l5.325.666.029-.067L7.2.555ZM6.749.565,1.415,3.647l.039.067,5.3-.666ZM13.5,11.571V5.483l-.058-.009c-.642,1.739-1.29,3.478-1.941,5.247ZM.517,5.493l-.048.019v6.05l1.971-.851Zm7.576,9.335.039.048,5.1-2.957c-.619-.261-1.149-.483-1.671-.725a.349.349,0,0,0-.481.111l0,.005c-.444.542-.908,1.064-1.362,1.6-.532.647-1.073,1.285-1.624,1.923ZM5.8,14.876l.049-.048-3.074-3.6a.24.24,0,0,0-.2-.087c-.609.251-1.2.512-1.856.793Zm-.928-4.7-.026-.022v-.1l.736-.78a3.74,3.74,0,0,0,.59-.746,1.1,1.1,0,0,0,.134-.493.635.635,0,0,0-.163-.446.565.565,0,0,0-.44-.178.8.8,0,0,0-.31.055.389.389,0,0,0-.177.123,1.846,1.846,0,0,0-.131.383l-.019.017H4.977l-.022-.019a5.744,5.744,0,0,0,.071-.588,1.006,1.006,0,0,1,.386-.258,1.225,1.225,0,0,1,.375-.056,1.152,1.152,0,0,1,.446.088.732.732,0,0,1,.343.285.8.8,0,0,1,.13.456,1.054,1.054,0,0,1-.076.388,1.392,1.392,0,0,1-.222.376,5.574,5.574,0,0,1-.4.435l-.686.7h.868a6.444,6.444,0,0,0,.667-.029l.015.018a1.152,1.152,0,0,0-.013.2.875.875,0,0,0,.013.173l-.015.025c-.106-.006-.268-.011-.486-.016l-.433-.006c-.143,0-.334,0-.574.005S4.961,10.169,4.874,10.177Zm2.38-.073a4.975,4.975,0,0,0-.148-.625l.011-.033.082-.03.031.015a1.648,1.648,0,0,0,.165.334.552.552,0,0,0,.252.2.9.9,0,0,0,.357.07.592.592,0,0,0,.6-.376.944.944,0,0,0,.077-.391.655.655,0,0,0-.153-.46.541.541,0,0,0-.423-.167.754.754,0,0,0-.165.017,1.868,1.868,0,0,0-.224.079l-.024-.022.048-.239c.119.007.2.011.238.011a.5.5,0,0,0,.408-.183.656.656,0,0,0,.15-.431.479.479,0,0,0-.157-.365.547.547,0,0,0-.388-.147.685.685,0,0,0-.287.061.757.757,0,0,0-.224.15c-.024.05-.064.148-.118.295l-.022.019h-.1L7.225,7.87l.132-.511a.948.948,0,0,1,.746-.31.859.859,0,0,1,.579.19.6.6,0,0,1,.221.479.68.68,0,0,1-.13.4,1.461,1.461,0,0,1-.36.347.809.809,0,0,1,.535.227.651.651,0,0,1,.155.439,1,1,0,0,1-.382.76,1.3,1.3,0,0,1-.884.338,1.456,1.456,0,0,1-.28-.026A1.5,1.5,0,0,1,7.254,10.1Z" fill="none"/></svg>