<svg xmlns="http://www.w3.org/2000/svg" width="13.941" height="16" viewBox="0 0 13.941 16"><path d="M13.933,8c0,1.244-.006,2.488,0,3.733a.447.447,0,0,1-.261.452q-3.228,1.852-6.445,3.728a.444.444,0,0,1-.52,0Q3.539,14.068.355,12.243A.624.624,0,0,1,0,11.623Q.023,7.962,0,4.3a.5.5,0,0,1,.3-.5Q3.53,1.948,6.744.073a.42.42,0,0,1,.49.013q3.219,1.867,6.447,3.723a.458.458,0,0,1,.258.461C13.93,5.514,13.934,6.758,13.934,8ZM6.978,3.683,3.1,10.59h7.749Zm.394-.176L11.2,10.326c.763-2.067,1.492-4.043,2.239-6.058ZM.523,4.27C1.271,6.3,2,8.276,2.758,10.326L6.583,3.509Zm10.228,6.8H3.205c1.28,1.492,2.519,2.942,3.772,4.4C8.245,14,9.475,12.566,10.751,11.074ZM7.2,3.056l5.323.668.027-.068L7.2.563ZM6.747.571,1.415,3.655l.034.069,5.3-.667Zm6.751,11V5.486l-.054-.01c-.643,1.74-1.285,3.48-1.934,5.244ZM.519,5.5l-.045.022v6.052l1.973-.848ZM8.1,14.838l.043.053,5.106-2.956c-.614-.263-1.148-.484-1.669-.723a.342.342,0,0,0-.483.116c-.445.539-.907,1.063-1.361,1.6q-.82.957-1.636,1.914ZM5.8,14.886l.05-.051q-1.538-1.8-3.077-3.6c-.045-.053-.157-.108-.207-.088-.6.247-1.2.509-1.858.792Zm.991-4.827-.024.025c-.2-.013-.444-.019-.731-.02s-.583.006-.887.02l-.023-.024V9.93l.025-.021c.073-.009.143-.016.212-.022A.942.942,0,0,0,5.6,9.851a.142.142,0,0,0,.062-.08A3.994,3.994,0,0,0,5.7,8.96V8.427q0-.24-.009-.607V7.66c0-.071-.014-.107-.044-.107a.576.576,0,0,0-.127.049c-.2.087-.369.166-.5.237L4.991,7.83a2.488,2.488,0,0,0-.045-.272V7.541c.394-.111.834-.259,1.319-.447l.044.033c0,.083-.012.208-.023.373,0,.063-.009.231-.013.505l-.006.84a6.784,6.784,0,0,0,.03.966.094.094,0,0,0,.064.06,2.709,2.709,0,0,0,.4.039l.028.021Zm2.212-1.7A1.937,1.937,0,0,1,8.8,9.3a1.714,1.714,0,0,1-.566.621,1.425,1.425,0,0,1-.8.238l-.169-.139.051-.083a.479.479,0,0,0,.159.023.8.8,0,0,0,.58-.247,1.041,1.041,0,0,0,.185-.266,2.218,2.218,0,0,0,.194-.768,2.207,2.207,0,0,1-.356.3.887.887,0,0,1-.3.051.577.577,0,0,1-.464-.21.909.909,0,0,1-.194-.612,1.04,1.04,0,0,1,.438-.924.888.888,0,0,1,.51-.142.836.836,0,0,1,.815.533A1.689,1.689,0,0,1,9.005,8.361Zm-.558-.22a1.143,1.143,0,0,0-.116-.586.349.349,0,0,0-.314-.193.335.335,0,0,0-.333.267,1.089,1.089,0,0,0-.046.341.9.9,0,0,0,.123.509.359.359,0,0,0,.311.166.329.329,0,0,0,.34-.224A.855.855,0,0,0,8.447,8.141Z" fill="none"/></svg>