<svg xmlns="http://www.w3.org/2000/svg" width="13.941" height="16" viewBox="0 0 13.941 16"><path d="M13.933,8c0,1.244-.006,2.488,0,3.733a.447.447,0,0,1-.261.452q-3.228,1.852-6.445,3.728a.444.444,0,0,1-.52,0Q3.539,14.068.355,12.243A.624.624,0,0,1,0,11.623Q.023,7.962,0,4.3a.5.5,0,0,1,.3-.5Q3.53,1.948,6.744.073a.42.42,0,0,1,.49.013q3.219,1.867,6.447,3.723a.458.458,0,0,1,.258.461C13.93,5.514,13.934,6.758,13.934,8ZM6.978,3.683,3.1,10.59h7.749Zm.394-.176L11.2,10.326c.763-2.067,1.492-4.043,2.239-6.058ZM.523,4.27C1.271,6.3,2,8.276,2.758,10.326L6.583,3.509Zm10.228,6.8H3.205c1.28,1.492,2.519,2.942,3.772,4.4C8.245,14,9.475,12.566,10.751,11.074ZM7.2,3.056l5.323.668.027-.068L7.2.563ZM6.747.571,1.415,3.655l.034.069,5.3-.667Zm6.751,11V5.486l-.054-.01c-.643,1.74-1.285,3.48-1.934,5.244ZM.519,5.5l-.045.022v6.052l1.973-.848ZM8.1,14.838l.043.053,5.106-2.956c-.614-.263-1.148-.484-1.669-.723a.342.342,0,0,0-.483.116c-.445.539-.907,1.063-1.361,1.6q-.82.957-1.636,1.914ZM5.8,14.886l.05-.051q-1.538-1.8-3.077-3.6c-.045-.053-.157-.108-.207-.088-.6.247-1.2.509-1.858.792ZM8,7.779a2.124,2.124,0,0,1-.224,1.03,1.87,1.87,0,0,1-.625.682,1.558,1.558,0,0,1-.87.26L6.1,9.6l.057-.1a.514.514,0,0,0,.174.026.881.881,0,0,0,.64-.273,1.11,1.11,0,0,0,.2-.29,2.41,2.41,0,0,0,.206-.843,2.476,2.476,0,0,1-.386.327.971.971,0,0,1-.333.056.636.636,0,0,1-.509-.23A1,1,0,0,1,5.941,7.6a1.138,1.138,0,0,1,.483-1.013.969.969,0,0,1,.561-.156.915.915,0,0,1,.894.58A1.848,1.848,0,0,1,8,7.779ZM7.391,7.54A1.264,1.264,0,0,0,7.264,6.9a.385.385,0,0,0-.344-.209.367.367,0,0,0-.366.29,1.208,1.208,0,0,0-.051.368.974.974,0,0,0,.133.558.4.4,0,0,0,.342.184.363.363,0,0,0,.37-.243A.9.9,0,0,0,7.391,7.54Z" fill="none"/></svg>