<svg xmlns="http://www.w3.org/2000/svg" width="13.941" height="16" viewBox="0 0 13.941 16"><path d="M13.933,8c0,1.244-.006,2.488,0,3.733a.447.447,0,0,1-.261.452q-3.228,1.852-6.445,3.728a.444.444,0,0,1-.52,0Q3.539,14.068.355,12.243A.624.624,0,0,1,0,11.623Q.023,7.962,0,4.3a.5.5,0,0,1,.3-.5Q3.53,1.948,6.744.073a.42.42,0,0,1,.49.013q3.219,1.867,6.447,3.723a.458.458,0,0,1,.258.461C13.93,5.514,13.934,6.758,13.934,8ZM6.978,3.683,3.1,10.59h7.749Zm.394-.176L11.2,10.326c.763-2.067,1.492-4.043,2.239-6.058ZM.523,4.27C1.271,6.3,2,8.276,2.758,10.326L6.583,3.509Zm10.228,6.8H3.205c1.28,1.492,2.519,2.942,3.772,4.4C8.245,14,9.475,12.566,10.751,11.074ZM7.2,3.056l5.323.668.027-.068L7.2.563ZM6.747.571,1.415,3.655l.034.069,5.3-.667Zm6.751,11V5.486l-.054-.01c-.643,1.74-1.285,3.48-1.934,5.244ZM.519,5.5l-.045.022v6.052l1.973-.848ZM8.1,14.838l.043.053,5.106-2.956c-.614-.263-1.148-.484-1.669-.723a.342.342,0,0,0-.483.116c-.445.539-.907,1.063-1.361,1.6q-.82.957-1.636,1.914ZM5.8,14.886l.05-.051q-1.538-1.8-3.077-3.6c-.045-.053-.157-.108-.207-.088-.6.247-1.2.509-1.858.792Zm2.2-6.326a1.148,1.148,0,0,1-.1.484,1.024,1.024,0,0,1-.61.549,1.309,1.309,0,0,1-.421.061.941.941,0,0,1-.815-.4.791.791,0,0,1-.126-.468.775.775,0,0,1,.227-.58A1.688,1.688,0,0,1,6.5,8a.816.816,0,0,1-.474-.745.842.842,0,0,1,.5-.8,1.065,1.065,0,0,1,.49-.11.936.936,0,0,1,.635.2.631.631,0,0,1,.22.5.782.782,0,0,1-.447.685,1,1,0,0,1,.464.342A.862.862,0,0,1,8.006,8.56Zm-.523.271a.552.552,0,0,0-.3-.509,3.332,3.332,0,0,0-.422-.2L6.7,8.093a.78.78,0,0,0-.334.641.7.7,0,0,0,.083.361.567.567,0,0,0,.518.308.484.484,0,0,0,.377-.161A.584.584,0,0,0,7.483,8.831Zm-.017-1.72a.475.475,0,0,0-.44-.508H6.962a.446.446,0,0,0-.337.13.429.429,0,0,0-.114.3.443.443,0,0,0,.15.324.914.914,0,0,0,.235.153c.036.018.09.045.163.079l.128.054A.6.6,0,0,0,7.466,7.111Z" fill="none"/></svg>