<svg xmlns="http://www.w3.org/2000/svg" width="13.951" height="16" viewBox="0 0 13.951 16"><path d="M13.93,8c0,1.247-.01,2.484,0,3.731a.448.448,0,0,1-.261.454q-3.233,1.854-6.446,3.73a.435.435,0,0,1-.522,0Q3.527,14.071.353,12.238A.638.638,0,0,1,0,11.61C.015,9.174.015,6.73,0,4.3a.5.5,0,0,1,.29-.5C2.459,2.555,4.6,1.318,6.749.072a.435.435,0,0,1,.493.009Q10.461,1.952,13.688,3.8a.469.469,0,0,1,.261.464C13.93,5.5,13.93,6.749,13.93,8ZM6.981,3.676C5.682,6.015,4.4,8.285,3.107,10.585h7.75ZM7.368,3.5,11.2,10.321c.764-2.068,1.488-4.039,2.242-6.059ZM.527,4.265c.743,2.03,1.478,4,2.232,6.059L6.585,3.511Zm10.224,6.8H3.2c1.276,1.488,2.523,2.937,3.769,4.406ZM7.194,3.048l5.325.666.029-.067L7.2.555ZM6.749.565,1.415,3.647l.039.067,5.3-.666ZM13.5,11.571V5.483l-.058-.009c-.642,1.739-1.29,3.478-1.941,5.247ZM.517,5.493l-.048.019v6.05l1.971-.851Zm7.576,9.335.039.048,5.1-2.957c-.619-.261-1.149-.483-1.671-.725a.349.349,0,0,0-.481.111l0,.005c-.444.542-.908,1.064-1.362,1.6-.532.647-1.073,1.285-1.624,1.923ZM5.8,14.876l.049-.048-3.074-3.6a.24.24,0,0,0-.2-.087c-.609.251-1.2.512-1.856.793Zm-.925-4.7-.026-.022v-.1l.737-.781a3.727,3.727,0,0,0,.589-.745,1.087,1.087,0,0,0,.134-.493.636.636,0,0,0-.162-.446.568.568,0,0,0-.44-.179.814.814,0,0,0-.31.055.383.383,0,0,0-.177.124,1.79,1.79,0,0,0-.131.382l-.02.018h-.09l-.022-.02c.033-.2.057-.394.07-.587a1.03,1.03,0,0,1,.386-.259,1.266,1.266,0,0,1,.375-.056,1.175,1.175,0,0,1,.447.088.749.749,0,0,1,.343.285.812.812,0,0,1,.129.456,1.078,1.078,0,0,1-.075.389,1.438,1.438,0,0,1-.223.376,5.586,5.586,0,0,1-.4.434l-.686.7H6.2a6.445,6.445,0,0,0,.666-.028l.016.017a1.146,1.146,0,0,0-.014.2.874.874,0,0,0,.014.174l-.016.024q-.157-.009-.486-.015c-.218-.005-.363-.007-.433-.007-.142,0-.334,0-.574.006S4.964,10.171,4.877,10.178Zm2.444,0v-.042a1.767,1.767,0,0,0,.961-.538,1.615,1.615,0,0,0,.394-.971.937.937,0,0,1-.724.385.793.793,0,0,1-.441-.121.738.738,0,0,1-.278-.314,1.065,1.065,0,0,1-.09-.453,1.034,1.034,0,0,1,.287-.766.963.963,0,0,1,.711-.288.869.869,0,0,1,.694.31,1.337,1.337,0,0,1,.265.893,2.479,2.479,0,0,1-.048.494,1.78,1.78,0,0,1-.183.485,1.9,1.9,0,0,1-.355.462,2.084,2.084,0,0,1-.5.355,1.754,1.754,0,0,1-.549.179Zm.2-2.2a1.107,1.107,0,0,0,.067.375.588.588,0,0,0,.206.283.584.584,0,0,0,.743-.074A.756.756,0,0,0,8.7,8.038a1.022,1.022,0,0,0-.157-.59.489.489,0,0,0-.428-.23.531.531,0,0,0-.426.193A.857.857,0,0,0,7.523,7.977Z" fill="none"/></svg>