<svg xmlns="http://www.w3.org/2000/svg" width="13.941" height="16" viewBox="0 0 13.941 16"><path d="M13.933,8c0,1.244-.006,2.488,0,3.733a.447.447,0,0,1-.261.452q-3.228,1.852-6.445,3.728a.444.444,0,0,1-.52,0Q3.539,14.068.355,12.243A.624.624,0,0,1,0,11.623Q.023,7.962,0,4.3a.5.5,0,0,1,.3-.5Q3.53,1.948,6.744.073a.42.42,0,0,1,.49.013q3.219,1.867,6.447,3.723a.458.458,0,0,1,.258.461C13.93,5.514,13.934,6.758,13.934,8ZM6.978,3.683,3.1,10.59h7.749Zm.394-.176L11.2,10.326c.763-2.067,1.492-4.043,2.239-6.058ZM.523,4.27C1.271,6.3,2,8.276,2.758,10.326L6.583,3.509Zm10.228,6.8H3.205c1.28,1.492,2.519,2.942,3.772,4.4C8.245,14,9.475,12.566,10.751,11.074ZM7.2,3.056l5.323.668.027-.068L7.2.563ZM6.747.571,1.415,3.655l.034.069,5.3-.667Zm6.751,11V5.486l-.054-.01c-.643,1.74-1.285,3.48-1.934,5.244ZM.519,5.5l-.045.022v6.052l1.973-.848ZM8.1,14.838l.043.053,5.106-2.956c-.614-.263-1.148-.484-1.669-.723a.342.342,0,0,0-.483.116c-.445.539-.907,1.063-1.361,1.6q-.82.957-1.636,1.914ZM5.8,14.886l.05-.051q-1.538-1.8-3.077-3.6c-.045-.053-.157-.108-.207-.088-.6.247-1.2.509-1.858.792Zm.952-4.737-.023.027c-.2-.014-.444-.02-.732-.02s-.58.006-.886.02l-.025-.025v-.13L5.114,10c.073-.009.144-.016.212-.022a.928.928,0,0,0,.235-.036.139.139,0,0,0,.062-.079,3.965,3.965,0,0,0,.041-.813V8.519c0-.16,0-.363-.009-.607V7.751c0-.071-.016-.107-.046-.107a.579.579,0,0,0-.125.049c-.194.09-.361.17-.5.238l-.025-.015c-.011-.092-.026-.182-.045-.272V7.628Q5.5,7.46,6.229,7.18l.044.033c0,.084-.013.209-.023.374,0,.062-.008.23-.012.5l-.007.841a6.8,6.8,0,0,0,.03.966.1.1,0,0,0,.064.06,2.709,2.709,0,0,0,.4.039l.028.021ZM8.93,9.128a1.032,1.032,0,0,1-.357.788,1.279,1.279,0,0,1-.9.338,1.386,1.386,0,0,1-.492-.1,5.812,5.812,0,0,0-.136-.6l.012-.03.1-.037.03.013A.713.713,0,0,0,7.878,10a.485.485,0,0,0,.473-.29A.739.739,0,0,0,8.412,9.4a.64.64,0,0,0-.154-.453.553.553,0,0,0-.426-.165.83.83,0,0,0-.484.18l-.083-.048q.029-.411.028-.676v-.29q0-.316-.033-.664l.028-.022q.519.024.87.024.229,0,.65-.024l.019.034c-.015.1-.024.2-.029.3,0,.036,0,.085.006.148l-.021.027q-.264-.013-.63-.013-.443,0-.634.017l-.016.7a1.377,1.377,0,0,1,.58-.148.86.86,0,0,1,.619.219A.777.777,0,0,1,8.93,9.128Z" fill="none"/></svg>