<svg xmlns="http://www.w3.org/2000/svg" width="13.951" height="16" viewBox="0 0 13.951 16"><path d="M13.93,8c0,1.247-.01,2.484,0,3.731a.448.448,0,0,1-.261.454q-3.233,1.854-6.446,3.73a.435.435,0,0,1-.522,0Q3.527,14.071.353,12.238A.638.638,0,0,1,0,11.61C.015,9.174.015,6.73,0,4.3a.5.5,0,0,1,.29-.5C2.459,2.555,4.6,1.318,6.749.072a.435.435,0,0,1,.493.009Q10.461,1.952,13.688,3.8a.469.469,0,0,1,.261.464C13.93,5.5,13.93,6.749,13.93,8ZM6.981,3.676C5.682,6.015,4.4,8.285,3.107,10.585h7.75ZM7.368,3.5,11.2,10.321c.764-2.068,1.488-4.039,2.242-6.059ZM.527,4.265c.743,2.03,1.478,4,2.232,6.059L6.585,3.511Zm10.224,6.8H3.2c1.276,1.488,2.523,2.937,3.769,4.406ZM7.194,3.048l5.325.666.029-.067L7.2.555ZM6.749.565,1.415,3.647l.039.067,5.3-.666ZM13.5,11.571V5.483l-.058-.009c-.642,1.739-1.29,3.478-1.941,5.247ZM.517,5.493l-.048.019v6.05l1.971-.851Zm7.576,9.335.039.048,5.1-2.957c-.619-.261-1.149-.483-1.671-.725a.349.349,0,0,0-.481.111l0,.005c-.444.542-.908,1.064-1.362,1.6-.532.647-1.073,1.285-1.624,1.923ZM5.8,14.876l.049-.048-3.074-3.6a.24.24,0,0,0-.2-.087c-.609.251-1.2.512-1.856.793Zm-.931-4.693-.027-.022v-.1l.737-.78a3.74,3.74,0,0,0,.59-.746,1.1,1.1,0,0,0,.134-.493.635.635,0,0,0-.163-.446.566.566,0,0,0-.44-.178.8.8,0,0,0-.31.055.382.382,0,0,0-.177.123,1.784,1.784,0,0,0-.131.383l-.02.017h-.09l-.022-.02c.034-.2.057-.393.071-.587a1,1,0,0,1,.386-.258,1.225,1.225,0,0,1,.375-.056,1.152,1.152,0,0,1,.446.088.736.736,0,0,1,.343.284A.81.81,0,0,1,6.7,7.9a1.054,1.054,0,0,1-.076.388,1.446,1.446,0,0,1-.222.376,5.814,5.814,0,0,1-.4.434l-.687.7h.869a6.444,6.444,0,0,0,.667-.029l.015.018a1.152,1.152,0,0,0-.013.2.875.875,0,0,0,.013.173l-.015.025c-.106-.006-.268-.011-.486-.016l-.434-.006c-.142,0-.333,0-.574.005S4.957,10.175,4.871,10.183ZM7.761,8.6a1.09,1.09,0,0,1-.371-.3A.661.661,0,0,1,7.264,7.9a.773.773,0,0,1,.248-.577.932.932,0,0,1,.678-.241,1.048,1.048,0,0,1,.4.076.612.612,0,0,1,.287.227.582.582,0,0,1,.1.335.654.654,0,0,1-.118.37,1.333,1.333,0,0,1-.421.36v.02a2.971,2.971,0,0,1,.382.209.65.65,0,0,1,.2.232.7.7,0,0,1,.079.337.939.939,0,0,1-.151.5.984.984,0,0,1-.4.366,1.105,1.105,0,0,1-.51.126.939.939,0,0,1-.636-.216.72.72,0,0,1-.251-.574.762.762,0,0,1,.173-.5,1.187,1.187,0,0,1,.426-.327Zm.178.079a.98.98,0,0,0-.361.331.8.8,0,0,0-.1.4.678.678,0,0,0,.176.494.608.608,0,0,0,.453.179A.687.687,0,0,0,8.449,10a.562.562,0,0,0,.23-.241.734.734,0,0,0,.076-.333.49.49,0,0,0-.182-.4A2.927,2.927,0,0,0,7.939,8.68Zm.334-.29a.908.908,0,0,0,.319-.3.638.638,0,0,0,.084-.32.545.545,0,0,0-.146-.4.52.52,0,0,0-.389-.147.574.574,0,0,0-.387.131.453.453,0,0,0-.154.366.5.5,0,0,0,.1.309A1.849,1.849,0,0,0,8.273,8.39Z" fill="none"/></svg>