<svg xmlns="http://www.w3.org/2000/svg" width="13.941" height="16" viewBox="0 0 13.941 16"><path d="M13.933,8c0,1.244-.006,2.488,0,3.733a.447.447,0,0,1-.261.452q-3.228,1.852-6.445,3.728a.444.444,0,0,1-.52,0Q3.539,14.068.355,12.243A.624.624,0,0,1,0,11.623Q.023,7.962,0,4.3a.5.5,0,0,1,.3-.5Q3.53,1.948,6.744.073a.42.42,0,0,1,.49.013q3.219,1.867,6.447,3.723a.458.458,0,0,1,.258.461C13.93,5.514,13.934,6.758,13.934,8ZM6.978,3.683,3.1,10.59h7.749Zm.394-.176L11.2,10.326c.763-2.067,1.492-4.043,2.239-6.058ZM.523,4.27C1.271,6.3,2,8.276,2.758,10.326L6.583,3.509Zm10.228,6.8H3.205c1.28,1.492,2.519,2.942,3.772,4.4C8.245,14,9.475,12.566,10.751,11.074ZM7.2,3.056l5.323.668.027-.068L7.2.563ZM6.747.571,1.415,3.655l.034.069,5.3-.667Zm6.751,11V5.486l-.054-.01c-.643,1.74-1.285,3.48-1.934,5.244ZM.519,5.5l-.045.022v6.052l1.973-.848ZM8.1,14.838l.043.053,5.106-2.956c-.614-.263-1.148-.484-1.669-.723a.342.342,0,0,0-.483.116c-.445.539-.907,1.063-1.361,1.6q-.82.957-1.636,1.914ZM5.8,14.886l.05-.051q-1.538-1.8-3.077-3.6c-.045-.053-.157-.108-.207-.088-.6.247-1.2.509-1.858.792Zm1.02-4.843-.024.025q-.3-.018-.731-.019c-.288,0-.583.006-.887.019l-.024-.023v-.13l.026-.022.212-.021a.944.944,0,0,0,.235-.037.142.142,0,0,0,.062-.078,4.066,4.066,0,0,0,.04-.813V8.41q0-.241-.009-.607V7.642c0-.071-.015-.107-.045-.107a.568.568,0,0,0-.126.049c-.193.09-.36.17-.5.238l-.025-.016a2.706,2.706,0,0,0-.05-.266V7.523c.394-.111.834-.261,1.319-.447l.044.032c-.006.085-.013.208-.023.374,0,.062-.009.231-.013.5l-.006.84a6.628,6.628,0,0,0,.03.967.1.1,0,0,0,.063.06,2.593,2.593,0,0,0,.4.038l.028.022Zm2.23-.9a1.042,1.042,0,0,1-.089.443.931.931,0,0,1-.551.5,1.182,1.182,0,0,1-.387.056.855.855,0,0,1-.742-.364.72.72,0,0,1-.115-.428.7.7,0,0,1,.206-.526,1.681,1.681,0,0,1,.3-.193.746.746,0,0,1-.429-.677A.764.764,0,0,1,7.7,7.225a.971.971,0,0,1,.447-.1.856.856,0,0,1,.58.183.586.586,0,0,1,.2.458.708.708,0,0,1-.408.624.907.907,0,0,1,.419.306A.775.775,0,0,1,9.052,9.143Zm-.476.246A.5.5,0,0,0,8.3,8.925a3.425,3.425,0,0,0-.386-.186l-.058-.023a.71.71,0,0,0-.3.58.634.634,0,0,0,.076.33.52.52,0,0,0,.469.282.443.443,0,0,0,.346-.145A.535.535,0,0,0,8.576,9.389ZM8.561,7.822a.461.461,0,0,0-.124-.337.456.456,0,0,0-.34-.126.4.4,0,0,0-.3.119.381.381,0,0,0-.1.276.4.4,0,0,0,.136.29.849.849,0,0,0,.213.139l.15.073L8.3,8.3A.542.542,0,0,0,8.561,7.822Z" fill="none"/></svg>