<svg xmlns="http://www.w3.org/2000/svg" width="13.941" height="16" viewBox="0 0 13.941 16"><path d="M13.933,8c0,1.244-.006,2.488,0,3.733a.447.447,0,0,1-.261.452q-3.228,1.852-6.445,3.728a.444.444,0,0,1-.52,0Q3.539,14.068.355,12.243A.624.624,0,0,1,0,11.623Q.023,7.962,0,4.3a.5.5,0,0,1,.3-.5Q3.53,1.948,6.744.073a.42.42,0,0,1,.49.013q3.219,1.867,6.447,3.723a.458.458,0,0,1,.258.461C13.93,5.514,13.934,6.758,13.934,8ZM6.978,3.683,3.1,10.59h7.749Zm.394-.176L11.2,10.326c.763-2.067,1.492-4.043,2.239-6.058ZM.523,4.27C1.271,6.3,2,8.276,2.758,10.326L6.583,3.509Zm10.228,6.8H3.205c1.28,1.492,2.519,2.942,3.772,4.4C8.245,14,9.475,12.566,10.751,11.074ZM7.2,3.056l5.323.668.027-.068L7.2.563ZM6.747.571,1.415,3.655l.034.069,5.3-.667Zm6.751,11V5.486l-.054-.01c-.643,1.74-1.285,3.48-1.934,5.244ZM.519,5.5l-.045.022v6.052l1.973-.848ZM8.1,14.838l.043.053,5.106-2.956c-.614-.263-1.148-.484-1.669-.723a.342.342,0,0,0-.483.116c-.445.539-.907,1.063-1.361,1.6q-.82.957-1.636,1.914ZM5.8,14.886l.05-.051q-1.538-1.8-3.077-3.6c-.045-.053-.157-.108-.207-.088-.6.247-1.2.509-1.858.792Zm.966-4.9-.023.026q-.3-.018-.732-.019c-.288,0-.583.006-.886.019L5.1,9.984v-.13l.026-.022c.072-.008.143-.016.212-.021a.992.992,0,0,0,.235-.037A.142.142,0,0,0,5.637,9.7a3.959,3.959,0,0,0,.041-.812V8.351c0-.16,0-.363-.009-.607V7.583c0-.07-.014-.106-.045-.106a.568.568,0,0,0-.126.049c-.193.089-.361.168-.5.237L4.97,7.748a2.47,2.47,0,0,0-.045-.271V7.459q.59-.166,1.318-.446l.045.032c-.006.084-.014.209-.023.374,0,.063-.009.231-.013.5l-.007.84a6.8,6.8,0,0,0,.03.967.1.1,0,0,0,.064.06,2.849,2.849,0,0,0,.4.038l.028.021ZM9.006,8.44A2.535,2.535,0,0,1,8.8,9.64a.839.839,0,0,1-.773.442A.79.79,0,0,1,7.292,9.7,2.164,2.164,0,0,1,7.1,8.632a2.911,2.911,0,0,1,.115-.919.958.958,0,0,1,.338-.484.872.872,0,0,1,.53-.162.8.8,0,0,1,.692.29A1.9,1.9,0,0,1,9.006,8.44ZM8.477,8.8a4.235,4.235,0,0,0-.119-1.2c-.064-.194-.175-.29-.331-.29a.317.317,0,0,0-.31.222,2.324,2.324,0,0,0-.1.8,5.251,5.251,0,0,0,.086,1.091,1.028,1.028,0,0,0,.085.258.319.319,0,0,0,.29.183c.205,0,.328-.157.369-.474A4.55,4.55,0,0,0,8.477,8.8Z" fill="none"/></svg>