<svg xmlns="http://www.w3.org/2000/svg" width="13.951" height="16" viewBox="0 0 13.951 16"><path d="M13.93,8c0,1.247-.01,2.484,0,3.731a.448.448,0,0,1-.261.454q-3.233,1.854-6.446,3.73a.435.435,0,0,1-.522,0Q3.527,14.071.353,12.238A.638.638,0,0,1,0,11.61C.015,9.174.015,6.73,0,4.3a.5.5,0,0,1,.29-.5C2.459,2.555,4.6,1.318,6.749.072a.435.435,0,0,1,.493.009Q10.461,1.952,13.688,3.8a.469.469,0,0,1,.261.464C13.93,5.5,13.93,6.749,13.93,8ZM6.981,3.676C5.682,6.015,4.4,8.285,3.107,10.585h7.75ZM7.368,3.5,11.2,10.321c.764-2.068,1.488-4.039,2.242-6.059ZM.527,4.265c.743,2.03,1.478,4,2.232,6.059L6.585,3.511Zm10.224,6.8H3.2c1.276,1.488,2.523,2.937,3.769,4.406ZM7.194,3.048l5.325.666.029-.067L7.2.555ZM6.749.565,1.415,3.647l.039.067,5.3-.666ZM13.5,11.571V5.483l-.058-.009c-.642,1.739-1.29,3.478-1.941,5.247ZM.517,5.493l-.048.019v6.05l1.971-.851Zm7.576,9.335.039.048,5.1-2.957c-.619-.261-1.149-.483-1.671-.725a.349.349,0,0,0-.481.111l0,.005c-.444.542-.908,1.064-1.362,1.6-.532.647-1.073,1.285-1.624,1.923ZM5.8,14.876l.049-.048-3.074-3.6a.24.24,0,0,0-.2-.087c-.609.251-1.2.512-1.856.793Zm-.953-4.67-.027-.022v-.1L5.559,9.3a3.741,3.741,0,0,0,.59-.745,1.1,1.1,0,0,0,.134-.493.632.632,0,0,0-.163-.446.566.566,0,0,0-.44-.178.8.8,0,0,0-.31.055.375.375,0,0,0-.177.123A1.79,1.79,0,0,0,5.062,8l-.02.018h-.09L4.93,8c.034-.2.057-.393.071-.587a1,1,0,0,1,.386-.258A1.225,1.225,0,0,1,5.762,7.1a1.17,1.17,0,0,1,.446.088.744.744,0,0,1,.343.285.81.81,0,0,1,.13.457,1.054,1.054,0,0,1-.076.388,1.446,1.446,0,0,1-.222.376,5.814,5.814,0,0,1-.4.434l-.687.7h.869A6.444,6.444,0,0,0,6.833,9.8l.015.018a1.139,1.139,0,0,0-.013.195.88.88,0,0,0,.013.174l-.015.024q-.159-.009-.486-.015c-.219,0-.363-.007-.434-.007-.142,0-.333,0-.574.006S4.935,10.2,4.849,10.206Zm2.874,0-.017-.018V10.09l.017-.018c.217-.006.346-.012.386-.02a.137.137,0,0,0,.089-.046.371.371,0,0,0,.043-.171,2.669,2.669,0,0,0,.015-.291V9.382H7.774q-.42,0-.71.013l-.038-.119Q7.409,8.559,8.3,7.2l.31-.126.055.027q-.024.373-.024.926l-.007.62V9.1c.2,0,.359-.006.469-.013l.019.022c0,.056,0,.1,0,.121,0,.048,0,.1.007.143l-.022.02c-.143-.009-.261-.013-.357-.013H8.638v.147a3.406,3.406,0,0,0,.013.35.257.257,0,0,0,.042.133.226.226,0,0,0,.116.044,2.312,2.312,0,0,0,.3.016l.02.018v.094l-.018.018q-.387-.018-.649-.018C8.178,10.184,7.931,10.19,7.723,10.2ZM7.316,9.1h.94l.019-1.563q-.21.3-.532.826T7.316,9.1Z" fill="none"/></svg>