<svg xmlns="http://www.w3.org/2000/svg" width="13.941" height="16" viewBox="0 0 13.941 16"><path d="M13.933,8c0,1.244-.006,2.488,0,3.733a.447.447,0,0,1-.261.452q-3.228,1.852-6.445,3.728a.444.444,0,0,1-.52,0Q3.539,14.068.355,12.243A.624.624,0,0,1,0,11.623Q.023,7.962,0,4.3a.5.5,0,0,1,.3-.5Q3.53,1.948,6.744.073a.42.42,0,0,1,.49.013q3.219,1.867,6.447,3.723a.458.458,0,0,1,.258.461C13.93,5.514,13.934,6.758,13.934,8ZM6.978,3.683,3.1,10.59h7.749Zm.394-.176L11.2,10.326c.763-2.067,1.492-4.043,2.239-6.058ZM.523,4.27C1.271,6.3,2,8.276,2.758,10.326L6.583,3.509Zm10.228,6.8H3.205c1.28,1.492,2.519,2.942,3.772,4.4C8.245,14,9.475,12.566,10.751,11.074ZM7.2,3.056l5.323.668.027-.068L7.2.563ZM6.747.571,1.415,3.655l.034.069,5.3-.667Zm6.751,11V5.486l-.054-.01c-.643,1.74-1.285,3.48-1.934,5.244ZM.519,5.5l-.045.022v6.052l1.973-.848ZM8.1,14.838l.043.053,5.106-2.956c-.614-.263-1.148-.484-1.669-.723a.342.342,0,0,0-.483.116c-.445.539-.907,1.063-1.361,1.6q-.82.957-1.636,1.914ZM5.8,14.886l.05-.051q-1.538-1.8-3.077-3.6c-.045-.053-.157-.108-.207-.088-.6.247-1.2.509-1.858.792Zm.966-4.812-.024.026c-.2-.012-.443-.019-.731-.019s-.58.007-.887.019L5.1,10.077V9.946l.026-.021c.072-.009.143-.016.211-.022a.95.95,0,0,0,.236-.036.142.142,0,0,0,.061-.079,3.967,3.967,0,0,0,.041-.812V8.443q0-.238-.009-.607v-.16c0-.071-.015-.106-.045-.106a.523.523,0,0,0-.126.049c-.193.089-.363.168-.5.237L4.97,7.841a2.47,2.47,0,0,0-.045-.271V7.552q.587-.166,1.318-.446l.045.031c-.006.084-.014.209-.023.375,0,.062-.009.231-.014.5l-.006.84a6.816,6.816,0,0,0,.03.967.1.1,0,0,0,.064.059,2.58,2.58,0,0,0,.4.038l.028.022Zm2.262,0-.023.026q-.31-.017-.69-.017c-.144,0-.381.006-.713.017l-.021-.024V9.942l.023-.024L7.835,9.9a.4.4,0,0,0,.2-.046.414.414,0,0,0,.05-.231L8.1,9.343H7.387c-.077,0-.193,0-.34.006l-.03-.177A7.178,7.178,0,0,1,7.483,8.2a7.249,7.249,0,0,1,.6-.989L8.624,7.1l.039.036c-.027.275-.039.723-.039,1.345v.505h.069c.067,0,.166,0,.3-.01L9.018,9v.317l-.026.025H8.624a1.3,1.3,0,0,0,.048.515.289.289,0,0,0,.164.048c.064.006.122.011.173.019l.021.018ZM8.122,7.5q-.285.454-.421.713c-.063.116-.186.375-.37.773H8.1Z" fill="none"/></svg>