<svg xmlns="http://www.w3.org/2000/svg" width="13.941" height="16" viewBox="0 0 13.941 16"><path d="M13.933,8c0,1.244-.006,2.488,0,3.733a.447.447,0,0,1-.261.452q-3.228,1.852-6.445,3.728a.444.444,0,0,1-.52,0Q3.539,14.068.355,12.243A.624.624,0,0,1,0,11.623Q.023,7.962,0,4.3a.5.5,0,0,1,.3-.5Q3.53,1.948,6.744.073a.42.42,0,0,1,.49.013q3.219,1.867,6.447,3.723a.458.458,0,0,1,.258.461C13.93,5.514,13.934,6.758,13.934,8ZM6.978,3.683,3.1,10.59h7.749Zm.394-.176L11.2,10.326c.763-2.067,1.492-4.043,2.239-6.058ZM.523,4.27C1.271,6.3,2,8.276,2.758,10.326L6.583,3.509Zm10.228,6.8H3.205c1.28,1.492,2.519,2.942,3.772,4.4C8.245,14,9.475,12.566,10.751,11.074ZM7.2,3.056l5.323.668.027-.068L7.2.563ZM6.747.571,1.415,3.655l.034.069,5.3-.667Zm6.751,11V5.486l-.054-.01c-.643,1.74-1.285,3.48-1.934,5.244ZM.519,5.5l-.045.022v6.052l1.973-.848ZM8.1,14.838l.043.053,5.106-2.956c-.614-.263-1.148-.484-1.669-.723a.342.342,0,0,0-.483.116c-.445.539-.907,1.063-1.361,1.6q-.82.957-1.636,1.914ZM5.8,14.886l.05-.051q-1.538-1.8-3.077-3.6c-.045-.053-.157-.108-.207-.088-.6.247-1.2.509-1.858.792Zm.959-4.75-.024.025c-.2-.013-.444-.019-.73-.019s-.583.006-.888.019L5.1,10.138v-.131l.025-.021c.073-.009.143-.015.212-.021a.992.992,0,0,0,.235-.037.139.139,0,0,0,.062-.079,4.008,4.008,0,0,0,.04-.812V8.506c0-.159,0-.361-.007-.607l0-.159q0-.108-.045-.108a.571.571,0,0,0-.126.05q-.291.133-.5.237L4.959,7.9a2.528,2.528,0,0,0-.045-.272V7.615q.59-.167,1.319-.447l.045.032c-.006.084-.013.209-.024.374,0,.063-.008.231-.012.505l-.007.84a6.552,6.552,0,0,0,.031.967.093.093,0,0,0,.064.059,2.556,2.556,0,0,0,.4.038l.028.022Zm2.244-.965a1.047,1.047,0,0,1-.436.921.857.857,0,0,1-.513.143.811.811,0,0,1-.677-.316,1.431,1.431,0,0,1-.252-.9,1.935,1.935,0,0,1,.2-.937,1.743,1.743,0,0,1,.564-.624,1.429,1.429,0,0,1,.8-.237l.169.139L8.8,7.429a.878.878,0,0,0-.145-.012.8.8,0,0,0-.58.241,1.039,1.039,0,0,0-.193.276,2.273,2.273,0,0,0-.188.766,2.227,2.227,0,0,1,.345-.29.789.789,0,0,1,.319-.058.581.581,0,0,1,.455.2A.906.906,0,0,1,9.005,9.171Zm-.515.235A.88.88,0,0,0,8.366,8.9a.356.356,0,0,0-.31-.167.327.327,0,0,0-.337.221.807.807,0,0,0-.039.284.976.976,0,0,0,.178.664.322.322,0,0,0,.251.111C8.363,10.011,8.49,9.81,8.49,9.406Z" fill="none"/></svg>