<svg xmlns="http://www.w3.org/2000/svg" width="13.951" height="16" viewBox="0 0 13.951 16"><path d="M13.93,8c0,1.247-.01,2.484,0,3.731a.448.448,0,0,1-.261.454q-3.233,1.854-6.446,3.73a.435.435,0,0,1-.522,0Q3.527,14.071.353,12.238A.638.638,0,0,1,0,11.61C.015,9.174.015,6.73,0,4.3a.5.5,0,0,1,.29-.5C2.459,2.555,4.6,1.318,6.749.072a.435.435,0,0,1,.493.009Q10.461,1.952,13.688,3.8a.469.469,0,0,1,.261.464C13.93,5.5,13.93,6.749,13.93,8ZM6.981,3.676C5.682,6.015,4.4,8.285,3.107,10.585h7.75ZM7.368,3.5,11.2,10.321c.764-2.068,1.488-4.039,2.242-6.059ZM.527,4.265c.743,2.03,1.478,4,2.232,6.059L6.585,3.511Zm10.224,6.8H3.2c1.276,1.488,2.523,2.937,3.769,4.406ZM7.194,3.048l5.325.666.029-.067L7.2.555ZM6.749.565,1.415,3.647l.039.067,5.3-.666ZM13.5,11.571V5.483l-.058-.009c-.642,1.739-1.29,3.478-1.941,5.247ZM.517,5.493l-.048.019v6.05l1.971-.851Zm7.576,9.335.039.048,5.1-2.957c-.619-.261-1.149-.483-1.671-.725a.349.349,0,0,0-.481.111l0,.005c-.444.542-.908,1.064-1.362,1.6-.532.647-1.073,1.285-1.624,1.923ZM5.8,14.876l.049-.048-3.074-3.6a.24.24,0,0,0-.2-.087c-.609.251-1.2.512-1.856.793ZM4.863,10.2l-.026-.022v-.1l.736-.781a3.741,3.741,0,0,0,.59-.745A1.1,1.1,0,0,0,6.3,8.053a.632.632,0,0,0-.163-.446.565.565,0,0,0-.44-.178.8.8,0,0,0-.31.055.375.375,0,0,0-.177.123,1.852,1.852,0,0,0-.131.382l-.019.018H4.966l-.022-.02A5.725,5.725,0,0,0,5.015,7.4,1.006,1.006,0,0,1,5.4,7.142a1.225,1.225,0,0,1,.375-.057,1.17,1.17,0,0,1,.446.088.744.744,0,0,1,.343.285.81.81,0,0,1,.13.457,1.054,1.054,0,0,1-.076.388,1.392,1.392,0,0,1-.222.376,5.409,5.409,0,0,1-.4.434l-.686.7H6.18a6.444,6.444,0,0,0,.667-.029l.015.018a1.147,1.147,0,0,0-.013.2.88.88,0,0,0,.013.174l-.015.024q-.159-.009-.486-.015c-.219,0-.363-.007-.433-.007-.143,0-.334,0-.574.006S4.95,10.188,4.863,10.2Zm2.252,0-.026-.022v-.1l.737-.781a3.727,3.727,0,0,0,.589-.745,1.1,1.1,0,0,0,.134-.493.632.632,0,0,0-.163-.446.564.564,0,0,0-.439-.178.8.8,0,0,0-.311.055.375.375,0,0,0-.177.123,1.811,1.811,0,0,0-.13.382l-.02.018h-.09L7.2,7.987c.033-.2.057-.393.07-.587a1.006,1.006,0,0,1,.386-.258,1.225,1.225,0,0,1,.375-.057,1.17,1.17,0,0,1,.446.088.739.739,0,0,1,.343.285.81.81,0,0,1,.13.457,1.054,1.054,0,0,1-.076.388,1.392,1.392,0,0,1-.222.376,5.409,5.409,0,0,1-.4.434l-.686.7h.869A6.422,6.422,0,0,0,9.1,9.784l.015.018A1.262,1.262,0,0,0,9.1,10a.964.964,0,0,0,.013.174L9.1,10.2q-.159-.009-.486-.015c-.219,0-.363-.007-.433-.007-.143,0-.334,0-.574.006S7.2,10.188,7.115,10.2Z" fill="none"/></svg>