<svg xmlns="http://www.w3.org/2000/svg" width="13.941" height="16" viewBox="0 0 13.941 16"><path d="M13.933,8c0,1.244-.006,2.488,0,3.733a.447.447,0,0,1-.261.452q-3.228,1.852-6.445,3.728a.444.444,0,0,1-.52,0Q3.539,14.068.355,12.243A.624.624,0,0,1,0,11.623Q.023,7.962,0,4.3a.5.5,0,0,1,.3-.5Q3.53,1.948,6.744.073a.42.42,0,0,1,.49.013q3.219,1.867,6.447,3.723a.458.458,0,0,1,.258.461C13.93,5.514,13.934,6.758,13.934,8ZM6.978,3.683,3.1,10.59h7.749Zm.394-.176L11.2,10.326c.763-2.067,1.492-4.043,2.239-6.058ZM.523,4.27C1.271,6.3,2,8.276,2.758,10.326L6.583,3.509Zm10.228,6.8H3.205c1.28,1.492,2.519,2.942,3.772,4.4C8.245,14,9.475,12.566,10.751,11.074ZM7.2,3.056l5.323.668.027-.068L7.2.563ZM6.747.571,1.415,3.655l.034.069,5.3-.667Zm6.751,11V5.486l-.054-.01c-.643,1.74-1.285,3.48-1.934,5.244ZM.519,5.5l-.045.022v6.052l1.973-.848ZM8.1,14.838l.043.053,5.106-2.956c-.614-.263-1.148-.484-1.669-.723a.342.342,0,0,0-.483.116c-.445.539-.907,1.063-1.361,1.6q-.82.957-1.636,1.914ZM5.8,14.886l.05-.051q-1.538-1.8-3.077-3.6c-.045-.053-.157-.108-.207-.088-.6.247-1.2.509-1.858.792ZM8.009,8.249a1.06,1.06,0,0,1-.416.845,1.481,1.481,0,0,1-.976.346,1.337,1.337,0,0,1-.573-.129,4.875,4.875,0,0,0-.113-.689l.014-.033.118-.035.028.011a.784.784,0,0,0,.743.594.554.554,0,0,0,.426-.17.668.668,0,0,0,.161-.472.6.6,0,0,0-.176-.46A.636.636,0,0,0,6.8,7.9a1.06,1.06,0,0,0-.279.043l-.028-.031a3.486,3.486,0,0,0,.086-.36h.193a.5.5,0,0,0,.361-.149.486.486,0,0,0,.153-.355.409.409,0,0,0-.136-.317.482.482,0,0,0-.336-.121.5.5,0,0,0-.434.164.921.921,0,0,0-.1.223l-.026.077L6.214,7.1,6.1,7.088l-.021-.032.082-.386a3.124,3.124,0,0,0,.052-.317,1.231,1.231,0,0,1,.767-.23.948.948,0,0,1,.624.193.615.615,0,0,1,.22.49.8.8,0,0,1-.52.708.73.73,0,0,1,.476.179A.674.674,0,0,1,8.009,8.249Z" fill="none"/></svg>