<svg xmlns="http://www.w3.org/2000/svg" width="13.951" height="16" viewBox="0 0 13.951 16"><path d="M13.93,8c0,1.247-.01,2.484,0,3.731a.448.448,0,0,1-.261.454q-3.233,1.854-6.446,3.73a.435.435,0,0,1-.522,0Q3.527,14.071.353,12.238A.638.638,0,0,1,0,11.61C.015,9.174.015,6.73,0,4.3a.5.5,0,0,1,.29-.5C2.459,2.555,4.6,1.318,6.749.072a.435.435,0,0,1,.493.009Q10.461,1.952,13.688,3.8a.469.469,0,0,1,.261.464C13.93,5.5,13.93,6.749,13.93,8ZM6.981,3.676C5.682,6.015,4.4,8.285,3.107,10.585h7.75ZM7.368,3.5,11.2,10.321c.764-2.068,1.488-4.039,2.242-6.059ZM.527,4.265c.743,2.03,1.478,4,2.232,6.059L6.585,3.511Zm10.224,6.8H3.2c1.276,1.488,2.523,2.937,3.769,4.406ZM7.194,3.048l5.325.666.029-.067L7.2.555ZM6.749.565,1.415,3.647l.039.067,5.3-.666ZM13.5,11.571V5.483l-.058-.009c-.642,1.739-1.29,3.478-1.941,5.247ZM.517,5.493l-.048.019v6.05l1.971-.851Zm7.576,9.335.039.048,5.1-2.957c-.619-.261-1.149-.483-1.671-.725a.349.349,0,0,0-.481.111l0,.005c-.444.542-.908,1.064-1.362,1.6-.532.647-1.073,1.285-1.624,1.923ZM5.8,14.876l.049-.048-3.074-3.6a.24.24,0,0,0-.2-.087c-.609.251-1.2.512-1.856.793Zm-.826-4.664L4.95,10.19v-.1l.737-.781a3.726,3.726,0,0,0,.589-.746A1.086,1.086,0,0,0,6.41,8.07a.64.64,0,0,0-.162-.447.568.568,0,0,0-.44-.178A.8.8,0,0,0,5.5,7.5a.389.389,0,0,0-.177.123,1.807,1.807,0,0,0-.131.383l-.02.017H5.08L5.058,8c.033-.2.057-.394.07-.588a1.026,1.026,0,0,1,.386-.258A1.266,1.266,0,0,1,5.889,7.1a1.16,1.16,0,0,1,.447.088.749.749,0,0,1,.343.285.812.812,0,0,1,.129.456,1.069,1.069,0,0,1-.075.388A1.422,1.422,0,0,1,6.51,8.7a5.574,5.574,0,0,1-.4.435l-.686.7h.869A6.445,6.445,0,0,0,6.96,9.8l.016.017a1.137,1.137,0,0,0-.014.2.881.881,0,0,0,.014.174l-.016.024c-.1-.006-.267-.011-.486-.016l-.433-.006c-.142,0-.334,0-.574.005S5.063,10.2,4.976,10.212ZM7.464,7.705l-.04-.014L7.4,7.511l.022-.022a5.5,5.5,0,0,0,.557-.2c.224-.094.385-.166.481-.216l.057.022q-.034.963-.035,1.157v.816c0,.2,0,.389.007.566a2,2,0,0,0,.02.312.133.133,0,0,0,.045.074.168.168,0,0,0,.089.034c.038,0,.152.013.341.023L9,10.091v.1l-.015.017q-.482-.017-.68-.017-.15,0-.732.017l-.016-.017v-.1l.018-.018c.22-.016.346-.028.377-.035A.138.138,0,0,0,8.026,10a.23.23,0,0,0,.04-.105,3.994,3.994,0,0,0,.026-.455c.006-.252.01-.381.01-.387V8.186c0-.425,0-.656,0-.693s-.015-.055-.038-.055a.093.093,0,0,0-.024,0c-.011,0-.043.016-.1.039l-.218.1C7.63,7.619,7.544,7.661,7.464,7.705Z" fill="none"/></svg>