<svg xmlns="http://www.w3.org/2000/svg" width="13.951" height="16" viewBox="0 0 13.951 16"><path d="M13.93,8c0,1.247-.01,2.484,0,3.731a.448.448,0,0,1-.261.454q-3.233,1.854-6.446,3.73a.435.435,0,0,1-.522,0Q3.527,14.071.353,12.238A.638.638,0,0,1,0,11.61C.015,9.174.015,6.73,0,4.3a.5.5,0,0,1,.29-.5C2.459,2.555,4.6,1.318,6.749.072a.435.435,0,0,1,.493.009Q10.461,1.952,13.688,3.8a.469.469,0,0,1,.261.464C13.93,5.5,13.93,6.749,13.93,8ZM6.981,3.676C5.682,6.015,4.4,8.285,3.107,10.585h7.75ZM7.368,3.5,11.2,10.321c.764-2.068,1.488-4.039,2.242-6.059ZM.527,4.265c.743,2.03,1.478,4,2.232,6.059L6.585,3.511Zm10.224,6.8H3.2c1.276,1.488,2.523,2.937,3.769,4.406ZM7.194,3.048l5.325.666.029-.067L7.2.555ZM6.749.565,1.415,3.647l.039.067,5.3-.666ZM13.5,11.571V5.483l-.058-.009c-.642,1.739-1.29,3.478-1.941,5.247ZM.517,5.493l-.048.019v6.05l1.971-.851Zm7.576,9.335.039.048,5.1-2.957c-.619-.261-1.149-.483-1.671-.725a.349.349,0,0,0-.481.111l0,.005c-.444.542-.908,1.064-1.362,1.6-.532.647-1.073,1.285-1.624,1.923ZM5.8,14.876l.049-.048-3.074-3.6a.24.24,0,0,0-.2-.087c-.609.251-1.2.512-1.856.793ZM4.863,10.2l-.026-.022v-.1l.736-.781a3.74,3.74,0,0,0,.59-.746A1.1,1.1,0,0,0,6.3,8.054a.636.636,0,0,0-.163-.447.565.565,0,0,0-.44-.178.8.8,0,0,0-.31.055.389.389,0,0,0-.177.123,1.87,1.87,0,0,0-.131.383l-.019.017H4.966l-.022-.019A5.744,5.744,0,0,0,5.015,7.4,1.018,1.018,0,0,1,5.4,7.142a1.256,1.256,0,0,1,.375-.056,1.152,1.152,0,0,1,.446.088.738.738,0,0,1,.343.285.8.8,0,0,1,.13.456,1.054,1.054,0,0,1-.076.388,1.392,1.392,0,0,1-.222.376,5.574,5.574,0,0,1-.4.435l-.686.7H6.18a6.174,6.174,0,0,0,.667-.029l.015.018a1.152,1.152,0,0,0-.013.2.893.893,0,0,0,.013.174l-.015.024c-.106-.006-.268-.011-.486-.016l-.433-.006c-.143,0-.334,0-.574.005S4.95,10.188,4.863,10.2ZM8.914,7.132v.026a1.778,1.778,0,0,0-.546.24,1.644,1.644,0,0,0-.516.508,1.6,1.6,0,0,0-.242.77c.05-.035.107-.078.172-.128a2.188,2.188,0,0,1,.183-.129.616.616,0,0,1,.156-.062.906.906,0,0,1,.226-.026.824.824,0,0,1,.407.1.633.633,0,0,1,.27.294,1.077,1.077,0,0,1,.09.455,1.021,1.021,0,0,1-.178.614,1.151,1.151,0,0,1-.378.354.953.953,0,0,1-.46.107.8.8,0,0,1-.686-.331,1.414,1.414,0,0,1-.244-.861,2.241,2.241,0,0,1,.1-.676A1.811,1.811,0,0,1,7.581,7.8a2.129,2.129,0,0,1,.534-.468,2.1,2.1,0,0,1,.639-.277ZM7.568,9.23a1.514,1.514,0,0,0,.063.431.658.658,0,0,0,.2.33.491.491,0,0,0,.326.117.529.529,0,0,0,.3-.09.564.564,0,0,0,.207-.283,1.149,1.149,0,0,0,.072-.406,1,1,0,0,0-.07-.381.583.583,0,0,0-.205-.262.535.535,0,0,0-.312-.094.61.61,0,0,0-.264.064.652.652,0,0,0-.2.145.393.393,0,0,0-.091.173A1.288,1.288,0,0,0,7.568,9.23Z" fill="none"/></svg>