<svg xmlns="http://www.w3.org/2000/svg" width="13.951" height="16" viewBox="0 0 13.951 16"><path d="M13.93,8c0,1.247-.01,2.484,0,3.731a.448.448,0,0,1-.261.454q-3.233,1.854-6.446,3.73a.435.435,0,0,1-.522,0Q3.527,14.071.353,12.238A.638.638,0,0,1,0,11.61C.015,9.174.015,6.73,0,4.3a.5.5,0,0,1,.29-.5C2.459,2.555,4.6,1.318,6.749.072a.435.435,0,0,1,.493.009Q10.461,1.952,13.688,3.8a.469.469,0,0,1,.261.464C13.93,5.5,13.93,6.749,13.93,8ZM6.981,3.676C5.682,6.015,4.4,8.285,3.107,10.585h7.75ZM7.368,3.5,11.2,10.321c.764-2.068,1.488-4.039,2.242-6.059ZM.527,4.265c.743,2.03,1.478,4,2.232,6.059L6.585,3.511Zm10.224,6.8H3.2c1.276,1.488,2.523,2.937,3.769,4.406ZM7.194,3.048l5.325.666.029-.067L7.2.555ZM6.749.565,1.415,3.647l.039.067,5.3-.666ZM13.5,11.571V5.483l-.058-.009c-.642,1.739-1.29,3.478-1.941,5.247ZM.517,5.493l-.048.019v6.05l1.971-.851Zm7.576,9.335.039.048,5.1-2.957c-.619-.261-1.149-.483-1.671-.725a.349.349,0,0,0-.481.111l0,.005c-.444.542-.908,1.064-1.362,1.6-.532.647-1.073,1.285-1.624,1.923ZM5.8,14.876l.049-.048-3.074-3.6a.24.24,0,0,0-.2-.087c-.609.251-1.2.512-1.856.793Zm-1-4.666-.026-.022v-.1l.737-.781A3.756,3.756,0,0,0,6.1,8.561a1.1,1.1,0,0,0,.134-.493.636.636,0,0,0-.163-.447.567.567,0,0,0-.439-.178.819.819,0,0,0-.311.055.389.389,0,0,0-.177.123A1.829,1.829,0,0,0,5.012,8l-.02.018H4.9L4.88,8c.033-.2.057-.394.07-.587a1.022,1.022,0,0,1,.386-.259A1.256,1.256,0,0,1,5.711,7.1a1.17,1.17,0,0,1,.446.088.739.739,0,0,1,.343.285.8.8,0,0,1,.13.456,1.059,1.059,0,0,1-.076.389,1.407,1.407,0,0,1-.222.376,5.586,5.586,0,0,1-.4.434l-.686.7h.869A6.459,6.459,0,0,0,6.782,9.8l.015.017a1.266,1.266,0,0,0-.013.2.98.98,0,0,0,.013.174l-.015.024Q6.623,10.2,6.3,10.2c-.219-.005-.363-.007-.433-.007-.143,0-.334,0-.574.006S4.885,10.2,4.8,10.21Zm2.448,0L7.2,10.159q.08-.119.328-.51l.4-.642.378-.618.33-.567c.071-.124.126-.223.167-.3L8.783,7.5H8.1c-.172,0-.324,0-.458.009a.966.966,0,0,0-.235.026.11.11,0,0,0-.05.04.715.715,0,0,0-.032.167l-.039.311-.02.017H7.176l-.02-.017.011-.6c0-.069,0-.175-.011-.319L7.2,7.109c.081.009.244.018.491.029s.413.015.5.015q.447,0,.975-.031l.017.018v.114l-.316.561q-.29.514-.658,1.22a10.974,10.974,0,0,0-.539,1.153l-.022.018C7.561,10.2,7.5,10.2,7.455,10.2A1.891,1.891,0,0,0,7.246,10.206Z" fill="none"/></svg>