<svg xmlns="http://www.w3.org/2000/svg" width="13.941" height="16" viewBox="0 0 13.941 16"><path d="M13.933,8c0,1.244-.006,2.488,0,3.733a.447.447,0,0,1-.261.452q-3.228,1.852-6.445,3.728a.444.444,0,0,1-.52,0Q3.539,14.068.355,12.243A.624.624,0,0,1,0,11.623Q.023,7.962,0,4.3a.5.5,0,0,1,.3-.5Q3.53,1.948,6.744.073a.42.42,0,0,1,.49.013q3.219,1.867,6.447,3.723a.458.458,0,0,1,.258.461C13.93,5.514,13.934,6.758,13.934,8ZM6.978,3.683,3.1,10.59h7.749Zm.394-.176L11.2,10.326c.763-2.067,1.492-4.043,2.239-6.058ZM.523,4.27C1.271,6.3,2,8.276,2.758,10.326L6.583,3.509Zm10.228,6.8H3.205c1.28,1.492,2.519,2.942,3.772,4.4C8.245,14,9.475,12.566,10.751,11.074ZM7.2,3.056l5.323.668.027-.068L7.2.563ZM6.747.571,1.415,3.655l.034.069,5.3-.667Zm6.751,11V5.486l-.054-.01c-.643,1.74-1.285,3.48-1.934,5.244ZM.519,5.5l-.045.022v6.052l1.973-.848ZM8.1,14.838l.043.053,5.106-2.956c-.614-.263-1.148-.484-1.669-.723a.342.342,0,0,0-.483.116c-.445.539-.907,1.063-1.361,1.6q-.82.957-1.636,1.914ZM5.8,14.886l.05-.051q-1.538-1.8-3.077-3.6c-.045-.053-.157-.108-.207-.088-.6.247-1.2.509-1.858.792Zm1.007-4.7-.023.026c-.2-.012-.444-.019-.731-.019s-.58.007-.887.019l-.024-.023v-.133l.026-.022c.072-.008.143-.016.211-.021a.992.992,0,0,0,.236-.037.139.139,0,0,0,.062-.079,3.959,3.959,0,0,0,.041-.812V8.553c0-.16,0-.363-.009-.607l-.006-.161c0-.07-.014-.106-.044-.106a.576.576,0,0,0-.127.049c-.193.089-.362.168-.5.237L5.006,7.95a2.25,2.25,0,0,0-.044-.271V7.661q.59-.166,1.318-.446l.046.032c-.006.084-.014.209-.024.374,0,.063-.008.231-.013.5l0,.84a6.8,6.8,0,0,0,.03.967.1.1,0,0,0,.064.06,2.708,2.708,0,0,0,.4.038l.027.021ZM9.066,9.71a2.492,2.492,0,0,0-.006.473l-.026.03q-.586-.022-.967-.023c-.26,0-.57.007-.927.021l-.028-.025V9.993l.436-.444a4.488,4.488,0,0,0,.639-.757,1.282,1.282,0,0,0,.128-.279.955.955,0,0,0,.037-.266c0-.34-.156-.511-.468-.511a.5.5,0,0,0-.415.2c-.016.062-.043.168-.084.321l-.023.021H7.241L7.22,8.256,7.3,7.54a1.016,1.016,0,0,1,.75-.269.906.906,0,0,1,.662.224.716.716,0,0,1,.217.545A1.02,1.02,0,0,1,8.9,8.3a1.311,1.311,0,0,1-.272.484c-.114.135-.29.313-.517.534-.084.083-.213.2-.387.366V9.71h.692L8.78,9.7c.1,0,.176-.007.245-.013Z" fill="none"/></svg>