<svg xmlns="http://www.w3.org/2000/svg" width="13.941" height="16" viewBox="0 0 13.941 16"><path d="M13.933,8c0,1.244-.006,2.488,0,3.733a.447.447,0,0,1-.261.452q-3.228,1.852-6.445,3.728a.444.444,0,0,1-.52,0Q3.539,14.068.355,12.243A.624.624,0,0,1,0,11.623Q.023,7.962,0,4.3a.5.5,0,0,1,.3-.5Q3.53,1.948,6.744.073a.42.42,0,0,1,.49.013q3.219,1.867,6.447,3.723a.458.458,0,0,1,.258.461C13.93,5.514,13.934,6.758,13.934,8ZM6.978,3.683,3.1,10.59h7.749Zm.394-.176L11.2,10.326c.763-2.067,1.492-4.043,2.239-6.058ZM.523,4.27C1.271,6.3,2,8.276,2.758,10.326L6.583,3.509Zm10.228,6.8H3.205c1.28,1.492,2.519,2.942,3.772,4.4C8.245,14,9.475,12.566,10.751,11.074ZM7.2,3.056l5.323.668.027-.068L7.2.563ZM6.747.571,1.415,3.655l.034.069,5.3-.667Zm6.751,11V5.486l-.054-.01c-.643,1.74-1.285,3.48-1.934,5.244ZM.519,5.5l-.045.022v6.052l1.973-.848ZM8.1,14.838l.043.053,5.106-2.956c-.614-.263-1.148-.484-1.669-.723a.342.342,0,0,0-.483.116c-.445.539-.907,1.063-1.361,1.6q-.82.957-1.636,1.914ZM5.8,14.886l.05-.051q-1.538-1.8-3.077-3.6c-.045-.053-.157-.108-.207-.088-.6.247-1.2.509-1.858.792ZM8,8.252A1.146,1.146,0,0,1,7.52,9.263a.966.966,0,0,1-.558.157.9.9,0,0,1-.748-.347,1.57,1.57,0,0,1-.277-.992,2.14,2.14,0,0,1,.222-1.025,1.907,1.907,0,0,1,.62-.685,1.564,1.564,0,0,1,.88-.26l.185.153-.073.079a1.069,1.069,0,0,0-.16-.014.883.883,0,0,0-.633.265,1.142,1.142,0,0,0-.21.3,2.478,2.478,0,0,0-.205.839,2.554,2.554,0,0,1,.378-.319.893.893,0,0,1,.349-.068.636.636,0,0,1,.5.225A1,1,0,0,1,8,8.252Zm-.566.254A.964.964,0,0,0,7.3,7.947a.388.388,0,0,0-.34-.178.359.359,0,0,0-.371.241.941.941,0,0,0-.042.312,1.081,1.081,0,0,0,.193.729.355.355,0,0,0,.277.122Q7.438,9.173,7.438,8.506Z" fill="none"/></svg>