<svg xmlns="http://www.w3.org/2000/svg" width="13.951" height="16" viewBox="0 0 13.951 16"><path d="M13.93,8c0,1.247-.01,2.484,0,3.731a.448.448,0,0,1-.261.454c-2.156,1.237-4.3,2.475-6.447,3.731a.435.435,0,0,1-.522,0Q3.525,14.073.35,12.24A.638.638,0,0,1,0,11.612C.012,9.176.012,6.731,0,4.3a.5.5,0,0,1,.29-.5C2.457,2.556,4.6,1.318,6.748.072a.437.437,0,0,1,.493.009Q10.46,1.952,13.688,3.8a.47.47,0,0,1,.261.464C13.93,5.5,13.93,6.75,13.93,8ZM6.98,3.677c-1.3,2.339-2.58,4.61-3.875,6.91h7.751ZM7.367,3.5l3.827,6.823c.764-2.068,1.489-4.04,2.243-6.06ZM.524,4.266c.744,2.03,1.479,4,2.233,6.06L6.584,3.512ZM10.75,11.071H3.2c1.276,1.488,2.523,2.938,3.77,4.407ZM7.193,3.049l5.326.666.029-.067L7.2.555ZM6.748.565,1.413,3.648l.039.067,5.3-.666ZM13.5,11.573V5.484l-.058-.009C12.8,7.214,12.151,8.954,11.5,10.723ZM.514,5.494l-.048.019v6.051l1.972-.851Zm7.578,9.337.039.048,5.1-2.958c-.619-.261-1.15-.483-1.672-.725a.349.349,0,0,0-.484.116c-.444.542-.908,1.064-1.362,1.6-.532.648-1.073,1.286-1.624,1.924ZM5.8,14.879l.049-.048-3.074-3.6a.241.241,0,0,0-.2-.087c-.609.251-1.2.512-1.856.793ZM7.928,9.65,7.9,9.679c-.223-.01-.484-.019-.8-.019s-.638.009-.976.019L6.091,9.65V9.505l.029-.029.232-.019a1.239,1.239,0,0,0,.261-.039.154.154,0,0,0,.068-.087,4.309,4.309,0,0,0,.048-.889v-.58c0-.174,0-.4-.01-.667V7.021c0-.077-.019-.116-.048-.116a.34.34,0,0,0-.135.058c-.213.1-.4.184-.551.261l-.029-.019c-.01-.087-.029-.184-.048-.3V6.886c.434-.126.918-.281,1.449-.493l.049.038c-.01.1-.02.232-.029.416,0,.068-.01.251-.02.551l-.009.918a8.413,8.413,0,0,0,.029,1.063.115.115,0,0,0,.067.068,2.24,2.24,0,0,0,.445.039l.029.019Z" fill="none"/></svg>