<svg xmlns="http://www.w3.org/2000/svg" width="16" height="14.132" viewBox="0 0 16 14.132"><path d="M7.987,14.092c-2.323,0-4.646,0-6.969,0A.959.959,0,0,1,.2,12.582q1.941-3.351,3.869-6.71Q5.606,3.2,7.156.533A.959.959,0,0,1,8.834.527c.593,1,1.164,2.006,1.745,3.01L12.93,7.609l2.5,4.332.393.683a.957.957,0,0,1-.813,1.467c-.39.013-.78,0-1.171,0Zm-.011-.6h6.781c.509,0,.731-.346.494-.76q-1.686-2.934-3.375-5.867T8.47.982C8.209.53,7.791.519,7.527.975Q6.158,3.339,4.8,5.708,3.541,7.886,2.282,10.062c-.517.894-1.03,1.791-1.549,2.684a.429.429,0,0,0,.055.592.792.792,0,0,0,.468.144c2.24.009,4.48.006,6.72.006Zm6.623.644-.381,0c-.126,0-.252,0-.379,0H5.977c-1.625,0-3.306,0-4.959,0a1,1,0,0,1-.891-.485,1.069,1.069,0,0,1,.038-1.075c.768-1.326,1.545-2.677,2.3-3.983q.786-1.364,1.571-2.726C5.151,3.919,6.162,2.172,7.125.515A1.006,1.006,0,0,1,7.991,0H8a1.008,1.008,0,0,1,.868.509c.42.706.837,1.431,1.239,2.132q.252.44.506.879L12.96,7.592l2.6,4.5.3.517a1.022,1.022,0,0,1,.024,1.014,1.009,1.009,0,0,1-.866.5c-.137.005-.275.006-.412.006Zm-6.718-.075h5.958l.38,0c.259,0,.527.005.79,0a.943.943,0,0,0,.807-.47.954.954,0,0,0-.023-.945c-.1-.172-.2-.345-.3-.517l-2.6-4.5Q11.724,5.59,10.548,3.555q-.254-.44-.506-.879c-.4-.7-.818-1.425-1.238-2.132A.941.941,0,0,0,8,.07h0a.939.939,0,0,0-.806.48c-.963,1.657-1.975,3.4-3.092,5.34Q3.307,7.252,2.523,8.616C1.771,9.922.994,11.273.225,12.6a1,1,0,0,0-.037,1,.925.925,0,0,0,.83.449c1.653.007,3.333,0,4.958,0H7.881Zm4.177-.532H6.66c-1.771,0-3.6,0-5.4-.007a.82.82,0,0,1-.49-.152A.463.463,0,0,1,.7,12.728q.483-.831.962-1.666l.586-1.017,1.121-1.94q.7-1.208,1.4-2.415Q5.282,4.8,5.794,3.908,6.645,2.431,7.5.957A.607.607,0,0,1,7.994.6h0A.615.615,0,0,1,8.5.964q.786,1.362,1.576,2.721.915,1.58,1.829,3.159c1.044,1.807,2.1,3.647,3.122,5.426l.253.441a.546.546,0,0,1,.043.553.623.623,0,0,1-.568.259q-1.349,0-2.7,0Zm-4.047-.071h6.745a.559.559,0,0,0,.507-.224.479.479,0,0,0-.043-.484l-.253-.44c-1.022-1.78-2.078-3.619-3.121-5.426Q10.933,5.3,10.016,3.72,9.227,2.36,8.44,1A.554.554,0,0,0,8,.672H8a.541.541,0,0,0-.438.32Q6.7,2.467,5.855,3.943q-.513.891-1.027,1.782-.7,1.209-1.4,2.415L2.312,10.08q-.294.508-.586,1.017-.48.834-.962,1.667a.4.4,0,0,0,.046.546.751.751,0,0,0,.446.137c1.8.007,3.633.007,5.4.006H8.011ZM6.885,8.294l-.029-.025V8.154l.832-.882a4.191,4.191,0,0,0,.667-.843,1.247,1.247,0,0,0,.151-.557.716.716,0,0,0-.184-.5.641.641,0,0,0-.5-.2.889.889,0,0,0-.35.062.433.433,0,0,0-.2.139,2.013,2.013,0,0,0-.148.433l-.022.02H7L6.978,5.8c.037-.219.064-.441.079-.663a1.145,1.145,0,0,1,.437-.292,1.413,1.413,0,0,1,.423-.064,1.322,1.322,0,0,1,.505.1A.837.837,0,0,1,8.81,5.2a.922.922,0,0,1,.147.516,1.2,1.2,0,0,1-.086.438,1.6,1.6,0,0,1-.252.425,5.989,5.989,0,0,1-.451.491l-.775.791h.982a7.294,7.294,0,0,0,.753-.032l.017.02a1.361,1.361,0,0,0-.015.221,1.072,1.072,0,0,0,.015.2l-.017.028c-.119-.007-.3-.013-.55-.018s-.41-.007-.489-.007q-.242,0-.649.006c-.272,0-.457.01-.555.019Zm-.011.036L6.82,8.285V8.14l.843-.893a4.184,4.184,0,0,0,.66-.834,1.207,1.207,0,0,0,.148-.541A.687.687,0,0,0,8.3,5.391a.61.61,0,0,0-.471-.19.882.882,0,0,0-.337.06.4.4,0,0,0-.184.126,1.871,1.871,0,0,0-.144.422l0,.01-.041.036H6.988l-.049-.044,0-.019a6.373,6.373,0,0,0,.079-.661V5.118l.01-.009a1.182,1.182,0,0,1,.45-.3,1.488,1.488,0,0,1,.435-.065,1.374,1.374,0,0,1,.518.1.887.887,0,0,1,.4.335.96.96,0,0,1,.152.536,1.244,1.244,0,0,1-.088.451,1.647,1.647,0,0,1-.257.435,6.405,6.405,0,0,1-.453.493l-.717.731h.9a7.205,7.205,0,0,0,.749-.032l.019,0,.04.046,0,.017a1.287,1.287,0,0,0-.014.215.921.921,0,0,0,.014.189l0,.014-.036.057H9.125c-.117-.007-.3-.012-.548-.017S8.167,8.3,8.088,8.3c-.163,0-.381,0-.649.006s-.455.011-.552.019Zm.017-.078.006.006c.1-.008.284-.014.542-.018s.487-.006.65-.006c.08,0,.245,0,.49.007s.409.01.529.017A1.188,1.188,0,0,1,9.1,8.07a1.4,1.4,0,0,1,.012-.2c-.2.02-.443.03-.732.03H7.309l.834-.851a6.471,6.471,0,0,0,.449-.488,1.575,1.575,0,0,0,.246-.416,1.174,1.174,0,0,0,.083-.426.883.883,0,0,0-.14-.5.811.811,0,0,0-.372-.308,1.277,1.277,0,0,0-.492-.1,1.347,1.347,0,0,0-.413.062,1.1,1.1,0,0,0-.413.274c-.014.208-.04.422-.075.635h.075l0,0a2,2,0,0,1,.149-.433A.463.463,0,0,1,7.461,5.2a.924.924,0,0,1,.364-.065.677.677,0,0,1,.523.212.757.757,0,0,1,.193.529,1.278,1.278,0,0,1-.155.573,4.274,4.274,0,0,1-.672.85l-.824.873Z" fill="none"/></svg>