<svg xmlns="http://www.w3.org/2000/svg" width="16" height="14.126" viewBox="0 0 16 14.126"><path d="M7.983,14.086c-2.322,0-4.645,0-6.966,0a.959.959,0,0,1-.822-1.5Q2.133,9.226,4.064,5.869,5.6,3.2,7.157.53a.958.958,0,0,1,1.672,0c.593.992,1.164,2,1.744,3q1.176,2.033,2.35,4.07,1.251,2.165,2.5,4.33c.132.227.263.455.393.682a.959.959,0,0,1-.3,1.321.969.969,0,0,1-.511.146c-.39.012-.779,0-1.17,0Zm-.011-.6h6.776c.51,0,.732-.346.494-.76Q13.559,9.79,11.871,6.859T8.466.982C8.205.53,7.787.519,7.522.972Q6.154,3.336,4.8,5.705,3.539,7.881,2.28,10.057,1.511,11.4.733,12.74a.428.428,0,0,0,.055.592.794.794,0,0,0,.467.144C3.494,13.485,5.733,13.482,7.972,13.482Zm6.619.643H1.017a.99.99,0,0,1-.89-.485,1.065,1.065,0,0,1,.038-1.073c.767-1.326,1.544-2.677,2.3-3.982q.784-1.364,1.57-2.725C5.149,3.925,6.161,2.179,7.125.523A1.006,1.006,0,0,1,7.987,0h0A1.008,1.008,0,0,1,8.86.509C9.28,1.216,9.7,1.94,10.1,2.64l.506.879,2.35,4.069,2.6,4.5c.1.172.2.344.3.517a.992.992,0,0,1-.842,1.519C14.867,14.124,14.729,14.125,14.591,14.125ZM7.876,14.05h6.336c.259,0,.53,0,.789,0a.94.94,0,0,0,.807-.469.954.954,0,0,0-.023-.945q-.149-.258-.3-.516l-2.594-4.5q-1.175-2.032-2.35-4.071l-.506-.878c-.4-.7-.818-1.425-1.237-2.131A.938.938,0,0,0,7.992.071h0a.929.929,0,0,0-.8.479c-.968,1.659-1.974,3.4-3.1,5.337q-.785,1.359-1.57,2.725C1.77,9.918.993,11.268.224,12.594a1,1,0,0,0-.037,1,.926.926,0,0,0,.829.449c1.653.006,3.332,0,4.957,0Zm4.176-.53h-5.4c-1.767,0-3.6,0-5.4-.006a.828.828,0,0,1-.49-.153.463.463,0,0,1-.059-.637q.483-.831.962-1.666l.585-1.017L3.37,8.1q.695-1.209,1.395-2.413Q5.278,4.8,5.791,3.906q.85-1.476,1.7-2.949A.605.605,0,0,1,7.991.6h0A.617.617,0,0,1,8.5.965q.786,1.359,1.575,2.719.915,1.578,1.829,3.158c1.042,1.806,2.1,3.645,3.12,5.423l.252.442a.547.547,0,0,1,.044.553.625.625,0,0,1-.568.259h-2.7Zm-4.045-.071h6.741a.562.562,0,0,0,.508-.224.479.479,0,0,0-.044-.483L14.96,12.3c-1.022-1.78-2.078-3.62-3.12-5.426Q10.928,5.3,10.011,3.718L8.436,1A.552.552,0,0,0,7.994.672h0a.543.543,0,0,0-.442.32Q6.7,2.465,5.852,3.941q-.511.891-1.026,1.782-.7,1.206-1.395,2.413l-1.12,1.937q-.294.509-.586,1.017-.48.838-.961,1.668A.4.4,0,0,0,.81,13.3a.748.748,0,0,0,.441.137c1.8.007,3.632.007,5.4.006H8.007ZM7.17,5.2l-.044-.014L7.1,4.98l.025-.025a6.123,6.123,0,0,0,.623-.229q.377-.157.539-.241l.064.025q-.039,1.079-.04,1.3v.91c0,.225,0,.436.007.634a2.6,2.6,0,0,0,.022.353.173.173,0,0,0,.052.083.186.186,0,0,0,.1.038c.043,0,.17.014.381.026l.018.02v.11L8.873,8c-.359-.013-.613-.02-.76-.02q-.168,0-.82.02l-.017-.02V7.864L7.3,7.845c.247-.019.387-.032.423-.04A.149.149,0,0,0,7.8,7.762a.276.276,0,0,0,.046-.117,4.827,4.827,0,0,0,.028-.51c.007-.282.011-.427.011-.433V4.959c0-.042-.017-.062-.044-.062a.086.086,0,0,0-.027,0,.758.758,0,0,0-.108.044l-.244.109a3.157,3.157,0,0,0-.291.14Z" fill="none"/></svg>