<svg xmlns="http://www.w3.org/2000/svg" width="16" height="15.991" viewBox="0 0 16 15.991"><path d="M6.687,15.942c-1.608,0-3.216-.027-4.822.009A1.709,1.709,0,0,1,.044,14.128Q.08,9.435.04,4.741A2.445,2.445,0,0,1,.865,2.794c.756-.7,1.477-1.449,2.2-2.189A1.747,1.747,0,0,1,4.357.044q5-.007,10,0a1.583,1.583,0,0,1,1.6,1.609c.007,3.351,0,6.7,0,10.053a2.065,2.065,0,0,1-.821,1.473q-1.115,1.1-2.215,2.216a1.766,1.766,0,0,1-1.326.547C9.96,15.938,8.323,15.942,6.687,15.942Zm-.01-.59q2.456,0,4.91,0a1.021,1.021,0,0,0,1.138-1.127q.009-4.924,0-9.849a1.015,1.015,0,0,0-1.107-1.106q-4.924-.006-9.849,0A1.018,1.018,0,0,0,.646,4.415q0,4.9,0,9.791A1.028,1.028,0,0,0,1.8,15.352ZM1.826,2.659c.172.011.254.021.337.021q4.909.006,9.821.009A2.185,2.185,0,0,0,13.6,2.026c.286-.288.581-.568.857-.865a2.715,2.715,0,0,0,.269-.408,2.2,2.2,0,0,0-.487-.117Q9.4.626,4.567.64a2.024,2.024,0,0,0-.856.217,2.519,2.519,0,0,0-.555.5C2.73,1.774,2.306,2.19,1.826,2.659ZM13.317,14.075l.1.04c.5-.512.985-1.036,1.5-1.531a1.52,1.52,0,0,0,.466-1.2c-.016-1.821-.007-3.641-.006-5.462,0-1.413,0-2.827,0-4.24a1.209,1.209,0,0,0-.106-.341,1.405,1.405,0,0,0-.306.174c-.322.306-.626.631-.947.939A2.187,2.187,0,0,0,13.316,4.1q-.006,4.823,0,9.645Zm-11.5,1.916A1.781,1.781,0,0,1,.528,15.5,1.88,1.88,0,0,1,0,14.127C.03,10.744.029,7.674,0,4.741A2.469,2.469,0,0,1,.838,2.765C1.553,2.1,2.248,1.385,2.92.7L3.036.577A1.789,1.789,0,0,1,4.357.005c3.147,0,6.537-.008,10,0A1.615,1.615,0,0,1,16,1.655c0,2.174,0,4.385,0,6.522q0,1.765,0,3.531a2.117,2.117,0,0,1-.833,1.5c-.8.786-1.522,1.511-2.215,2.215a1.8,1.8,0,0,1-1.346.559H11.6c-1.178-.005-2.377,0-3.536,0q-1.407,0-2.814,0c-1.108-.006-2.254-.012-3.381.014ZM9.592.08c-1.8,0-3.55,0-5.235,0A1.721,1.721,0,0,0,3.092.632L2.977.751c-.673.69-1.368,1.4-2.085,2.072A2.4,2.4,0,0,0,.08,4.741c.029,2.932.03,6,0,9.387a1.8,1.8,0,0,0,.5,1.314,1.713,1.713,0,0,0,1.28.469c1.127-.025,2.274-.019,3.383-.014q1.407.007,2.813,0c1.16,0,2.358,0,3.537,0a1.717,1.717,0,0,0,1.3-.535c.693-.7,1.418-1.429,2.215-2.216a2.056,2.056,0,0,0,.809-1.445q0-1.765,0-3.531c0-2.137,0-4.348,0-6.522A1.538,1.538,0,0,0,14.354.085C12.746.081,11.153.08,9.592.08ZM9.54,15.392H1.8A1.07,1.07,0,0,1,.609,14.207q0-4.461,0-8.921V4.415A1.06,1.06,0,0,1,1.77,3.231c3.2-.006,6.519-.006,9.849,0a1.055,1.055,0,0,1,1.146,1.146c0,3.6,0,6.82,0,9.849a1.059,1.059,0,0,1-1.178,1.167Zm-2.863-.08H8.109q1.739,0,3.477,0a.979.979,0,0,0,1.1-1.088c.006-3.029.006-6.251,0-9.849a.972.972,0,0,0-1.067-1.066c-3.33-.005-6.644,0-9.849,0a.979.979,0,0,0-1.084,1.1v.871q0,4.46,0,8.92A.991.991,0,0,0,1.8,15.312h4.88Zm6.747-1.15-.147-.06V11.209c0-2.332,0-4.743,0-7.115a2.229,2.229,0,0,1,.706-1.663c.153-.148.305-.3.453-.451s.326-.329.494-.489a.8.8,0,0,1,.215-.131c.033-.016.067-.031.1-.049l.042-.023.014.046c.012.035.027.07.041.1a.666.666,0,0,1,.068.248c.006,1.117.005,2.252.005,3.35v.89q0,.738,0,1.476c0,1.306,0,2.657.008,3.985a1.55,1.55,0,0,1-.478,1.224c-.361.347-.713.714-1.054,1.07-.148.154-.3.308-.445.46Zm-.067-.114.047.02.425-.441c.342-.356.695-.724,1.056-1.072a1.473,1.473,0,0,0,.454-1.166c-.012-1.329-.01-2.68-.008-3.986q0-.738,0-1.476v-.89c0-1.1,0-2.233-.005-3.35a.6.6,0,0,0-.061-.217c-.01-.023-.019-.045-.027-.067l-.062.029a.732.732,0,0,0-.2.117c-.167.159-.332.326-.492.487s-.3.3-.454.452A2.155,2.155,0,0,0,13.355,4.1c0,2.371,0,4.782,0,7.114ZM11.985,2.729h0q-4.911,0-9.821-.01c-.054,0-.108,0-.183-.009L1.824,2.7l-.09,0L2.2,2.235c.321-.314.623-.61.926-.9.05-.049.1-.1.148-.154A1.514,1.514,0,0,1,3.694.821,2.047,2.047,0,0,1,4.566.6C7.84.585,11.152.59,14.242.6a1.137,1.137,0,0,1,.344.073c.051.016.1.032.153.045l.053.013-.03.047c-.027.042-.053.086-.078.13a1.516,1.516,0,0,1-.195.283c-.184.2-.379.39-.567.577-.1.1-.2.192-.291.289A2.234,2.234,0,0,1,11.985,2.729Zm-10.068-.1.069,0c.076.005.126.009.177.009q4.909.006,9.821.01h0A2.157,2.157,0,0,0,13.575,2c.1-.1.193-.193.291-.29.188-.186.382-.378.565-.574a1.5,1.5,0,0,0,.184-.269c.017-.029.034-.058.052-.087q-.053-.015-.105-.033a1.089,1.089,0,0,0-.32-.069c-3.09-.007-6.4-.011-9.675,0a1.964,1.964,0,0,0-.838.212,1.473,1.473,0,0,0-.394.339c-.049.053-.1.107-.151.157-.3.294-.6.59-.926.9Zm4.1,8.368L6,10.972v-.121l.023-.022c.276-.008.439-.016.491-.025a.184.184,0,0,0,.113-.059.494.494,0,0,0,.054-.218,3.587,3.587,0,0,0,.019-.37V9.95H6.083q-.534,0-.9.017l-.047-.151Q5.618,8.9,6.757,7.175l.4-.159.069.034q-.03.476-.03,1.177l-.009.789V9.6c.258,0,.456-.007.6-.017l.025.028c0,.071,0,.123,0,.154,0,.062,0,.122.008.182l-.028.025c-.181-.011-.332-.017-.453-.017H7.182v.188a4.063,4.063,0,0,0,.017.445.326.326,0,0,0,.053.169.27.27,0,0,0,.147.056,2.946,2.946,0,0,0,.382.021l.025.022v.121l-.022.022c-.328-.015-.6-.022-.825-.022C6.6,10.972,6.283,10.979,6.019,10.994ZM5.5,9.6H6.7l.025-1.989q-.269.384-.677,1.052C5.771,9.1,5.591,9.416,5.5,9.6Zm.5,1.44-.047-.047v-.153L6,10.79h.015c.273-.007.436-.016.485-.024a.148.148,0,0,0,.09-.045.44.44,0,0,0,.046-.2,3.518,3.518,0,0,0,.018-.366V9.99H6.083c-.354,0-.657.006-.9.017h-.03l-.062-.2L5.1,9.8c.324-.606.871-1.5,1.627-2.643l.007-.011.422-.171.11.053,0,.027c-.02.314-.031.71-.031,1.175l-.008.79v.538c.236,0,.422-.008.554-.016l.019,0,.049.055v.016c0,.07,0,.121,0,.152,0,.06,0,.12.008.18v.019l-.055.049H7.776C7.6,10,7.445,9.99,7.325,9.99h-.1v.148a3.968,3.968,0,0,0,.017.44c.013.107.034.138.042.146a.224.224,0,0,0,.125.045,3.059,3.059,0,0,0,.375.02H7.8l.05.044v.155l-.047.046H7.782c-.326-.015-.6-.023-.823-.023-.36,0-.675.008-.938.023Zm.956-.1c.217,0,.488.007.807.021v-.085a2.828,2.828,0,0,1-.373-.021.3.3,0,0,1-.169-.068.34.34,0,0,1-.064-.191,3.933,3.933,0,0,1-.017-.45V9.911h.182c.118,0,.265.005.439.016v0c0-.054,0-.108-.007-.164,0-.03,0-.077,0-.14l0,0c-.139.009-.333.014-.578.016h-.04V9.016l.008-.789c0-.454.01-.842.029-1.153l-.03-.015-.366.149C6.039,8.339,5.5,9.218,5.175,9.82l.033.106c.24-.01.534-.015.875-.015h.652v.246a3.691,3.691,0,0,1-.018.374.47.47,0,0,1-.063.239.226.226,0,0,1-.137.073c-.053.009-.21.018-.481.025v.085C6.3,10.939,6.607,10.932,6.959,10.932Zm-.224-1.3h-1.3l.028-.058c.09-.179.273-.495.545-.94s.5-.8.678-1.054l.074-.105Zm-1.169-.08h1.09l.023-1.819c-.165.243-.367.559-.6.943S5.663,9.371,5.566,9.555Z" fill="none"/></svg>