<svg xmlns="http://www.w3.org/2000/svg" width="16" height="15.991" viewBox="0 0 16 15.991"><path d="M6.687,15.942c-1.608,0-3.216-.027-4.822.009A1.709,1.709,0,0,1,.044,14.128Q.08,9.435.04,4.741A2.445,2.445,0,0,1,.865,2.794c.756-.7,1.477-1.449,2.2-2.189A1.747,1.747,0,0,1,4.357.044q5-.007,10,0a1.583,1.583,0,0,1,1.6,1.609c.007,3.351,0,6.7,0,10.053a2.065,2.065,0,0,1-.821,1.473q-1.115,1.1-2.215,2.216a1.766,1.766,0,0,1-1.326.547C9.96,15.938,8.323,15.942,6.687,15.942Zm-.01-.59q2.456,0,4.91,0a1.021,1.021,0,0,0,1.138-1.127q.009-4.924,0-9.849a1.015,1.015,0,0,0-1.107-1.106q-4.924-.006-9.849,0A1.018,1.018,0,0,0,.646,4.415q0,4.9,0,9.791A1.028,1.028,0,0,0,1.8,15.352ZM1.826,2.659c.172.011.254.021.337.021q4.909.006,9.821.009A2.185,2.185,0,0,0,13.6,2.026c.286-.288.581-.568.857-.865a2.715,2.715,0,0,0,.269-.408,2.2,2.2,0,0,0-.487-.117Q9.4.626,4.567.64a2.024,2.024,0,0,0-.856.217,2.519,2.519,0,0,0-.555.5C2.73,1.774,2.306,2.19,1.826,2.659ZM13.317,14.075l.1.04c.5-.512.985-1.036,1.5-1.531a1.52,1.52,0,0,0,.466-1.2c-.016-1.821-.007-3.641-.006-5.462,0-1.413,0-2.827,0-4.24a1.209,1.209,0,0,0-.106-.341,1.405,1.405,0,0,0-.306.174c-.322.306-.626.631-.947.939A2.187,2.187,0,0,0,13.316,4.1q-.006,4.823,0,9.645Zm-11.5,1.916A1.781,1.781,0,0,1,.528,15.5,1.88,1.88,0,0,1,0,14.127C.03,10.744.029,7.674,0,4.741A2.469,2.469,0,0,1,.838,2.765C1.553,2.1,2.248,1.385,2.92.7L3.036.577A1.789,1.789,0,0,1,4.357.005c3.147,0,6.537-.008,10,0A1.615,1.615,0,0,1,16,1.655c0,2.174,0,4.385,0,6.522q0,1.765,0,3.531a2.117,2.117,0,0,1-.833,1.5c-.8.786-1.522,1.511-2.215,2.215a1.8,1.8,0,0,1-1.346.559H11.6c-1.178-.005-2.377,0-3.536,0q-1.407,0-2.814,0c-1.108-.006-2.254-.012-3.381.014ZM9.592.08c-1.8,0-3.55,0-5.235,0A1.721,1.721,0,0,0,3.092.632L2.977.751c-.673.69-1.368,1.4-2.085,2.072A2.4,2.4,0,0,0,.08,4.741c.029,2.932.03,6,0,9.387a1.8,1.8,0,0,0,.5,1.314,1.713,1.713,0,0,0,1.28.469c1.127-.025,2.274-.019,3.383-.014q1.407.007,2.813,0c1.16,0,2.358,0,3.537,0a1.717,1.717,0,0,0,1.3-.535c.693-.7,1.418-1.429,2.215-2.216a2.056,2.056,0,0,0,.809-1.445q0-1.765,0-3.531c0-2.137,0-4.348,0-6.522A1.538,1.538,0,0,0,14.354.085C12.746.081,11.153.08,9.592.08ZM9.54,15.392H1.8A1.07,1.07,0,0,1,.609,14.207q0-4.461,0-8.921V4.415A1.06,1.06,0,0,1,1.77,3.231c3.2-.006,6.519-.006,9.849,0a1.055,1.055,0,0,1,1.146,1.146c0,3.6,0,6.82,0,9.849a1.059,1.059,0,0,1-1.178,1.167Zm-2.863-.08H8.109q1.739,0,3.477,0a.979.979,0,0,0,1.1-1.088c.006-3.029.006-6.251,0-9.849a.972.972,0,0,0-1.067-1.066c-3.33-.005-6.644,0-9.849,0a.979.979,0,0,0-1.084,1.1v.871q0,4.46,0,8.92A.991.991,0,0,0,1.8,15.312h4.88Zm6.747-1.15-.147-.06V11.209c0-2.332,0-4.743,0-7.115a2.229,2.229,0,0,1,.706-1.663c.153-.148.305-.3.453-.451s.326-.329.494-.489a.8.8,0,0,1,.215-.131c.033-.016.067-.031.1-.049l.042-.023.014.046c.012.035.027.07.041.1a.666.666,0,0,1,.068.248c.006,1.117.005,2.252.005,3.35v.89q0,.738,0,1.476c0,1.306,0,2.657.008,3.985a1.55,1.55,0,0,1-.478,1.224c-.361.347-.713.714-1.054,1.07-.148.154-.3.308-.445.46Zm-.067-.114.047.02.425-.441c.342-.356.695-.724,1.056-1.072a1.473,1.473,0,0,0,.454-1.166c-.012-1.329-.01-2.68-.008-3.986q0-.738,0-1.476v-.89c0-1.1,0-2.233-.005-3.35a.6.6,0,0,0-.061-.217c-.01-.023-.019-.045-.027-.067l-.062.029a.732.732,0,0,0-.2.117c-.167.159-.332.326-.492.487s-.3.3-.454.452A2.155,2.155,0,0,0,13.355,4.1c0,2.371,0,4.782,0,7.114ZM11.985,2.729h0q-4.911,0-9.821-.01c-.054,0-.108,0-.183-.009L1.824,2.7l-.09,0L2.2,2.235c.321-.314.623-.61.926-.9.05-.049.1-.1.148-.154A1.514,1.514,0,0,1,3.694.821,2.047,2.047,0,0,1,4.566.6C7.84.585,11.152.59,14.242.6a1.137,1.137,0,0,1,.344.073c.051.016.1.032.153.045l.053.013-.03.047c-.027.042-.053.086-.078.13a1.516,1.516,0,0,1-.195.283c-.184.2-.379.39-.567.577-.1.1-.2.192-.291.289A2.234,2.234,0,0,1,11.985,2.729Zm-10.068-.1.069,0c.076.005.126.009.177.009q4.909.006,9.821.01h0A2.157,2.157,0,0,0,13.575,2c.1-.1.193-.193.291-.29.188-.186.382-.378.565-.574a1.5,1.5,0,0,0,.184-.269c.017-.029.034-.058.052-.087q-.053-.015-.105-.033a1.089,1.089,0,0,0-.32-.069c-3.09-.007-6.4-.011-9.675,0a1.964,1.964,0,0,0-.838.212,1.473,1.473,0,0,0-.394.339c-.049.053-.1.107-.151.157-.3.294-.6.59-.926.9ZM5.7,11.874c-.044-.144-.136-.384-.276-.718l.006-.037.1-.055.034.008a3.475,3.475,0,0,0,.288.478.822.822,0,0,0,.261.134,1.2,1.2,0,0,0,.429.076,1,1,0,0,0,.5-.122.75.75,0,0,0,.323-.363,1.319,1.319,0,0,0,.106-.543,1.181,1.181,0,0,0-.1-.514.707.707,0,0,0-.319-.327.992.992,0,0,0-.463-.111.889.889,0,0,0-.282.041.7.7,0,0,0-.212.108,1.62,1.62,0,0,0-.2.193l-.114-.033.03-.6c.008-.113.012-.228.012-.343v-.5c0-.148,0-.29-.014-.426q-.009-.124-.009-.159l.036-.028q.428.034.973.034c.276,0,.608-.011.994-.034l.011.028a1.8,1.8,0,0,0-.019.254c0,.039,0,.1.008.2l-.028.017c-.211-.015-.5-.023-.852-.023q-.727,0-.844.006-.042.328-.059,1.159a1.517,1.517,0,0,1,.413-.227,1.312,1.312,0,0,1,.98.079.922.922,0,0,1,.417.4,1.215,1.215,0,0,1,.137.571,1.457,1.457,0,0,1-.466,1.04,1.6,1.6,0,0,1-1.194.475,1.311,1.311,0,0,1-.322-.033A1.331,1.331,0,0,1,5.7,11.874Zm.6.182a1.293,1.293,0,0,1-.332-.035,1.377,1.377,0,0,1-.282-.111L5.666,11.9l-.005-.016c-.044-.143-.136-.384-.274-.715l0-.01.01-.067.129-.073.065.017.009.015a3.257,3.257,0,0,0,.281.469.763.763,0,0,0,.247.124,1.174,1.174,0,0,0,.415.074.963.963,0,0,0,.479-.117.72.72,0,0,0,.306-.344,1.3,1.3,0,0,0,.1-.527,1.128,1.128,0,0,0-.1-.5.672.672,0,0,0-.3-.31.951.951,0,0,0-.444-.107.875.875,0,0,0-.27.04.657.657,0,0,0-.2.1,1.708,1.708,0,0,0-.2.189l-.016.018-.169-.049.033-.63c.007-.113.011-.227.011-.341v-.5c0-.146,0-.289-.014-.423-.006-.085-.009-.138-.009-.162V8.047L5.812,8h.016c.281.022.607.033.969.033.274,0,.608-.011.992-.033l.028,0,.026.064v.011a1.712,1.712,0,0,0-.019.248c0,.038,0,.1.008.192v.025l-.059.035H7.76c-.21-.015-.5-.022-.849-.022-.428,0-.7,0-.809,0-.024.211-.042.561-.052,1.043a1.441,1.441,0,0,1,.358-.187,1.355,1.355,0,0,1,1.011.081.969.969,0,0,1,.434.422A1.265,1.265,0,0,1,8,10.5a1.5,1.5,0,0,1-.478,1.068A1.645,1.645,0,0,1,6.3,12.056Zm-.563-.21a1.36,1.36,0,0,0,.252.1,1.264,1.264,0,0,0,.311.032,1.572,1.572,0,0,0,1.166-.463A1.429,1.429,0,0,0,7.916,10.5a1.18,1.18,0,0,0-.134-.553.873.873,0,0,0-.4-.386,1.246,1.246,0,0,0-.564-.135,1.259,1.259,0,0,0-.386.057,1.494,1.494,0,0,0-.4.222l-.065.047v-.08c.012-.552.031-.944.059-1.163l0-.033.033,0c.079,0,.364-.006.846-.006.346,0,.628.008.839.022,0-.079-.007-.135-.007-.171a1.892,1.892,0,0,1,.017-.24c-.371.021-.695.032-.963.032-.357,0-.68-.011-.96-.033l-.009.007c0,.027,0,.073.008.136.01.137.014.281.014.429v.5c0,.115,0,.232-.011.345l-.029.567.06.018a1.725,1.725,0,0,1,.191-.18.752.752,0,0,1,.223-.113.918.918,0,0,1,.295-.044,1.032,1.032,0,0,1,.481.116A.756.756,0,0,1,7.4,10.2a1.212,1.212,0,0,1,.108.531,1.392,1.392,0,0,1-.109.56.789.789,0,0,1-.34.38,1.039,1.039,0,0,1-.518.128,1.26,1.26,0,0,1-.443-.079.851.851,0,0,1-.275-.143,2.75,2.75,0,0,1-.287-.472h0l-.067.038v.007C5.6,11.467,5.686,11.7,5.732,11.846Z" fill="none"/></svg>