<svg xmlns="http://www.w3.org/2000/svg" width="16" height="15.991" viewBox="0 0 16 15.991"><path d="M5.344,11.228,5.31,11.2v-.129l.942-1a4.742,4.742,0,0,0,.754-.954,1.393,1.393,0,0,0,.172-.63.818.818,0,0,0-.208-.571.726.726,0,0,0-.563-.228,1.028,1.028,0,0,0-.4.07.492.492,0,0,0-.226.158,2.271,2.271,0,0,0-.167.489l-.026.023H5.476L5.448,8.4c.043-.254.073-.5.09-.752a1.3,1.3,0,0,1,.494-.33,1.583,1.583,0,0,1,.479-.072,1.484,1.484,0,0,1,.571.113.949.949,0,0,1,.439.364,1.033,1.033,0,0,1,.166.584,1.35,1.35,0,0,1-.1.5,1.81,1.81,0,0,1-.284.481,7.312,7.312,0,0,1-.511.556l-.877.9H7.029a8.3,8.3,0,0,0,.852-.037l.02.023a1.511,1.511,0,0,0-.017.25A1.161,1.161,0,0,0,7.9,11.2l-.02.031q-.2-.01-.622-.02C6.98,11.2,6.8,11.2,6.705,11.2c-.182,0-.426,0-.734.007S5.454,11.219,5.344,11.228Zm-.013.041-.061-.05v-.164l.953-1.01A4.75,4.75,0,0,0,6.971,9.1a1.365,1.365,0,0,0,.167-.612.775.775,0,0,0-.2-.544.687.687,0,0,0-.533-.215.983.983,0,0,0-.381.067.463.463,0,0,0-.209.143,2.1,2.1,0,0,0-.162.478l0,.011-.046.041H5.461l-.056-.05,0-.022c.042-.251.072-.5.089-.747V7.635l.011-.011a1.335,1.335,0,0,1,.51-.34,1.635,1.635,0,0,1,.491-.074,1.524,1.524,0,0,1,.586.116.988.988,0,0,1,.457.379,1.079,1.079,0,0,1,.173.606,1.411,1.411,0,0,1-.1.511,1.859,1.859,0,0,1-.29.491,7.035,7.035,0,0,1-.514.559l-.811.827H7.029a8.257,8.257,0,0,0,.848-.036l.021,0,.045.053,0,.018a1.464,1.464,0,0,0-.016.244,1.082,1.082,0,0,0,.016.214l0,.016-.041.064H7.879c-.133-.008-.342-.014-.62-.02s-.464-.008-.554-.008c-.184,0-.431,0-.733.007s-.516.011-.625.021Zm.019-.088.007.006c.114-.009.321-.015.613-.02s.551-.007.735-.007c.091,0,.278,0,.555.009s.463.011.6.018a1.226,1.226,0,0,1-.015-.212,1.812,1.812,0,0,1,.013-.23c-.222.022-.5.033-.828.033H5.823l.944-.962a7.222,7.222,0,0,0,.508-.553,1.788,1.788,0,0,0,.278-.47,1.319,1.319,0,0,0,.094-.482,1,1,0,0,0-.159-.562.92.92,0,0,0-.421-.35,1.461,1.461,0,0,0-.556-.109,1.551,1.551,0,0,0-.468.07,1.256,1.256,0,0,0-.467.31c-.016.236-.045.477-.085.719h.085l.005,0a2.214,2.214,0,0,1,.17-.49A.514.514,0,0,1,6,7.723a1.067,1.067,0,0,1,.412-.074A.765.765,0,0,1,7,7.89a.858.858,0,0,1,.219.6,1.444,1.444,0,0,1-.176.648,4.823,4.823,0,0,1-.761.963l-.931.987Zm1.337,4.761c-1.608,0-3.216-.027-4.822.009A1.709,1.709,0,0,1,.044,14.128Q.08,9.435.04,4.741A2.445,2.445,0,0,1,.865,2.794c.756-.7,1.477-1.449,2.2-2.189A1.747,1.747,0,0,1,4.357.044q5-.007,10,0a1.583,1.583,0,0,1,1.6,1.609c.007,3.351,0,6.7,0,10.053a2.065,2.065,0,0,1-.821,1.473q-1.115,1.1-2.215,2.216a1.766,1.766,0,0,1-1.326.547C9.96,15.938,8.323,15.942,6.687,15.942Zm-.01-.59q2.456,0,4.91,0a1.021,1.021,0,0,0,1.138-1.127q.009-4.924,0-9.849a1.015,1.015,0,0,0-1.107-1.106q-4.924-.006-9.849,0A1.018,1.018,0,0,0,.646,4.415q0,4.9,0,9.791A1.028,1.028,0,0,0,1.8,15.352ZM1.826,2.659c.172.011.254.021.337.021q4.909.006,9.821.009A2.185,2.185,0,0,0,13.6,2.026c.286-.288.581-.568.857-.865a2.715,2.715,0,0,0,.269-.408,2.2,2.2,0,0,0-.487-.117Q9.4.626,4.567.64a2.024,2.024,0,0,0-.856.217,2.519,2.519,0,0,0-.555.5C2.73,1.774,2.306,2.19,1.826,2.659ZM13.317,14.075l.1.04c.5-.512.985-1.036,1.5-1.531a1.52,1.52,0,0,0,.466-1.2c-.016-1.821-.007-3.641-.006-5.462,0-1.413,0-2.827,0-4.24a1.209,1.209,0,0,0-.106-.341,1.405,1.405,0,0,0-.306.174c-.322.306-.626.631-.947.939A2.187,2.187,0,0,0,13.316,4.1q-.006,4.823,0,9.645Zm-11.5,1.916A1.781,1.781,0,0,1,.528,15.5,1.88,1.88,0,0,1,0,14.127C.03,10.744.029,7.674,0,4.741A2.469,2.469,0,0,1,.838,2.765C1.553,2.1,2.248,1.385,2.92.7L3.036.577A1.789,1.789,0,0,1,4.357.005c3.147,0,6.537-.008,10,0A1.615,1.615,0,0,1,16,1.655c0,2.174,0,4.385,0,6.522q0,1.765,0,3.531a2.117,2.117,0,0,1-.833,1.5c-.8.786-1.522,1.511-2.215,2.215a1.8,1.8,0,0,1-1.346.559H11.6c-1.178-.005-2.377,0-3.536,0q-1.407,0-2.814,0c-1.108-.006-2.254-.012-3.381.014ZM9.592.08c-1.8,0-3.55,0-5.235,0A1.721,1.721,0,0,0,3.092.632L2.977.751c-.673.69-1.368,1.4-2.085,2.072A2.4,2.4,0,0,0,.08,4.741c.029,2.932.03,6,0,9.387a1.8,1.8,0,0,0,.5,1.314,1.713,1.713,0,0,0,1.28.469c1.127-.025,2.274-.019,3.383-.014q1.407.007,2.813,0c1.16,0,2.358,0,3.537,0a1.717,1.717,0,0,0,1.3-.535c.693-.7,1.418-1.429,2.215-2.216a2.056,2.056,0,0,0,.809-1.445q0-1.765,0-3.531c0-2.137,0-4.348,0-6.522A1.538,1.538,0,0,0,14.354.085C12.746.081,11.153.08,9.592.08ZM9.54,15.392H1.8A1.07,1.07,0,0,1,.609,14.207q0-4.461,0-8.921V4.415A1.06,1.06,0,0,1,1.77,3.231c3.2-.006,6.519-.006,9.849,0a1.055,1.055,0,0,1,1.146,1.146c0,3.6,0,6.82,0,9.849a1.059,1.059,0,0,1-1.178,1.167Zm-2.863-.08H8.109q1.739,0,3.477,0a.979.979,0,0,0,1.1-1.088c.006-3.029.006-6.251,0-9.849a.972.972,0,0,0-1.067-1.066c-3.33-.005-6.644,0-9.849,0a.979.979,0,0,0-1.084,1.1v.871q0,4.46,0,8.92A.991.991,0,0,0,1.8,15.312h4.88Zm6.747-1.15-.147-.06V11.209c0-2.332,0-4.743,0-7.115a2.229,2.229,0,0,1,.706-1.663c.153-.148.305-.3.453-.451s.326-.329.494-.489a.8.8,0,0,1,.215-.131c.033-.016.067-.031.1-.049l.042-.023.014.046c.012.035.027.07.041.1a.666.666,0,0,1,.068.248c.006,1.117.005,2.252.005,3.35v.89q0,.738,0,1.476c0,1.306,0,2.657.008,3.985a1.55,1.55,0,0,1-.478,1.224c-.361.347-.713.714-1.054,1.07-.148.154-.3.308-.445.46Zm-.067-.114.047.02.425-.441c.342-.356.695-.724,1.056-1.072a1.473,1.473,0,0,0,.454-1.166c-.012-1.329-.01-2.68-.008-3.986q0-.738,0-1.476v-.89c0-1.1,0-2.233-.005-3.35a.6.6,0,0,0-.061-.217c-.01-.023-.019-.045-.027-.067l-.062.029a.732.732,0,0,0-.2.117c-.167.159-.332.326-.492.487s-.3.3-.454.452A2.155,2.155,0,0,0,13.355,4.1c0,2.371,0,4.782,0,7.114ZM11.985,2.729h0q-4.911,0-9.821-.01c-.054,0-.108,0-.183-.009L1.824,2.7l-.09,0L2.2,2.235c.321-.314.623-.61.926-.9.05-.049.1-.1.148-.154A1.514,1.514,0,0,1,3.694.821,2.047,2.047,0,0,1,4.566.6C7.84.585,11.152.59,14.242.6a1.137,1.137,0,0,1,.344.073c.051.016.1.032.153.045l.053.013-.03.047c-.027.042-.053.086-.078.13a1.516,1.516,0,0,1-.195.283c-.184.2-.379.39-.567.577-.1.1-.2.192-.291.289A2.234,2.234,0,0,1,11.985,2.729Zm-10.068-.1.069,0c.076.005.126.009.177.009q4.909.006,9.821.01h0A2.157,2.157,0,0,0,13.575,2c.1-.1.193-.193.291-.29.188-.186.382-.378.565-.574a1.5,1.5,0,0,0,.184-.269c.017-.029.034-.058.052-.087q-.053-.015-.105-.033a1.089,1.089,0,0,0-.32-.069c-3.09-.007-6.4-.011-9.675,0a1.964,1.964,0,0,0-.838.212,1.473,1.473,0,0,0-.394.339c-.049.053-.1.107-.151.157-.3.294-.6.59-.926.9Z" fill="none"/></svg>