<svg xmlns="http://www.w3.org/2000/svg" width="16" height="15.991" viewBox="0 0 16 15.991"><path d="M6.687,15.942c-1.608,0-3.216-.027-4.822.009A1.709,1.709,0,0,1,.044,14.128Q.08,9.435.04,4.741A2.445,2.445,0,0,1,.865,2.794c.756-.7,1.477-1.449,2.2-2.189A1.747,1.747,0,0,1,4.357.044q5-.007,10,0a1.583,1.583,0,0,1,1.6,1.609c.007,3.351,0,6.7,0,10.053a2.065,2.065,0,0,1-.821,1.473q-1.115,1.1-2.215,2.216a1.766,1.766,0,0,1-1.326.547C9.96,15.938,8.323,15.942,6.687,15.942Zm-.01-.59q2.456,0,4.91,0a1.021,1.021,0,0,0,1.138-1.127q.009-4.924,0-9.849a1.015,1.015,0,0,0-1.107-1.106q-4.924-.006-9.849,0A1.018,1.018,0,0,0,.646,4.415q0,4.9,0,9.791A1.028,1.028,0,0,0,1.8,15.352ZM1.826,2.659c.172.011.254.021.337.021q4.909.006,9.821.009A2.185,2.185,0,0,0,13.6,2.026c.286-.288.581-.568.857-.865a2.715,2.715,0,0,0,.269-.408,2.2,2.2,0,0,0-.487-.117Q9.4.626,4.567.64a2.024,2.024,0,0,0-.856.217,2.519,2.519,0,0,0-.555.5C2.73,1.774,2.306,2.19,1.826,2.659ZM13.317,14.075l.1.04c.5-.512.985-1.036,1.5-1.531a1.52,1.52,0,0,0,.466-1.2c-.016-1.821-.007-3.641-.006-5.462,0-1.413,0-2.827,0-4.24a1.209,1.209,0,0,0-.106-.341,1.405,1.405,0,0,0-.306.174c-.322.306-.626.631-.947.939A2.187,2.187,0,0,0,13.316,4.1q-.006,4.823,0,9.645Zm-11.5,1.916A1.781,1.781,0,0,1,.528,15.5,1.88,1.88,0,0,1,0,14.127C.03,10.744.029,7.674,0,4.741A2.469,2.469,0,0,1,.838,2.765C1.553,2.1,2.248,1.385,2.92.7L3.036.577A1.789,1.789,0,0,1,4.357.005c3.147,0,6.537-.008,10,0A1.615,1.615,0,0,1,16,1.655c0,2.174,0,4.385,0,6.522q0,1.765,0,3.531a2.117,2.117,0,0,1-.833,1.5c-.8.786-1.522,1.511-2.215,2.215a1.8,1.8,0,0,1-1.346.559H11.6c-1.178-.005-2.377,0-3.536,0q-1.407,0-2.814,0c-1.108-.006-2.254-.012-3.381.014ZM9.592.08c-1.8,0-3.55,0-5.235,0A1.721,1.721,0,0,0,3.092.632L2.977.751c-.673.69-1.368,1.4-2.085,2.072A2.4,2.4,0,0,0,.08,4.741c.029,2.932.03,6,0,9.387a1.8,1.8,0,0,0,.5,1.314,1.713,1.713,0,0,0,1.28.469c1.127-.025,2.274-.019,3.383-.014q1.407.007,2.813,0c1.16,0,2.358,0,3.537,0a1.717,1.717,0,0,0,1.3-.535c.693-.7,1.418-1.429,2.215-2.216a2.056,2.056,0,0,0,.809-1.445q0-1.765,0-3.531c0-2.137,0-4.348,0-6.522A1.538,1.538,0,0,0,14.354.085C12.746.081,11.153.08,9.592.08ZM9.54,15.392H1.8A1.07,1.07,0,0,1,.609,14.207q0-4.461,0-8.921V4.415A1.06,1.06,0,0,1,1.77,3.231c3.2-.006,6.519-.006,9.849,0a1.055,1.055,0,0,1,1.146,1.146c0,3.6,0,6.82,0,9.849a1.059,1.059,0,0,1-1.178,1.167Zm-2.863-.08H8.109q1.739,0,3.477,0a.979.979,0,0,0,1.1-1.088c.006-3.029.006-6.251,0-9.849a.972.972,0,0,0-1.067-1.066c-3.33-.005-6.644,0-9.849,0a.979.979,0,0,0-1.084,1.1v.871q0,4.46,0,8.92A.991.991,0,0,0,1.8,15.312h4.88Zm6.747-1.15-.147-.06V11.209c0-2.332,0-4.743,0-7.115a2.229,2.229,0,0,1,.706-1.663c.153-.148.305-.3.453-.451s.326-.329.494-.489a.8.8,0,0,1,.215-.131c.033-.016.067-.031.1-.049l.042-.023.014.046c.012.035.027.07.041.1a.666.666,0,0,1,.068.248c.006,1.117.005,2.252.005,3.35v.89q0,.738,0,1.476c0,1.306,0,2.657.008,3.985a1.55,1.55,0,0,1-.478,1.224c-.361.347-.713.714-1.054,1.07-.148.154-.3.308-.445.46Zm-.067-.114.047.02.425-.441c.342-.356.695-.724,1.056-1.072a1.473,1.473,0,0,0,.454-1.166c-.012-1.329-.01-2.68-.008-3.986q0-.738,0-1.476v-.89c0-1.1,0-2.233-.005-3.35a.6.6,0,0,0-.061-.217c-.01-.023-.019-.045-.027-.067l-.062.029a.732.732,0,0,0-.2.117c-.167.159-.332.326-.492.487s-.3.3-.454.452A2.155,2.155,0,0,0,13.355,4.1c0,2.371,0,4.782,0,7.114ZM11.985,2.729h0q-4.911,0-9.821-.01c-.054,0-.108,0-.183-.009L1.824,2.7l-.09,0L2.2,2.235c.321-.314.623-.61.926-.9.05-.049.1-.1.148-.154A1.514,1.514,0,0,1,3.694.821,2.047,2.047,0,0,1,4.566.6C7.84.585,11.152.59,14.242.6a1.137,1.137,0,0,1,.344.073c.051.016.1.032.153.045l.053.013-.03.047c-.027.042-.053.086-.078.13a1.516,1.516,0,0,1-.195.283c-.184.2-.379.39-.567.577-.1.1-.2.192-.291.289A2.234,2.234,0,0,1,11.985,2.729Zm-10.068-.1.069,0c.076.005.126.009.177.009q4.909.006,9.821.01h0A2.157,2.157,0,0,0,13.575,2c.1-.1.193-.193.291-.29.188-.186.382-.378.565-.574a1.5,1.5,0,0,0,.184-.269c.017-.029.034-.058.052-.087q-.053-.015-.105-.033a1.089,1.089,0,0,0-.32-.069c-3.09-.007-6.4-.011-9.675,0a1.964,1.964,0,0,0-.838.212,1.473,1.473,0,0,0-.394.339c-.049.053-.1.107-.151.157-.3.294-.6.59-.926.9ZM7.334,7.732v.033a2.2,2.2,0,0,0-.679.3,2.044,2.044,0,0,0-.641.632,1.965,1.965,0,0,0-.3.957q.093-.066.213-.159c.1-.078.18-.132.228-.161a.782.782,0,0,1,.2-.077,1.07,1.07,0,0,1,.28-.033,1.026,1.026,0,0,1,.506.125.787.787,0,0,1,.336.366,1.328,1.328,0,0,1,.112.565,1.272,1.272,0,0,1-.222.764,1.415,1.415,0,0,1-.47.44,1.2,1.2,0,0,1-.571.133,1,1,0,0,1-.853-.412,1.76,1.76,0,0,1-.3-1.07,2.8,2.8,0,0,1,.127-.841,2.258,2.258,0,0,1,.387-.73,2.622,2.622,0,0,1,.663-.581,2.6,2.6,0,0,1,.8-.344ZM5.661,10.341a1.882,1.882,0,0,0,.078.535.824.824,0,0,0,.25.411.612.612,0,0,0,.405.144.653.653,0,0,0,.369-.112.685.685,0,0,0,.258-.351,1.441,1.441,0,0,0,.089-.5,1.212,1.212,0,0,0-.088-.475.724.724,0,0,0-.254-.325.663.663,0,0,0-.388-.116.745.745,0,0,0-.328.079.8.8,0,0,0-.253.18.478.478,0,0,0-.113.215A1.545,1.545,0,0,0,5.661,10.341Zm.659,1.313a1.039,1.039,0,0,1-.885-.427,1.8,1.8,0,0,1-.311-1.094,2.825,2.825,0,0,1,.129-.853,2.3,2.3,0,0,1,.393-.743,2.679,2.679,0,0,1,.673-.589,2.628,2.628,0,0,1,.807-.35l.013,0,.235.112V7.8L7.342,7.8a2.176,2.176,0,0,0-.666.293,2.01,2.01,0,0,0-.629.62,1.9,1.9,0,0,0-.287.851L5.9,9.462c.1-.079.182-.134.232-.164a.815.815,0,0,1,.2-.081,1.113,1.113,0,0,1,.291-.034,1.069,1.069,0,0,1,.525.129.829.829,0,0,1,.353.384,1.377,1.377,0,0,1,.116.582,1.318,1.318,0,0,1-.229.787,1.484,1.484,0,0,1-.484.452A1.244,1.244,0,0,1,6.32,11.654Zm.81-3.975a2.532,2.532,0,0,0-.768.336,2.6,2.6,0,0,0-.654.572,2.227,2.227,0,0,0-.38.717,2.761,2.761,0,0,0-.125.829,1.732,1.732,0,0,0,.3,1.047.964.964,0,0,0,.821.395,1.166,1.166,0,0,0,.553-.128,1.4,1.4,0,0,0,.456-.428,1.244,1.244,0,0,0,.214-.741,1.3,1.3,0,0,0-.108-.548.747.747,0,0,0-.32-.348.981.981,0,0,0-.486-.12,1.036,1.036,0,0,0-.27.032.712.712,0,0,0-.184.072c-.047.028-.123.082-.225.159-.08.061-.152.115-.214.159l-.069.049.006-.084a2.032,2.032,0,0,1,.307-.976,2.1,2.1,0,0,1,.654-.644,2.421,2.421,0,0,1,.627-.287Zm-.736,3.792a.654.654,0,0,1-.431-.154.867.867,0,0,1-.262-.429,1.936,1.936,0,0,1-.08-.547,1.621,1.621,0,0,1,.026-.327.521.521,0,0,1,.122-.233.838.838,0,0,1,.266-.19.791.791,0,0,1,.345-.083.7.7,0,0,1,.411.123.771.771,0,0,1,.268.343,1.266,1.266,0,0,1,.091.49,1.475,1.475,0,0,1-.092.518.741.741,0,0,1-.273.371A.7.7,0,0,1,6.394,11.471ZM6.38,9.588a.714.714,0,0,0-.311.075.744.744,0,0,0-.24.171.437.437,0,0,0-.1.2,1.616,1.616,0,0,0-.023.31,1.845,1.845,0,0,0,.076.524.776.776,0,0,0,.238.391.572.572,0,0,0,.379.136.621.621,0,0,0,.347-.106.655.655,0,0,0,.243-.332,1.407,1.407,0,0,0,.086-.49,1.185,1.185,0,0,0-.084-.459A.681.681,0,0,0,6.745,9.7.617.617,0,0,0,6.38,9.588Z" fill="none"/></svg>