<svg xmlns="http://www.w3.org/2000/svg" width="16" height="15.991" viewBox="0 0 16 15.991"><path d="M5.593,10.972a6.024,6.024,0,0,0-.184-.78l.014-.042.1-.038.039.019a2.113,2.113,0,0,0,.206.418.7.7,0,0,0,.316.253,1.118,1.118,0,0,0,.445.088.806.806,0,0,0,.48-.127.815.815,0,0,0,.274-.343,1.2,1.2,0,0,0,.1-.49.82.82,0,0,0-.191-.574.683.683,0,0,0-.529-.209.871.871,0,0,0-.207.022,2.444,2.444,0,0,0-.28.1l-.03-.028.06-.3c.149.009.248.013.3.013a.625.625,0,0,0,.51-.228A.816.816,0,0,0,7.2,8.187.6.6,0,0,0,7,7.731a.682.682,0,0,0-.485-.184.861.861,0,0,0-.359.077.933.933,0,0,0-.279.187c-.031.062-.081.185-.149.368L5.7,8.2H5.579l-.022-.025.165-.638a1.183,1.183,0,0,1,.932-.387,1.072,1.072,0,0,1,.725.238.754.754,0,0,1,.276.6.855.855,0,0,1-.162.5,1.875,1.875,0,0,1-.451.433,1,1,0,0,1,.669.285.816.816,0,0,1,.194.548,1.247,1.247,0,0,1-.478.95,1.624,1.624,0,0,1-1.1.422,1.606,1.606,0,0,1-.729-.16Zm.728.2a1.664,1.664,0,0,1-.744-.163L5.557,11l0-.022a6.12,6.12,0,0,0-.183-.775l0-.012.024-.071.135-.052.068.034.006.015a2.115,2.115,0,0,0,.2.41.658.658,0,0,0,.3.238,1.074,1.074,0,0,0,.429.085.777.777,0,0,0,.457-.119.785.785,0,0,0,.26-.327A1.159,1.159,0,0,0,7.34,9.93a.783.783,0,0,0-.181-.547.644.644,0,0,0-.5-.2.832.832,0,0,0-.2.021,2.062,2.062,0,0,0-.275.1l-.023.009L6.1,9.255,6.171,8.9l.035,0c.147.009.246.014.294.014A.582.582,0,0,0,6.979,8.7a.786.786,0,0,0,.18-.514.557.557,0,0,0-.184-.427.648.648,0,0,0-.458-.173.819.819,0,0,0-.343.073.927.927,0,0,0-.262.174c-.031.063-.079.184-.144.359l0,.009-.046.042H5.561L5.513,8.19l.173-.668.006-.007a1.227,1.227,0,0,1,.962-.4,1.113,1.113,0,0,1,.75.247A.8.8,0,0,1,7.7,7.99a.9.9,0,0,1-.17.527,1.843,1.843,0,0,1-.381.385.971.971,0,0,1,.6.284.858.858,0,0,1,.2.574,1.293,1.293,0,0,1-.492.98A1.671,1.671,0,0,1,6.321,11.172Zm-.692-.227a1.561,1.561,0,0,0,.692.147A1.591,1.591,0,0,0,7.4,10.68a1.213,1.213,0,0,0,.465-.92.782.782,0,0,0-.184-.523.989.989,0,0,0-.644-.271l-.1-.012.085-.06a1.792,1.792,0,0,0,.441-.423.816.816,0,0,0,.155-.481.712.712,0,0,0-.262-.568,1.036,1.036,0,0,0-.7-.228,1.15,1.15,0,0,0-.9.367l-.156.6h.086L5.7,8.156c.067-.181.115-.3.146-.363l.008-.01a.97.97,0,0,1,.29-.2.9.9,0,0,1,.376-.081.725.725,0,0,1,.512.2.641.641,0,0,1,.209.485.864.864,0,0,1-.2.565.667.667,0,0,1-.541.242c-.047,0-.133,0-.265-.011l-.047.236a2.007,2.007,0,0,1,.256-.089.948.948,0,0,1,.216-.023.721.721,0,0,1,.558.222.86.86,0,0,1,.2.6,1.245,1.245,0,0,1-.1.506.783.783,0,0,1-.79.494,1.16,1.16,0,0,1-.461-.092.731.731,0,0,1-.333-.267,2.094,2.094,0,0,1-.205-.411l-.009-.005-.068.026,0,.011A6,6,0,0,1,5.629,10.945Zm1.058,5c-1.608,0-3.216-.027-4.822.009A1.709,1.709,0,0,1,.044,14.128Q.08,9.435.04,4.741A2.445,2.445,0,0,1,.865,2.794c.756-.7,1.477-1.449,2.2-2.189A1.747,1.747,0,0,1,4.357.044q5-.007,10,0a1.583,1.583,0,0,1,1.6,1.609c.007,3.351,0,6.7,0,10.053a2.065,2.065,0,0,1-.821,1.473q-1.115,1.1-2.215,2.216a1.766,1.766,0,0,1-1.326.547C9.96,15.938,8.323,15.942,6.687,15.942Zm-.01-.59q2.456,0,4.91,0a1.021,1.021,0,0,0,1.138-1.127q.009-4.924,0-9.849a1.015,1.015,0,0,0-1.107-1.106q-4.924-.006-9.849,0A1.018,1.018,0,0,0,.646,4.415q0,4.9,0,9.791A1.028,1.028,0,0,0,1.8,15.352ZM1.826,2.659c.172.011.254.021.337.021q4.909.006,9.821.009A2.185,2.185,0,0,0,13.6,2.026c.286-.288.581-.568.857-.865a2.715,2.715,0,0,0,.269-.408,2.2,2.2,0,0,0-.487-.117Q9.4.626,4.567.64a2.024,2.024,0,0,0-.856.217,2.519,2.519,0,0,0-.555.5C2.73,1.774,2.306,2.19,1.826,2.659ZM13.317,14.075l.1.04c.5-.512.985-1.036,1.5-1.531a1.52,1.52,0,0,0,.466-1.2c-.016-1.821-.007-3.641-.006-5.462,0-1.413,0-2.827,0-4.24a1.209,1.209,0,0,0-.106-.341,1.405,1.405,0,0,0-.306.174c-.322.306-.626.631-.947.939A2.187,2.187,0,0,0,13.316,4.1q-.006,4.823,0,9.645Zm-11.5,1.916A1.781,1.781,0,0,1,.528,15.5,1.88,1.88,0,0,1,0,14.127C.03,10.744.029,7.674,0,4.741A2.469,2.469,0,0,1,.838,2.765C1.553,2.1,2.248,1.385,2.92.7L3.036.577A1.789,1.789,0,0,1,4.357.005c3.147,0,6.537-.008,10,0A1.615,1.615,0,0,1,16,1.655c0,2.174,0,4.385,0,6.522q0,1.765,0,3.531a2.117,2.117,0,0,1-.833,1.5c-.8.786-1.522,1.511-2.215,2.215a1.8,1.8,0,0,1-1.346.559H11.6c-1.178-.005-2.377,0-3.536,0q-1.407,0-2.814,0c-1.108-.006-2.254-.012-3.381.014ZM9.592.08c-1.8,0-3.55,0-5.235,0A1.721,1.721,0,0,0,3.092.632L2.977.751c-.673.69-1.368,1.4-2.085,2.072A2.4,2.4,0,0,0,.08,4.741c.029,2.932.03,6,0,9.387a1.8,1.8,0,0,0,.5,1.314,1.713,1.713,0,0,0,1.28.469c1.127-.025,2.274-.019,3.383-.014q1.407.007,2.813,0c1.16,0,2.358,0,3.537,0a1.717,1.717,0,0,0,1.3-.535c.693-.7,1.418-1.429,2.215-2.216a2.056,2.056,0,0,0,.809-1.445q0-1.765,0-3.531c0-2.137,0-4.348,0-6.522A1.538,1.538,0,0,0,14.354.085C12.746.081,11.153.08,9.592.08ZM9.54,15.392H1.8A1.07,1.07,0,0,1,.609,14.207q0-4.461,0-8.921V4.415A1.06,1.06,0,0,1,1.77,3.231c3.2-.006,6.519-.006,9.849,0a1.055,1.055,0,0,1,1.146,1.146c0,3.6,0,6.82,0,9.849a1.059,1.059,0,0,1-1.178,1.167Zm-2.863-.08H8.109q1.739,0,3.477,0a.979.979,0,0,0,1.1-1.088c.006-3.029.006-6.251,0-9.849a.972.972,0,0,0-1.067-1.066c-3.33-.005-6.644,0-9.849,0a.979.979,0,0,0-1.084,1.1v.871q0,4.46,0,8.92A.991.991,0,0,0,1.8,15.312h4.88Zm6.747-1.15-.147-.06V11.209c0-2.332,0-4.743,0-7.115a2.229,2.229,0,0,1,.706-1.663c.153-.148.305-.3.453-.451s.326-.329.494-.489a.8.8,0,0,1,.215-.131c.033-.016.067-.031.1-.049l.042-.023.014.046c.012.035.027.07.041.1a.666.666,0,0,1,.068.248c.006,1.117.005,2.252.005,3.35v.89q0,.738,0,1.476c0,1.306,0,2.657.008,3.985a1.55,1.55,0,0,1-.478,1.224c-.361.347-.713.714-1.054,1.07-.148.154-.3.308-.445.46Zm-.067-.114.047.02.425-.441c.342-.356.695-.724,1.056-1.072a1.473,1.473,0,0,0,.454-1.166c-.012-1.329-.01-2.68-.008-3.986q0-.738,0-1.476v-.89c0-1.1,0-2.233-.005-3.35a.6.6,0,0,0-.061-.217c-.01-.023-.019-.045-.027-.067l-.062.029a.732.732,0,0,0-.2.117c-.167.159-.332.326-.492.487s-.3.3-.454.452A2.155,2.155,0,0,0,13.355,4.1c0,2.371,0,4.782,0,7.114ZM11.985,2.729h0q-4.911,0-9.821-.01c-.054,0-.108,0-.183-.009L1.824,2.7l-.09,0L2.2,2.235c.321-.314.623-.61.926-.9.05-.049.1-.1.148-.154A1.514,1.514,0,0,1,3.694.821,2.047,2.047,0,0,1,4.566.6C7.84.585,11.152.59,14.242.6a1.137,1.137,0,0,1,.344.073c.051.016.1.032.153.045l.053.013-.03.047c-.027.042-.053.086-.078.13a1.516,1.516,0,0,1-.195.283c-.184.2-.379.39-.567.577-.1.1-.2.192-.291.289A2.234,2.234,0,0,1,11.985,2.729Zm-10.068-.1.069,0c.076.005.126.009.177.009q4.909.006,9.821.01h0A2.157,2.157,0,0,0,13.575,2c.1-.1.193-.193.291-.29.188-.186.382-.378.565-.574a1.5,1.5,0,0,0,.184-.269c.017-.029.034-.058.052-.087q-.053-.015-.105-.033a1.089,1.089,0,0,0-.32-.069c-3.09-.007-6.4-.011-9.675,0a1.964,1.964,0,0,0-.838.212,1.473,1.473,0,0,0-.394.339c-.049.053-.1.107-.151.157-.3.294-.6.59-.926.9Z" fill="none"/></svg>