<svg xmlns="http://www.w3.org/2000/svg" width="14.181" height="16" viewBox="0 0 14.181 16"><path d="M6.152,5.978,6.1,5.961l-.028-.229L6.1,5.7a6.965,6.965,0,0,0,.708-.26q.428-.18.612-.274L7.5,5.2Q7.45,6.422,7.45,6.669V7.706q0,.384.009.721a2.509,2.509,0,0,0,.025.4.176.176,0,0,0,.057.093.22.22,0,0,0,.113.044c.049.006.193.016.434.029l.019.022v.126l-.019.023q-.613-.022-.864-.023-.191,0-.932.023l-.019-.023V9.012L6.3,8.99q.42-.03.48-.045A.167.167,0,0,0,6.867,8.9a.288.288,0,0,0,.052-.132,5.268,5.268,0,0,0,.032-.579c.008-.321.012-.485.012-.493V6.59c0-.54,0-.834,0-.88s-.019-.07-.049-.07a.1.1,0,0,0-.03,0q-.019.006-.123.051l-.277.123C6.364,5.869,6.255,5.922,6.152,5.978ZM8.105,9.2H8.086c-.405-.015-.7-.023-.862-.023-.127,0-.44.008-.931.023H6.275l-.042-.048V9l.044-.045h.015c.344-.025.448-.037.474-.043a.138.138,0,0,0,.072-.038.258.258,0,0,0,.042-.113,5.513,5.513,0,0,0,.031-.572c.008-.319.013-.482.013-.492V6.59c0-.537,0-.832-.005-.878a.06.06,0,0,0-.007-.033l-.022,0a1.155,1.155,0,0,0-.118.048L6.5,5.855c-.114.05-.223.1-.324.158l-.016.008-.09-.03-.034-.274.049-.049.01,0a7.06,7.06,0,0,0,.7-.259c.283-.118.488-.21.61-.273l.016-.008.116.045V5.2c-.03.812-.045,1.306-.045,1.47V7.706c0,.254,0,.5.008.72a2.5,2.5,0,0,0,.024.387.151.151,0,0,0,.044.074.189.189,0,0,0,.094.034c.047.007.191.016.43.029h.017L8.147,9v.156ZM6.313,9.029V9.12c.479-.014.785-.022.911-.022.164,0,.448.008.843.022V9.029C7.834,9.016,7.7,9.007,7.649,9a.252.252,0,0,1-.133-.052.219.219,0,0,1-.071-.114,2.165,2.165,0,0,1-.026-.406C7.413,8.2,7.41,7.96,7.41,7.706V6.669c0-.163.015-.649.044-1.444l-.03-.012c-.124.064-.326.153-.6.268a6.9,6.9,0,0,1-.7.258l-.007.007.023.185.01,0c.1-.054.2-.1.315-.153l.276-.123a1.266,1.266,0,0,1,.129-.052A.146.146,0,0,1,6.91,5.6c.025,0,.083.01.089.107,0,.048,0,.337,0,.883v1.1c0,.006,0,.07-.012.494a5.25,5.25,0,0,1-.033.585.316.316,0,0,1-.062.152.207.207,0,0,1-.112.061c-.042.01-.2.025-.471.045Zm7.824-1.158c0,1.118-.008,2.236,0,3.354A1.171,1.171,0,0,1,13.5,12.35q-3.054,1.749-6.1,3.519a.536.536,0,0,1-.6,0Q3.728,14.09.65,12.314C-.3,11.754.174,10.479.066,9.571V5.046c.017-.5-.123-1.131.414-1.405Q1.705,2.923,2.934,2.21c5.677-3.3,3.331-2.554,9.037.4.681.547,2.168.8,2.171,1.815C14.13,5.574,14.137,6.723,14.137,7.871ZM13.492,11.6,7.106.538.721,11.6ZM.534,10.869l.066.006L6.41.81c-1.89.884-3.655,2.1-5.5,3.1C.144,4.025.7,9.771.534,10.869ZM1.2,12.083c1.806,1.093,3.647,2.1,5.463,3.171a.79.79,0,0,0,.878,0c1.8-1.054,3.62-2.083,5.421-3.137l-.014-.037ZM7.845.77,7.8.814l5.84,10.115c.068-2.152,0-4.3.024-6.455a.57.57,0,0,0-.316-.521C11.516,2.893,9.686,1.823,7.845.77ZM7.11,16a.642.642,0,0,1-.324-.1L4.077,14.339.63,12.348c-.7-.41-.653-1.181-.608-1.927a5,5,0,0,0,.005-.846V5.046c0-.094,0-.19,0-.292C.014,4.325,0,3.839.462,3.605c.719-.421,1.574-.922,2.452-1.43.522-.3.975-.572,1.374-.809C7.185-.353,7.185-.353,9.01.828a32.683,32.683,0,0,0,2.98,1.747,4.356,4.356,0,0,0,.813.463c.677.327,1.376.666,1.378,1.388-.008.819-.006,1.652,0,2.457q0,.5,0,.988h0c0,.315,0,.63,0,.945,0,.79,0,1.606,0,2.409a1.208,1.208,0,0,1-.657,1.16c-2.265,1.3-4.168,2.392-6.1,3.518A.6.6,0,0,1,7.11,16ZM7.212.087c-.613,0-1.32.42-2.883,1.347-.4.237-.853.506-1.375.81C2.077,2.752,1.221,3.253.5,3.675c-.416.212-.406.652-.4,1.078,0,.1.005.2,0,.294V9.571a4.884,4.884,0,0,1,0,.854c-.043.722-.088,1.469.568,1.854L4.117,14.27l2.709,1.564a.492.492,0,0,0,.56,0c1.929-1.126,3.832-2.221,6.1-3.519a1.135,1.135,0,0,0,.617-1.09c-.008-.8-.006-1.619,0-2.409,0-.315,0-.63,0-.945s0-.658,0-.988c0-.8,0-1.638.006-2.457,0-.672-.679-1-1.334-1.316a4.468,4.468,0,0,1-.822-.468A32.824,32.824,0,0,1,8.966.9,3.507,3.507,0,0,0,7.212.087Zm-.1,15.341a.909.909,0,0,1-.463-.14c-.788-.466-1.594-.926-2.374-1.372-1.016-.58-2.067-1.18-3.09-1.8l-.122-.074H12.977l.036.094-.03.017c-.933.546-1.886,1.1-2.807,1.625-.858.494-1.745,1-2.614,1.512A.891.891,0,0,1,7.107,15.428ZM1.344,12.123c.983.592,1.99,1.167,2.965,1.724.78.446,1.587.906,2.376,1.373a.749.749,0,0,0,.837,0c.869-.508,1.756-1.018,2.614-1.512.9-.518,1.83-1.053,2.743-1.587Zm12.217-.485H.652L7.106.458ZM.79,11.558H13.423L7.106.618Zm12.889-.488L7.754.808,7.838.72l.027.015c1.19.681,2.395,1.38,3.56,2.056l1.947,1.128a.611.611,0,0,1,.336.555c-.009.854,0,1.722,0,2.561.008,1.276.016,2.6-.026,3.895ZM7.854.821l5.754,9.966c.036-1.252.029-2.522.022-3.751-.005-.84-.011-1.708,0-2.563a.53.53,0,0,0-.3-.485q-.974-.562-1.947-1.128C10.229,2.189,9.034,1.5,7.854.821ZM.622,10.917l-.133-.012L.5,10.863a20.094,20.094,0,0,0,0-2.269C.417,5.977.4,3.966.892,3.871c.739-.4,1.477-.839,2.191-1.266A37.653,37.653,0,0,1,6.393.774L6.508.72ZM6.312.9c-1.09.519-2.156,1.157-3.188,1.774-.716.428-1.457.871-2.2,1.271l-.013,0C.44,4.021.516,6.663.573,8.591A22.258,22.258,0,0,1,.58,10.83Z" fill="none"/></svg>