<svg xmlns="http://www.w3.org/2000/svg" width="14.181" height="16" viewBox="0 0 14.181 16"><path d="M14.137,7.871c0,1.118-.008,2.236,0,3.354A1.171,1.171,0,0,1,13.5,12.35q-3.054,1.749-6.1,3.519a.536.536,0,0,1-.6,0Q3.728,14.09.65,12.314C-.3,11.754.174,10.479.066,9.571V5.046c.017-.5-.123-1.131.414-1.405Q1.705,2.923,2.934,2.21c5.677-3.3,3.331-2.554,9.037.4.681.547,2.168.8,2.171,1.815C14.13,5.574,14.137,6.723,14.137,7.871ZM13.492,11.6,7.106.538.721,11.6ZM.534,10.869l.066.006L6.41.81c-1.89.884-3.655,2.1-5.5,3.1C.144,4.025.7,9.771.534,10.869ZM1.2,12.083c1.806,1.093,3.647,2.1,5.463,3.171a.79.79,0,0,0,.878,0c1.8-1.054,3.62-2.083,5.421-3.137l-.014-.037ZM7.845.77,7.8.814l5.84,10.115c.068-2.152,0-4.3.024-6.455a.57.57,0,0,0-.316-.521C11.516,2.893,9.686,1.823,7.845.77ZM7.11,16a.642.642,0,0,1-.324-.1L4.077,14.339.63,12.348c-.7-.41-.653-1.181-.608-1.927a5,5,0,0,0,.005-.846V5.046c0-.094,0-.19,0-.292C.014,4.325,0,3.839.462,3.605c.719-.421,1.574-.922,2.452-1.43.522-.3.975-.572,1.374-.809C7.185-.353,7.185-.353,9.01.828a32.683,32.683,0,0,0,2.98,1.747,4.356,4.356,0,0,0,.813.463c.677.327,1.376.666,1.378,1.388-.008.819-.006,1.652,0,2.457q0,.5,0,.988h0c0,.315,0,.63,0,.945,0,.79,0,1.606,0,2.409a1.208,1.208,0,0,1-.657,1.16c-2.265,1.3-4.168,2.392-6.1,3.518A.6.6,0,0,1,7.11,16ZM7.212.087c-.613,0-1.32.42-2.883,1.347-.4.237-.853.506-1.375.81C2.077,2.752,1.221,3.253.5,3.675c-.416.212-.406.652-.4,1.078,0,.1.005.2,0,.294V9.571a4.884,4.884,0,0,1,0,.854c-.043.722-.088,1.469.568,1.854L4.117,14.27l2.709,1.564a.492.492,0,0,0,.56,0c1.929-1.126,3.832-2.221,6.1-3.519a1.135,1.135,0,0,0,.617-1.09c-.008-.8-.006-1.619,0-2.409,0-.315,0-.63,0-.945s0-.658,0-.988c0-.8,0-1.638.006-2.457,0-.672-.679-1-1.334-1.316a4.468,4.468,0,0,1-.822-.468A32.824,32.824,0,0,1,8.966.9,3.507,3.507,0,0,0,7.212.087Zm-.1,15.341a.909.909,0,0,1-.463-.14c-.788-.466-1.594-.926-2.374-1.372-1.016-.58-2.067-1.18-3.09-1.8l-.122-.074H12.977l.036.094-.03.017c-.933.546-1.886,1.1-2.807,1.625-.858.494-1.745,1-2.614,1.512A.891.891,0,0,1,7.107,15.428ZM1.344,12.123c.983.592,1.99,1.167,2.965,1.724.78.446,1.587.906,2.376,1.373a.749.749,0,0,0,.837,0c.869-.508,1.756-1.018,2.614-1.512.9-.518,1.83-1.053,2.743-1.587Zm12.217-.485H.652L7.106.458ZM.79,11.558H13.423L7.106.618Zm12.889-.488L7.754.808,7.838.72l.027.015c1.19.681,2.395,1.38,3.56,2.056l1.947,1.128a.611.611,0,0,1,.336.555c-.009.854,0,1.722,0,2.561.008,1.276.016,2.6-.026,3.895ZM7.854.821l5.754,9.966c.036-1.252.029-2.522.022-3.751-.005-.84-.011-1.708,0-2.563a.53.53,0,0,0-.3-.485q-.974-.562-1.947-1.128C10.229,2.189,9.034,1.5,7.854.821ZM.622,10.917l-.133-.012L.5,10.863a20.094,20.094,0,0,0,0-2.269C.417,5.977.4,3.966.892,3.871c.739-.4,1.477-.839,2.191-1.266A37.653,37.653,0,0,1,6.393.774L6.508.72ZM6.312.9c-1.09.519-2.156,1.157-3.188,1.774-.716.428-1.457.871-2.2,1.271l-.013,0C.44,4.021.516,6.663.573,8.591A22.258,22.258,0,0,1,.58,10.83ZM5.9,9.4,5.844,9.34c.068-.1.208-.322.422-.658l.519-.828.487-.8L7.7,6.327q.137-.239.216-.386l-.029-.028H7.006c-.221,0-.418,0-.59.011a1.283,1.283,0,0,0-.3.033.137.137,0,0,0-.064.052.888.888,0,0,0-.041.216l-.051.4-.026.023H5.812l-.025-.023L5.8,5.848c0-.089,0-.226-.014-.411l.057-.029c.1.012.315.024.633.037s.532.02.639.02q.576,0,1.256-.04l.023.023V5.6l-.409.723q-.37.663-.847,1.572a14.121,14.121,0,0,0-.7,1.487L6.416,9.4c-.108-.009-.189-.014-.244-.014C6.085,9.385,6,9.39,5.9,9.4Zm-.015.042-.1-.1.018-.027c.068-.1.209-.322.422-.657l.519-.828.487-.8.425-.73c.08-.142.147-.26.2-.354H7.006c-.219,0-.417,0-.588.011a1.171,1.171,0,0,0-.288.029.109.109,0,0,0-.047.036.926.926,0,0,0-.035.2L6,6.644l-.048.043H5.8l-.05-.045.014-.795c0-.086,0-.224-.014-.408V5.413l.09-.046.012,0c.1.011.315.023.631.036s.53.02.637.02c.382,0,.8-.013,1.254-.04h.017l.048.047v.175l-.414.732c-.246.439-.531.967-.847,1.57a14.2,14.2,0,0,0-.692,1.483l0,.01-.049.039H6.413c-.106-.009-.187-.014-.241-.014-.085,0-.174,0-.265.014Zm.284-.1c.053,0,.131,0,.232.013l.007-.006A14.493,14.493,0,0,1,7.1,7.871c.316-.6.6-1.132.848-1.572l.4-.714V5.466c-.445.026-.861.039-1.239.039-.108,0-.324-.007-.641-.02s-.516-.025-.624-.036l-.023.012c.009.174.013.3.013.387l-.014.759h0l.091,0,.049-.385a.708.708,0,0,1,.047-.23A.169.169,0,0,1,6.1,5.921a1.03,1.03,0,0,1,.318-.037c.173-.007.372-.011.592-.011H7.9l.061.061-.014.026c-.053.1-.126.229-.216.386l-.425.732-.488.8L6.3,8.7c-.2.313-.332.52-.405.632l.023.023A2.47,2.47,0,0,1,6.172,9.345Z" fill="none"/></svg>