<svg xmlns="http://www.w3.org/2000/svg" width="14.181" height="16" viewBox="0 0 14.181 16"><path d="M14.137,7.871c0,1.118-.008,2.236,0,3.354A1.171,1.171,0,0,1,13.5,12.35q-3.054,1.749-6.1,3.519a.536.536,0,0,1-.6,0Q3.728,14.09.65,12.314C-.3,11.754.174,10.479.066,9.571V5.046c.017-.5-.123-1.131.414-1.405Q1.705,2.923,2.934,2.21c5.677-3.3,3.331-2.554,9.037.4.681.547,2.168.8,2.171,1.815C14.13,5.574,14.137,6.723,14.137,7.871ZM13.492,11.6,7.106.538.721,11.6ZM.534,10.869l.066.006L6.41.81c-1.89.884-3.655,2.1-5.5,3.1C.144,4.025.7,9.771.534,10.869ZM1.2,12.083c1.806,1.093,3.647,2.1,5.463,3.171a.79.79,0,0,0,.878,0c1.8-1.054,3.62-2.083,5.421-3.137l-.014-.037ZM7.845.77,7.8.814l5.84,10.115c.068-2.152,0-4.3.024-6.455a.57.57,0,0,0-.316-.521C11.516,2.893,9.686,1.823,7.845.77ZM7.11,16a.642.642,0,0,1-.324-.1L4.077,14.339.63,12.348c-.7-.41-.653-1.181-.608-1.927a5,5,0,0,0,.005-.846V5.046c0-.094,0-.19,0-.292C.014,4.325,0,3.839.462,3.605c.719-.421,1.574-.922,2.452-1.43.522-.3.975-.572,1.374-.809C7.185-.353,7.185-.353,9.01.828a32.683,32.683,0,0,0,2.98,1.747,4.356,4.356,0,0,0,.813.463c.677.327,1.376.666,1.378,1.388-.008.819-.006,1.652,0,2.457q0,.5,0,.988h0c0,.315,0,.63,0,.945,0,.79,0,1.606,0,2.409a1.208,1.208,0,0,1-.657,1.16c-2.265,1.3-4.168,2.392-6.1,3.518A.6.6,0,0,1,7.11,16ZM7.212.087c-.613,0-1.32.42-2.883,1.347-.4.237-.853.506-1.375.81C2.077,2.752,1.221,3.253.5,3.675c-.416.212-.406.652-.4,1.078,0,.1.005.2,0,.294V9.571a4.884,4.884,0,0,1,0,.854c-.043.722-.088,1.469.568,1.854L4.117,14.27l2.709,1.564a.492.492,0,0,0,.56,0c1.929-1.126,3.832-2.221,6.1-3.519a1.135,1.135,0,0,0,.617-1.09c-.008-.8-.006-1.619,0-2.409,0-.315,0-.63,0-.945s0-.658,0-.988c0-.8,0-1.638.006-2.457,0-.672-.679-1-1.334-1.316a4.468,4.468,0,0,1-.822-.468A32.824,32.824,0,0,1,8.966.9,3.507,3.507,0,0,0,7.212.087Zm-.1,15.341a.909.909,0,0,1-.463-.14c-.788-.466-1.594-.926-2.374-1.372-1.016-.58-2.067-1.18-3.09-1.8l-.122-.074H12.977l.036.094-.03.017c-.933.546-1.886,1.1-2.807,1.625-.858.494-1.745,1-2.614,1.512A.891.891,0,0,1,7.107,15.428ZM1.344,12.123c.983.592,1.99,1.167,2.965,1.724.78.446,1.587.906,2.376,1.373a.749.749,0,0,0,.837,0c.869-.508,1.756-1.018,2.614-1.512.9-.518,1.83-1.053,2.743-1.587Zm12.217-.485H.652L7.106.458ZM.79,11.558H13.423L7.106.618Zm12.889-.488L7.754.808,7.838.72l.027.015c1.19.681,2.395,1.38,3.56,2.056l1.947,1.128a.611.611,0,0,1,.336.555c-.009.854,0,1.722,0,2.561.008,1.276.016,2.6-.026,3.895ZM7.854.821l5.754,9.966c.036-1.252.029-2.522.022-3.751-.005-.84-.011-1.708,0-2.563a.53.53,0,0,0-.3-.485q-.974-.562-1.947-1.128C10.229,2.189,9.034,1.5,7.854.821ZM.622,10.917l-.133-.012L.5,10.863a20.094,20.094,0,0,0,0-2.269C.417,5.977.4,3.966.892,3.871c.739-.4,1.477-.839,2.191-1.266A37.653,37.653,0,0,1,6.393.774L6.508.72ZM6.312.9c-1.09.519-2.156,1.157-3.188,1.774-.716.428-1.457.871-2.2,1.271l-.013,0C.44,4.021.516,6.663.573,8.591A22.258,22.258,0,0,1,.58,10.83Zm.307,7.148a1.369,1.369,0,0,1-.468-.376.829.829,0,0,1-.16-.515.981.981,0,0,1,.314-.729,1.175,1.175,0,0,1,.855-.3,1.338,1.338,0,0,1,.51.1.77.77,0,0,1,.362.286.744.744,0,0,1,.128.423.827.827,0,0,1-.15.468,1.674,1.674,0,0,1-.53.454v.025a3.8,3.8,0,0,1,.481.264.816.816,0,0,1,.257.293.876.876,0,0,1,.1.426,1.178,1.178,0,0,1-.19.635,1.25,1.25,0,0,1-.5.462,1.4,1.4,0,0,1-.645.159,1.188,1.188,0,0,1-.8-.272.909.909,0,0,1-.317-.725.965.965,0,0,1,.218-.632,1.513,1.513,0,0,1,.538-.413Zm.225.1a1.227,1.227,0,0,0-.456.418,1,1,0,0,0-.128.507.85.85,0,0,0,.223.624.765.765,0,0,0,.572.226.859.859,0,0,0,.433-.111.708.708,0,0,0,.29-.3.933.933,0,0,0,.1-.421.617.617,0,0,0-.229-.511A3.743,3.743,0,0,0,6.844,8.148Zm.422-.366a1.142,1.142,0,0,0,.4-.374A.8.8,0,0,0,7.774,7a.688.688,0,0,0-.183-.5A.66.66,0,0,0,7.1,6.313a.731.731,0,0,0-.489.165.575.575,0,0,0-.194.462.629.629,0,0,0,.126.391A2.33,2.33,0,0,0,7.266,7.782Zm-.284,2.373a1.229,1.229,0,0,1-.828-.282.95.95,0,0,1-.331-.755,1.009,1.009,0,0,1,.227-.657,1.541,1.541,0,0,1,.506-.4A1.379,1.379,0,0,1,6.119,7.7a.87.87,0,0,1-.168-.539A1.025,1.025,0,0,1,6.277,6.4a1.221,1.221,0,0,1,.883-.315,1.374,1.374,0,0,1,.525.1.812.812,0,0,1,.38.3.781.781,0,0,1,.135.446.871.871,0,0,1-.157.49,1.638,1.638,0,0,1-.5.442,3.6,3.6,0,0,1,.444.246.875.875,0,0,1,.269.307.92.92,0,0,1,.105.445,1.226,1.226,0,0,1-.2.656,1.3,1.3,0,0,1-.517.477A1.45,1.45,0,0,1,6.982,10.155ZM7.16,6.164a1.14,1.14,0,0,0-.827.293.941.941,0,0,0-.3.7.8.8,0,0,0,.152.491,1.353,1.353,0,0,0,.454.365l.022.011V8.1l-.024.011a1.468,1.468,0,0,0-.523.4.929.929,0,0,0-.209.607.872.872,0,0,0,.3.694,1.154,1.154,0,0,0,.776.263,1.376,1.376,0,0,0,.627-.154,1.228,1.228,0,0,0,.485-.448,1.147,1.147,0,0,0,.184-.614.849.849,0,0,0-.1-.407.782.782,0,0,0-.244-.279,3.82,3.82,0,0,0-.477-.261L7.44,7.9V7.829l.019-.012a1.657,1.657,0,0,0,.518-.442.794.794,0,0,0,.143-.446A.706.706,0,0,0,8,6.528a.733.733,0,0,0-.344-.271A1.3,1.3,0,0,0,7.16,6.164Zm-.105,3.8a.808.808,0,0,1-.6-.238.894.894,0,0,1-.234-.652,1.046,1.046,0,0,1,.133-.526,1.281,1.281,0,0,1,.47-.433l.018-.01.018.008a3.751,3.751,0,0,1,.811.433.659.659,0,0,1,.244.542.986.986,0,0,1-.1.439.751.751,0,0,1-.306.321A.9.9,0,0,1,7.055,9.963Zm-.208-1.77a1.175,1.175,0,0,0-.424.393.96.96,0,0,0-.123.487.818.818,0,0,0,.211.6.734.734,0,0,0,.544.214.814.814,0,0,0,.413-.106.665.665,0,0,0,.274-.287.894.894,0,0,0,.092-.4.577.577,0,0,0-.214-.48A3.7,3.7,0,0,0,6.847,8.193Zm.421-.366-.02-.009a2.3,2.3,0,0,1-.737-.463.662.662,0,0,1-.135-.415.617.617,0,0,1,.208-.493A.777.777,0,0,1,7.1,6.273a.7.7,0,0,1,.52.2.73.73,0,0,1,.2.533.85.85,0,0,1-.111.424,1.187,1.187,0,0,1-.416.388ZM7.1,6.353a.694.694,0,0,0-.463.155.533.533,0,0,0-.18.432.588.588,0,0,0,.118.366,2.235,2.235,0,0,0,.689.43,1.1,1.1,0,0,0,.371-.347A.784.784,0,0,0,7.734,7a.652.652,0,0,0-.172-.477A.621.621,0,0,0,7.1,6.353Z" fill="none"/></svg>