<svg xmlns="http://www.w3.org/2000/svg" width="14.184" height="16" viewBox="0 0 14.184 16"><path d="M14.134,7.878c0,1.118-.008,2.236,0,3.354A1.168,1.168,0,0,1,13.5,12.35Q10.446,14.1,7.4,15.869a.538.538,0,0,1-.6,0Q3.728,14.09.65,12.314c-.95-.56-.476-1.835-.584-2.743V5.046c.017-.5-.123-1.131.414-1.405Q1.705,2.923,2.934,2.21c5.677-3.3,3.331-2.554,9.037.4.681.547,2.168.8,2.171,1.815-.012,1.149,0,2.3,0,3.446ZM13.492,11.6,7.106.538.721,11.6ZM.534,10.869l.066.006L6.41.81c-1.89.884-3.655,2.1-5.5,3.1C.144,4.025.7,9.771.534,10.869ZM1.2,12.083c1.806,1.093,3.647,2.1,5.463,3.171a.789.789,0,0,0,.878,0c1.8-1.054,3.62-2.083,5.421-3.137l-.014-.037ZM7.845.77,7.8.814l5.84,10.115c.068-2.152,0-4.3.024-6.455a.567.567,0,0,0-.316-.521C11.516,2.893,9.686,1.823,7.845.77ZM7.11,16a.645.645,0,0,1-.324-.1L4.077,14.339.63,12.348c-.7-.41-.653-1.181-.608-1.927a4.878,4.878,0,0,0,.005-.846V4.754C.014,4.325,0,3.839.462,3.605c.719-.421,1.574-.922,2.452-1.43.522-.3.975-.572,1.374-.809C7.185-.353,7.185-.353,9.01.828a32.777,32.777,0,0,0,2.98,1.747,4.418,4.418,0,0,0,.813.463c.677.327,1.376.666,1.378,1.388-.008.819-.006,1.652,0,2.457v.988h0v3.354a1.207,1.207,0,0,1-.657,1.16c-2.265,1.3-4.168,2.392-6.1,3.518A.6.6,0,0,1,7.11,16ZM7.212.087c-.613,0-1.32.42-2.883,1.347-.4.237-.853.506-1.375.81C2.077,2.752,1.221,3.253.5,3.675c-.416.212-.406.652-.4,1.078,0,.1,0,.2,0,.294V9.571a4.871,4.871,0,0,1,0,.854c-.043.722-.088,1.469.568,1.854L4.117,14.27l2.709,1.564a.491.491,0,0,0,.56,0c1.929-1.126,3.832-2.221,6.1-3.519a1.134,1.134,0,0,0,.617-1.09c-.008-.8-.006-1.619,0-2.409V6.883c0-.8,0-1.638.006-2.457,0-.672-.679-1-1.334-1.316a4.515,4.515,0,0,1-.822-.468A32.981,32.981,0,0,1,8.966.9,3.5,3.5,0,0,0,7.212.087Zm-.1,15.341a.906.906,0,0,1-.463-.14c-.788-.466-1.594-.926-2.374-1.372-1.016-.58-2.067-1.18-3.09-1.8l-.122-.074H12.977l.036.094-.03.017c-.933.546-1.886,1.1-2.807,1.625-.858.494-1.745,1-2.614,1.512a.892.892,0,0,1-.455.138ZM1.344,12.123c.983.592,1.99,1.167,2.965,1.724.78.446,1.587.906,2.376,1.373a.751.751,0,0,0,.837,0c.869-.508,1.756-1.018,2.614-1.512.9-.518,1.83-1.053,2.743-1.587Zm12.217-.485H.652L7.106.458ZM.79,11.558H13.423L7.106.618Zm12.889-.488L7.754.808,7.838.72l.027.015c1.19.681,2.395,1.38,3.56,2.056l1.947,1.128a.608.608,0,0,1,.336.555c-.009.854,0,1.722,0,2.561.008,1.276.016,2.6-.026,3.895ZM7.854.821l5.754,9.966c.036-1.252.029-2.522.022-3.751-.005-.84-.011-1.708,0-2.563a.529.529,0,0,0-.3-.485q-.974-.562-1.947-1.128C10.229,2.189,9.034,1.5,7.854.821ZM.622,10.917l-.133-.012L.5,10.863a19.971,19.971,0,0,0,0-2.269C.417,5.977.4,3.966.892,3.871c.739-.4,1.477-.839,2.191-1.266A37.681,37.681,0,0,1,6.393.774L6.508.72ZM6.312.9c-1.09.519-2.156,1.157-3.188,1.774-.716.428-1.457.871-2.2,1.271H.911C.44,4.021.516,6.663.573,8.591A22,22,0,0,1,.58,10.83ZM6.1,9.52a6.108,6.108,0,0,0-.185-.786l.013-.042.1-.039.039.02a2.144,2.144,0,0,0,.207.421.706.706,0,0,0,.319.255,1.131,1.131,0,0,0,.449.088.816.816,0,0,0,.483-.127A.835.835,0,0,0,7.8,8.964a1.22,1.22,0,0,0,.1-.494.825.825,0,0,0-.193-.579.686.686,0,0,0-.533-.21.873.873,0,0,0-.208.022,2.25,2.25,0,0,0-.282.1l-.031-.028.061-.3c.15.009.249.014.3.014a.632.632,0,0,0,.514-.23.823.823,0,0,0,.19-.543.605.605,0,0,0-.2-.46.691.691,0,0,0-.489-.185.859.859,0,0,0-.362.077.961.961,0,0,0-.281.189c-.031.062-.081.186-.149.371l-.028.025H6.086l-.022-.025.166-.643a1.19,1.19,0,0,1,.939-.391,1.078,1.078,0,0,1,.73.24.762.762,0,0,1,.279.6.862.862,0,0,1-.164.508,1.845,1.845,0,0,1-.454.436,1.025,1.025,0,0,1,.675.287.823.823,0,0,1,.2.553,1.259,1.259,0,0,1-.482.957,1.637,1.637,0,0,1-1.114.425,1.865,1.865,0,0,1-.352-.032A1.806,1.806,0,0,1,6.1,9.52Z" fill="none"/></svg>