<svg xmlns="http://www.w3.org/2000/svg" width="14.181" height="16" viewBox="0 0 14.181 16"><path d="M5.824,9.279,5.79,9.251v-.13l.945-1a4.782,4.782,0,0,0,.757-.957,1.41,1.41,0,0,0,.172-.632.82.82,0,0,0-.209-.573.729.729,0,0,0-.565-.228,1.033,1.033,0,0,0-.4.07.5.5,0,0,0-.227.158,2.409,2.409,0,0,0-.168.491l-.025.023H5.956l-.028-.025c.043-.254.073-.506.09-.754a1.305,1.305,0,0,1,.5-.332A1.6,1.6,0,0,1,7,5.288a1.5,1.5,0,0,1,.573.113.956.956,0,0,1,.44.366,1.037,1.037,0,0,1,.167.585,1.367,1.367,0,0,1-.1.5,1.835,1.835,0,0,1-.285.482,7.525,7.525,0,0,1-.512.558l-.881.9H7.514a8.378,8.378,0,0,0,.855-.036l.02.022a1.533,1.533,0,0,0-.017.251,1.172,1.172,0,0,0,.017.223l-.02.031c-.135-.007-.343-.014-.623-.019s-.466-.009-.556-.009q-.275,0-.737.007T5.824,9.279Zm-.013.041L5.75,9.27V9.105l.956-1.013a4.776,4.776,0,0,0,.75-.948,1.375,1.375,0,0,0,.168-.614.781.781,0,0,0-.2-.546.689.689,0,0,0-.535-.215.988.988,0,0,0-.382.067.457.457,0,0,0-.209.143,2.108,2.108,0,0,0-.163.48l0,.011-.046.041H5.941l-.056-.05,0-.022c.042-.252.073-.5.089-.75V5.674l.011-.011A1.363,1.363,0,0,1,6.5,5.322,1.644,1.644,0,0,1,7,5.248a1.534,1.534,0,0,1,.588.116.993.993,0,0,1,.458.381,1.083,1.083,0,0,1,.174.607,1.4,1.4,0,0,1-.1.513,1.857,1.857,0,0,1-.291.493,7.232,7.232,0,0,1-.515.561l-.814.829h1.02a8.307,8.307,0,0,0,.851-.036l.021,0,.046.052,0,.019a1.571,1.571,0,0,0-.016.244,1.178,1.178,0,0,0,.016.215l0,.016L8.39,9.32H8.367c-.133-.007-.343-.014-.622-.02s-.465-.008-.555-.008c-.185,0-.433,0-.736.007s-.518.012-.627.021Zm.019-.088.007.006c.115-.009.322-.015.615-.02S7,9.211,7.19,9.211c.09,0,.278,0,.556.009s.465.011.6.018a1.231,1.231,0,0,1-.015-.213,1.651,1.651,0,0,1,.014-.231c-.224.023-.5.034-.832.034H6.3l.947-.965a7.282,7.282,0,0,0,.51-.555,1.786,1.786,0,0,0,.279-.472,1.327,1.327,0,0,0,.1-.484,1,1,0,0,0-.16-.563.918.918,0,0,0-.422-.351A1.457,1.457,0,0,0,7,5.328a1.58,1.58,0,0,0-.469.07,1.25,1.25,0,0,0-.469.312c-.017.236-.046.479-.086.721h.086l0,0a2.252,2.252,0,0,1,.17-.491.532.532,0,0,1,.245-.173,1.088,1.088,0,0,1,.413-.073.768.768,0,0,1,.594.241.861.861,0,0,1,.22.6,1.458,1.458,0,0,1-.177.651,4.868,4.868,0,0,1-.763.966l-.934.99Zm8.307-1.361c0,1.118-.008,2.236,0,3.354A1.171,1.171,0,0,1,13.5,12.35q-3.054,1.749-6.1,3.519a.536.536,0,0,1-.6,0Q3.728,14.09.65,12.314C-.3,11.754.174,10.479.066,9.571V5.046c.017-.5-.123-1.131.414-1.405Q1.705,2.923,2.934,2.21c5.677-3.3,3.331-2.554,9.037.4.681.547,2.168.8,2.171,1.815C14.13,5.574,14.137,6.723,14.137,7.871ZM13.492,11.6,7.106.538.721,11.6ZM.534,10.869l.066.006L6.41.81c-1.89.884-3.655,2.1-5.5,3.1C.144,4.025.7,9.771.534,10.869ZM1.2,12.083c1.806,1.093,3.647,2.1,5.463,3.171a.79.79,0,0,0,.878,0c1.8-1.054,3.62-2.083,5.421-3.137l-.014-.037ZM7.845.77,7.8.814l5.84,10.115c.068-2.152,0-4.3.024-6.455a.57.57,0,0,0-.316-.521C11.516,2.893,9.686,1.823,7.845.77ZM7.11,16a.642.642,0,0,1-.324-.1L4.077,14.339.63,12.348c-.7-.41-.653-1.181-.608-1.927a5,5,0,0,0,.005-.846V5.046c0-.094,0-.19,0-.292C.014,4.325,0,3.839.462,3.605c.719-.421,1.574-.922,2.452-1.43.522-.3.975-.572,1.374-.809C7.185-.353,7.185-.353,9.01.828a32.683,32.683,0,0,0,2.98,1.747,4.356,4.356,0,0,0,.813.463c.677.327,1.376.666,1.378,1.388-.008.819-.006,1.652,0,2.457q0,.5,0,.988h0c0,.315,0,.63,0,.945,0,.79,0,1.606,0,2.409a1.208,1.208,0,0,1-.657,1.16c-2.265,1.3-4.168,2.392-6.1,3.518A.6.6,0,0,1,7.11,16ZM7.212.087c-.613,0-1.32.42-2.883,1.347-.4.237-.853.506-1.375.81C2.077,2.752,1.221,3.253.5,3.675c-.416.212-.406.652-.4,1.078,0,.1.005.2,0,.294V9.571a4.884,4.884,0,0,1,0,.854c-.043.722-.088,1.469.568,1.854L4.117,14.27l2.709,1.564a.492.492,0,0,0,.56,0c1.929-1.126,3.832-2.221,6.1-3.519a1.135,1.135,0,0,0,.617-1.09c-.008-.8-.006-1.619,0-2.409,0-.315,0-.63,0-.945s0-.658,0-.988c0-.8,0-1.638.006-2.457,0-.672-.679-1-1.334-1.316a4.468,4.468,0,0,1-.822-.468A32.824,32.824,0,0,1,8.966.9,3.507,3.507,0,0,0,7.212.087Zm-.1,15.341a.909.909,0,0,1-.463-.14c-.788-.466-1.594-.926-2.374-1.372-1.016-.58-2.067-1.18-3.09-1.8l-.122-.074H12.977l.036.094-.03.017c-.933.546-1.886,1.1-2.807,1.625-.858.494-1.745,1-2.614,1.512A.891.891,0,0,1,7.107,15.428ZM1.344,12.123c.983.592,1.99,1.167,2.965,1.724.78.446,1.587.906,2.376,1.373a.749.749,0,0,0,.837,0c.869-.508,1.756-1.018,2.614-1.512.9-.518,1.83-1.053,2.743-1.587Zm12.217-.485H.652L7.106.458ZM.79,11.558H13.423L7.106.618Zm12.889-.488L7.754.808,7.838.72l.027.015c1.19.681,2.395,1.38,3.56,2.056l1.947,1.128a.611.611,0,0,1,.336.555c-.009.854,0,1.722,0,2.561.008,1.276.016,2.6-.026,3.895ZM7.854.821l5.754,9.966c.036-1.252.029-2.522.022-3.751-.005-.84-.011-1.708,0-2.563a.53.53,0,0,0-.3-.485q-.974-.562-1.947-1.128C10.229,2.189,9.034,1.5,7.854.821ZM.622,10.917l-.133-.012L.5,10.863a20.094,20.094,0,0,0,0-2.269C.417,5.977.4,3.966.892,3.871c.739-.4,1.477-.839,2.191-1.266A37.653,37.653,0,0,1,6.393.774L6.508.72ZM6.312.9c-1.09.519-2.156,1.157-3.188,1.774-.716.428-1.457.871-2.2,1.271l-.013,0C.44,4.021.516,6.663.573,8.591A22.258,22.258,0,0,1,.58,10.83Z" fill="none"/></svg>