<svg xmlns="http://www.w3.org/2000/svg" width="14.181" height="16" viewBox="0 0 14.181 16"><path d="M14.137,7.871c0,1.118-.008,2.236,0,3.354A1.171,1.171,0,0,1,13.5,12.35q-3.054,1.749-6.1,3.519a.536.536,0,0,1-.6,0Q3.728,14.09.65,12.314C-.3,11.754.174,10.479.066,9.571V5.046c.017-.5-.123-1.131.414-1.405Q1.705,2.923,2.934,2.21c5.677-3.3,3.331-2.554,9.037.4.681.547,2.168.8,2.171,1.815C14.13,5.574,14.137,6.723,14.137,7.871ZM13.492,11.6,7.106.538.721,11.6ZM.534,10.869l.066.006L6.41.81c-1.89.884-3.655,2.1-5.5,3.1C.144,4.025.7,9.771.534,10.869ZM1.2,12.083c1.806,1.093,3.647,2.1,5.463,3.171a.79.79,0,0,0,.878,0c1.8-1.054,3.62-2.083,5.421-3.137l-.014-.037ZM7.845.77,7.8.814l5.84,10.115c.068-2.152,0-4.3.024-6.455a.57.57,0,0,0-.316-.521C11.516,2.893,9.686,1.823,7.845.77ZM7.11,16a.642.642,0,0,1-.324-.1L4.077,14.339.63,12.348c-.7-.41-.653-1.181-.608-1.927a5,5,0,0,0,.005-.846V5.046c0-.094,0-.19,0-.292C.014,4.325,0,3.839.462,3.605c.719-.421,1.574-.922,2.452-1.43.522-.3.975-.572,1.374-.809C7.185-.353,7.185-.353,9.01.828a32.683,32.683,0,0,0,2.98,1.747,4.356,4.356,0,0,0,.813.463c.677.327,1.376.666,1.378,1.388-.008.819-.006,1.652,0,2.457q0,.5,0,.988h0c0,.315,0,.63,0,.945,0,.79,0,1.606,0,2.409a1.208,1.208,0,0,1-.657,1.16c-2.265,1.3-4.168,2.392-6.1,3.518A.6.6,0,0,1,7.11,16ZM7.212.087c-.613,0-1.32.42-2.883,1.347-.4.237-.853.506-1.375.81C2.077,2.752,1.221,3.253.5,3.675c-.416.212-.406.652-.4,1.078,0,.1.005.2,0,.294V9.571a4.884,4.884,0,0,1,0,.854c-.043.722-.088,1.469.568,1.854L4.117,14.27l2.709,1.564a.492.492,0,0,0,.56,0c1.929-1.126,3.832-2.221,6.1-3.519a1.135,1.135,0,0,0,.617-1.09c-.008-.8-.006-1.619,0-2.409,0-.315,0-.63,0-.945s0-.658,0-.988c0-.8,0-1.638.006-2.457,0-.672-.679-1-1.334-1.316a4.468,4.468,0,0,1-.822-.468A32.824,32.824,0,0,1,8.966.9,3.507,3.507,0,0,0,7.212.087Zm-.1,15.341a.909.909,0,0,1-.463-.14c-.788-.466-1.594-.926-2.374-1.372-1.016-.58-2.067-1.18-3.09-1.8l-.122-.074H12.977l.036.094-.03.017c-.933.546-1.886,1.1-2.807,1.625-.858.494-1.745,1-2.614,1.512A.891.891,0,0,1,7.107,15.428ZM1.344,12.123c.983.592,1.99,1.167,2.965,1.724.78.446,1.587.906,2.376,1.373a.749.749,0,0,0,.837,0c.869-.508,1.756-1.018,2.614-1.512.9-.518,1.83-1.053,2.743-1.587Zm12.217-.485H.652L7.106.458ZM.79,11.558H13.423L7.106.618Zm12.889-.488L7.754.808,7.838.72l.027.015c1.19.681,2.395,1.38,3.56,2.056l1.947,1.128a.611.611,0,0,1,.336.555c-.009.854,0,1.722,0,2.561.008,1.276.016,2.6-.026,3.895ZM7.854.821l5.754,9.966c.036-1.252.029-2.522.022-3.751-.005-.84-.011-1.708,0-2.563a.53.53,0,0,0-.3-.485q-.974-.562-1.947-1.128C10.229,2.189,9.034,1.5,7.854.821ZM.622,10.917l-.133-.012L.5,10.863a20.094,20.094,0,0,0,0-2.269C.417,5.977.4,3.966.892,3.871c.739-.4,1.477-.839,2.191-1.266A37.653,37.653,0,0,1,6.393.774L6.508.72ZM6.312.9c-1.09.519-2.156,1.157-3.188,1.774-.716.428-1.457.871-2.2,1.271l-.013,0C.44,4.021.516,6.663.573,8.591A22.258,22.258,0,0,1,.58,10.83Zm-.2,8.118c-.044-.145-.137-.386-.276-.721l0-.036.1-.056.034.008a3.518,3.518,0,0,0,.289.48.822.822,0,0,0,.261.134,1.219,1.219,0,0,0,.431.077,1,1,0,0,0,.5-.123.754.754,0,0,0,.324-.364,1.332,1.332,0,0,0,.106-.545,1.183,1.183,0,0,0-.1-.515.713.713,0,0,0-.32-.329,1,1,0,0,0-.464-.112.9.9,0,0,0-.284.042.691.691,0,0,0-.212.108,1.716,1.716,0,0,0-.2.194l-.115-.033.031-.6c.007-.114.011-.228.011-.344v-.5c0-.149,0-.292-.014-.428C6.2,5.273,6.2,5.22,6.2,5.2l.036-.028q.427.033.976.033c.277,0,.61-.011,1-.033l.011.028a1.8,1.8,0,0,0-.019.254c0,.039,0,.1.008.2l-.028.016c-.212-.014-.5-.022-.855-.022q-.729,0-.847.006-.042.33-.058,1.162a1.536,1.536,0,0,1,.413-.228,1.317,1.317,0,0,1,.984.08.921.921,0,0,1,.418.405,1.224,1.224,0,0,1,.138.573,1.463,1.463,0,0,1-.468,1.044,1.6,1.6,0,0,1-1.2.477,1.257,1.257,0,0,1-.323-.034A1.4,1.4,0,0,1,6.109,9.018Zm.6.183a1.337,1.337,0,0,1-.333-.035,1.46,1.46,0,0,1-.284-.112l-.015-.008,0-.016c-.044-.144-.137-.385-.275-.718l0-.01.01-.066.128-.074L6,8.179l.009.015a3.211,3.211,0,0,0,.282.47.754.754,0,0,0,.247.125,1.163,1.163,0,0,0,.417.075.965.965,0,0,0,.48-.118A.717.717,0,0,0,7.739,8.4a1.3,1.3,0,0,0,.1-.529,1.137,1.137,0,0,0-.1-.5.674.674,0,0,0-.3-.31.947.947,0,0,0-.445-.108A.888.888,0,0,0,6.721,7a.681.681,0,0,0-.2.1,1.7,1.7,0,0,0-.2.189l-.016.019-.169-.05.032-.632c.008-.113.011-.228.011-.342v-.5c0-.148,0-.291-.014-.425,0-.086-.008-.139-.008-.162v-.02l.064-.049h.015c.283.022.61.033.973.033.275,0,.61-.011.995-.033l.029,0,.025.065V5.2a1.735,1.735,0,0,0-.019.249c0,.038,0,.1.008.193l0,.024-.06.036H8.178c-.211-.015-.5-.022-.853-.022-.429,0-.7,0-.811,0-.024.212-.042.563-.053,1.046a1.449,1.449,0,0,1,.36-.187,1.3,1.3,0,0,1,.412-.063,1.344,1.344,0,0,1,.6.144.968.968,0,0,1,.435.423,1.264,1.264,0,0,1,.143.591,1.509,1.509,0,0,1-.479,1.072A1.654,1.654,0,0,1,6.708,9.2ZM6.142,8.99a1.4,1.4,0,0,0,.253.1,1.281,1.281,0,0,0,.313.032,1.578,1.578,0,0,0,1.169-.465A1.431,1.431,0,0,0,8.333,7.64,1.184,1.184,0,0,0,8.2,7.086.88.88,0,0,0,7.8,6.7a1.274,1.274,0,0,0-.953-.078,1.53,1.53,0,0,0-.4.222l-.065.048,0-.081c.011-.554.031-.946.059-1.166l0-.034h.033c.08,0,.366-.006.849-.006.348,0,.631.007.842.021,0-.078-.007-.135-.007-.171a1.92,1.92,0,0,1,.017-.241c-.372.022-.7.032-.966.032-.358,0-.682-.011-.964-.032l-.008.006c0,.028,0,.073.008.137.009.137.014.282.014.431v.5c0,.116,0,.232-.011.346L6.221,7.2l.06.018a1.748,1.748,0,0,1,.191-.181A.784.784,0,0,1,6.7,6.92a.955.955,0,0,1,.3-.043,1.039,1.039,0,0,1,.482.116.748.748,0,0,1,.337.346,1.21,1.21,0,0,1,.109.533,1.39,1.39,0,0,1-.109.561.8.8,0,0,1-.341.382,1.046,1.046,0,0,1-.52.128,1.253,1.253,0,0,1-.445-.079.851.851,0,0,1-.275-.143,2.831,2.831,0,0,1-.288-.473h0l-.067.039v.006C6.006,8.61,6.1,8.844,6.142,8.99Z" fill="none"/></svg>