<svg xmlns="http://www.w3.org/2000/svg" width="14.181" height="16" viewBox="0 0 14.181 16"><path d="M6.639,8.922,6.616,8.9V8.779l.023-.022c.277-.008.441-.016.492-.026a.179.179,0,0,0,.114-.059A.487.487,0,0,0,7.3,8.453a3.583,3.583,0,0,0,.018-.37V7.875H6.7q-.535,0-.906.017l-.048-.151q.489-.915,1.631-2.65l.4-.16.07.034q-.031.477-.031,1.181l-.009.792v.581q.388,0,.6-.017l.025.028c0,.071-.005.123-.005.154,0,.062.005.123.008.183L8.4,7.892c-.181-.011-.333-.017-.454-.017H7.806v.188a4.094,4.094,0,0,0,.017.447.312.312,0,0,0,.054.169.27.27,0,0,0,.147.057,2.965,2.965,0,0,0,.383.021l.025.022V8.9l-.022.022Q7.916,8.9,7.582,8.9,7.038,8.9,6.639,8.922Zm-.519-1.4h1.2l.025-2q-.269.386-.679,1.056T6.12,7.519Zm.5,1.444-.046-.047V8.763l.045-.046h.016c.273-.008.437-.016.486-.025a.143.143,0,0,0,.09-.045.425.425,0,0,0,.046-.2,3.518,3.518,0,0,0,.018-.366V7.915H6.7c-.355,0-.659.006-.9.017H5.768l-.062-.2.008-.015c.325-.609.874-1.5,1.632-2.653l.007-.01.424-.171.11.053v.026c-.021.316-.031.713-.031,1.179l-.009.792v.541c.237,0,.424-.008.556-.017h.019l.049.055v.016c0,.07,0,.121,0,.152,0,.061,0,.121.008.18v.02l-.055.049H8.4c-.18-.011-.332-.017-.452-.017h-.1v.148a4,4,0,0,0,.017.442.293.293,0,0,0,.042.147A.241.241,0,0,0,8.03,8.7a2.865,2.865,0,0,0,.377.021h.015l.05.044v.155l-.046.047H8.408c-.327-.015-.6-.022-.826-.022-.361,0-.677.007-.941.022Zm.959-.1c.218,0,.49.007.81.021V8.8a2.865,2.865,0,0,1-.375-.021.3.3,0,0,1-.169-.068.34.34,0,0,1-.064-.192,3.962,3.962,0,0,1-.017-.452V7.835H7.95c.118,0,.266.006.44.016h0c0-.054-.005-.109-.007-.164,0-.031,0-.078,0-.141l0,0c-.139.009-.334.014-.58.016h-.04V6.938l.008-.792c0-.455.01-.844.029-1.157l-.03-.014-.368.149C6.659,6.259,6.116,7.14,5.792,7.745l.034.106c.241-.01.536-.016.877-.016h.655v.248a3.726,3.726,0,0,1-.018.375.464.464,0,0,1-.064.24.223.223,0,0,1-.137.073c-.053.009-.211.018-.483.025v.085C6.918,8.867,7.229,8.86,7.582,8.86Zm-.225-1.3h-1.3L6.084,7.5c.09-.18.274-.5.546-.943s.5-.8.681-1.058L7.385,5.4Zm-1.172-.08H7.279L7.3,5.654c-.166.243-.369.561-.6.946S6.282,7.294,6.185,7.479Zm7.952.392c0,1.118-.008,2.236,0,3.354A1.171,1.171,0,0,1,13.5,12.35q-3.054,1.749-6.1,3.519a.536.536,0,0,1-.6,0Q3.728,14.09.65,12.314C-.3,11.754.174,10.479.066,9.571V5.046c.017-.5-.123-1.131.414-1.405Q1.705,2.923,2.934,2.21c5.677-3.3,3.331-2.554,9.037.4.681.547,2.168.8,2.171,1.815C14.13,5.574,14.137,6.723,14.137,7.871ZM13.492,11.6,7.106.538.721,11.6ZM.534,10.869l.066.006L6.41.81c-1.89.884-3.655,2.1-5.5,3.1C.144,4.025.7,9.771.534,10.869ZM1.2,12.083c1.806,1.093,3.647,2.1,5.463,3.171a.79.79,0,0,0,.878,0c1.8-1.054,3.62-2.083,5.421-3.137l-.014-.037ZM7.845.77,7.8.814l5.84,10.115c.068-2.152,0-4.3.024-6.455a.57.57,0,0,0-.316-.521C11.516,2.893,9.686,1.823,7.845.77ZM7.11,16a.642.642,0,0,1-.324-.1L4.077,14.339.63,12.348c-.7-.41-.653-1.181-.608-1.927a5,5,0,0,0,.005-.846V5.046c0-.094,0-.19,0-.292C.014,4.325,0,3.839.462,3.605c.719-.421,1.574-.922,2.452-1.43.522-.3.975-.572,1.374-.809C7.185-.353,7.185-.353,9.01.828a32.683,32.683,0,0,0,2.98,1.747,4.356,4.356,0,0,0,.813.463c.677.327,1.376.666,1.378,1.388-.008.819-.006,1.652,0,2.457q0,.5,0,.988h0c0,.315,0,.63,0,.945,0,.79,0,1.606,0,2.409a1.208,1.208,0,0,1-.657,1.16c-2.265,1.3-4.168,2.392-6.1,3.518A.6.6,0,0,1,7.11,16ZM7.212.087c-.613,0-1.32.42-2.883,1.347-.4.237-.853.506-1.375.81C2.077,2.752,1.221,3.253.5,3.675c-.416.212-.406.652-.4,1.078,0,.1.005.2,0,.294V9.571a4.884,4.884,0,0,1,0,.854c-.043.722-.088,1.469.568,1.854L4.117,14.27l2.709,1.564a.492.492,0,0,0,.56,0c1.929-1.126,3.832-2.221,6.1-3.519a1.135,1.135,0,0,0,.617-1.09c-.008-.8-.006-1.619,0-2.409,0-.315,0-.63,0-.945s0-.658,0-.988c0-.8,0-1.638.006-2.457,0-.672-.679-1-1.334-1.316a4.468,4.468,0,0,1-.822-.468A32.824,32.824,0,0,1,8.966.9,3.507,3.507,0,0,0,7.212.087Zm-.1,15.341a.909.909,0,0,1-.463-.14c-.788-.466-1.594-.926-2.374-1.372-1.016-.58-2.067-1.18-3.09-1.8l-.122-.074H12.977l.036.094-.03.017c-.933.546-1.886,1.1-2.807,1.625-.858.494-1.745,1-2.614,1.512A.891.891,0,0,1,7.107,15.428ZM1.344,12.123c.983.592,1.99,1.167,2.965,1.724.78.446,1.587.906,2.376,1.373a.749.749,0,0,0,.837,0c.869-.508,1.756-1.018,2.614-1.512.9-.518,1.83-1.053,2.743-1.587Zm12.217-.485H.652L7.106.458ZM.79,11.558H13.423L7.106.618Zm12.889-.488L7.754.808,7.838.72l.027.015c1.19.681,2.395,1.38,3.56,2.056l1.947,1.128a.611.611,0,0,1,.336.555c-.009.854,0,1.722,0,2.561.008,1.276.016,2.6-.026,3.895ZM7.854.821l5.754,9.966c.036-1.252.029-2.522.022-3.751-.005-.84-.011-1.708,0-2.563a.53.53,0,0,0-.3-.485q-.974-.562-1.947-1.128C10.229,2.189,9.034,1.5,7.854.821ZM.622,10.917l-.133-.012L.5,10.863a20.094,20.094,0,0,0,0-2.269C.417,5.977.4,3.966.892,3.871c.739-.4,1.477-.839,2.191-1.266A37.653,37.653,0,0,1,6.393.774L6.508.72ZM6.312.9c-1.09.519-2.156,1.157-3.188,1.774-.716.428-1.457.871-2.2,1.271l-.013,0C.44,4.021.516,6.663.573,8.591A22.258,22.258,0,0,1,.58,10.83Z" fill="none"/></svg>