<svg xmlns="http://www.w3.org/2000/svg" width="14.181" height="16" viewBox="0 0 14.181 16"><path d="M14.137,7.871c0,1.118-.008,2.236,0,3.354A1.171,1.171,0,0,1,13.5,12.35q-3.054,1.749-6.1,3.519a.536.536,0,0,1-.6,0Q3.728,14.09.65,12.314C-.3,11.754.174,10.479.066,9.571V5.046c.017-.5-.123-1.131.414-1.405Q1.705,2.923,2.934,2.21c5.677-3.3,3.331-2.554,9.037.4.681.547,2.168.8,2.171,1.815C14.13,5.574,14.137,6.723,14.137,7.871ZM13.492,11.6,7.106.538.721,11.6ZM.534,10.869l.066.006L6.41.81c-1.89.884-3.655,2.1-5.5,3.1C.144,4.025.7,9.771.534,10.869ZM1.2,12.083c1.806,1.093,3.647,2.1,5.463,3.171a.79.79,0,0,0,.878,0c1.8-1.054,3.62-2.083,5.421-3.137l-.014-.037ZM7.845.77,7.8.814l5.84,10.115c.068-2.152,0-4.3.024-6.455a.57.57,0,0,0-.316-.521C11.516,2.893,9.686,1.823,7.845.77ZM7.11,16a.642.642,0,0,1-.324-.1L4.077,14.339.63,12.348c-.7-.41-.653-1.181-.608-1.927a5,5,0,0,0,.005-.846V5.046c0-.094,0-.19,0-.292C.014,4.325,0,3.839.462,3.605c.719-.421,1.574-.922,2.452-1.43.522-.3.975-.572,1.374-.809C7.185-.353,7.185-.353,9.01.828a32.683,32.683,0,0,0,2.98,1.747,4.356,4.356,0,0,0,.813.463c.677.327,1.376.666,1.378,1.388-.008.819-.006,1.652,0,2.457q0,.5,0,.988h0c0,.315,0,.63,0,.945,0,.79,0,1.606,0,2.409a1.208,1.208,0,0,1-.657,1.16c-2.265,1.3-4.168,2.392-6.1,3.518A.6.6,0,0,1,7.11,16ZM7.212.087c-.613,0-1.32.42-2.883,1.347-.4.237-.853.506-1.375.81C2.077,2.752,1.221,3.253.5,3.675c-.416.212-.406.652-.4,1.078,0,.1.005.2,0,.294V9.571a4.884,4.884,0,0,1,0,.854c-.043.722-.088,1.469.568,1.854L4.117,14.27l2.709,1.564a.492.492,0,0,0,.56,0c1.929-1.126,3.832-2.221,6.1-3.519a1.135,1.135,0,0,0,.617-1.09c-.008-.8-.006-1.619,0-2.409,0-.315,0-.63,0-.945s0-.658,0-.988c0-.8,0-1.638.006-2.457,0-.672-.679-1-1.334-1.316a4.468,4.468,0,0,1-.822-.468A32.824,32.824,0,0,1,8.966.9,3.507,3.507,0,0,0,7.212.087Zm-.1,15.341a.909.909,0,0,1-.463-.14c-.788-.466-1.594-.926-2.374-1.372-1.016-.58-2.067-1.18-3.09-1.8l-.122-.074H12.977l.036.094-.03.017c-.933.546-1.886,1.1-2.807,1.625-.858.494-1.745,1-2.614,1.512A.891.891,0,0,1,7.107,15.428ZM1.344,12.123c.983.592,1.99,1.167,2.965,1.724.78.446,1.587.906,2.376,1.373a.749.749,0,0,0,.837,0c.869-.508,1.756-1.018,2.614-1.512.9-.518,1.83-1.053,2.743-1.587Zm12.217-.485H.652L7.106.458ZM.79,11.558H13.423L7.106.618Zm12.889-.488L7.754.808,7.838.72l.027.015c1.19.681,2.395,1.38,3.56,2.056l1.947,1.128a.611.611,0,0,1,.336.555c-.009.854,0,1.722,0,2.561.008,1.276.016,2.6-.026,3.895ZM7.854.821l5.754,9.966c.036-1.252.029-2.522.022-3.751-.005-.84-.011-1.708,0-2.563a.53.53,0,0,0-.3-.485q-.974-.562-1.947-1.128C10.229,2.189,9.034,1.5,7.854.821ZM.622,10.917l-.133-.012L.5,10.863a20.094,20.094,0,0,0,0-2.269C.417,5.977.4,3.966.892,3.871c.739-.4,1.477-.839,2.191-1.266A37.653,37.653,0,0,1,6.393.774L6.508.72ZM6.312.9c-1.09.519-2.156,1.157-3.188,1.774-.716.428-1.457.871-2.2,1.271l-.013,0C.44,4.021.516,6.663.573,8.591A22.258,22.258,0,0,1,.58,10.83ZM8.055,5.146v.033a2.226,2.226,0,0,0-.682.3,2.067,2.067,0,0,0-.643.634,1.988,1.988,0,0,0-.3.96c.062-.044.134-.1.214-.159.1-.079.181-.133.229-.162a.8.8,0,0,1,.195-.077,1.078,1.078,0,0,1,.281-.033,1.031,1.031,0,0,1,.508.125.784.784,0,0,1,.337.368A1.333,1.333,0,0,1,8.3,7.7a1.279,1.279,0,0,1-.222.767,1.42,1.42,0,0,1-.471.441,1.2,1.2,0,0,1-.574.133,1,1,0,0,1-.856-.412,1.768,1.768,0,0,1-.3-1.074,2.793,2.793,0,0,1,.128-.844,2.261,2.261,0,0,1,.388-.732A2.837,2.837,0,0,1,7.855,5.05ZM6.376,7.763a1.908,1.908,0,0,0,.078.538.825.825,0,0,0,.251.411.613.613,0,0,0,.406.146.661.661,0,0,0,.371-.113.7.7,0,0,0,.259-.352,1.452,1.452,0,0,0,.089-.506,1.213,1.213,0,0,0-.088-.476.725.725,0,0,0-.255-.327A.667.667,0,0,0,7.1,6.968a.754.754,0,0,0-.33.079.8.8,0,0,0-.253.181.473.473,0,0,0-.114.216A1.545,1.545,0,0,0,6.376,7.763Zm.661,1.318a1.044,1.044,0,0,1-.888-.429,1.811,1.811,0,0,1-.312-1.1A2.877,2.877,0,0,1,5.966,6.7a2.321,2.321,0,0,1,.395-.745,2.687,2.687,0,0,1,.676-.592,2.652,2.652,0,0,1,.809-.35l.013,0,.236.113v.091l-.032.006a2.193,2.193,0,0,0-.669.294,2.033,2.033,0,0,0-.631.622,1.919,1.919,0,0,0-.287.855l.142-.108c.107-.08.183-.134.233-.164a.773.773,0,0,1,.205-.081A1.11,1.11,0,0,1,7.347,6.6a1.075,1.075,0,0,1,.527.13.826.826,0,0,1,.354.386,1.382,1.382,0,0,1,.116.583,1.325,1.325,0,0,1-.229.79,1.487,1.487,0,0,1-.486.454A1.246,1.246,0,0,1,7.037,9.081ZM7.85,5.093a2.55,2.55,0,0,0-.771.337A2.6,2.6,0,0,0,6.424,6a2.22,2.22,0,0,0-.381.719,2.75,2.75,0,0,0-.126.832,1.732,1.732,0,0,0,.3,1.05.968.968,0,0,0,.823.4,1.172,1.172,0,0,0,.555-.129,1.4,1.4,0,0,0,.458-.43A1.244,1.244,0,0,0,8.265,7.7a1.3,1.3,0,0,0-.109-.549.749.749,0,0,0-.321-.35,1,1,0,0,0-.488-.12,1.05,1.05,0,0,0-.271.032.749.749,0,0,0-.184.072c-.047.029-.123.082-.226.16-.079.061-.152.115-.215.16l-.069.048.007-.084A2.023,2.023,0,0,1,6.7,6.09a2.1,2.1,0,0,1,.655-.646,2.408,2.408,0,0,1,.63-.288ZM7.111,8.9a.655.655,0,0,1-.431-.155.868.868,0,0,1-.264-.431,1.945,1.945,0,0,1-.08-.549,1.639,1.639,0,0,1,.026-.328A.518.518,0,0,1,6.485,7.2a.844.844,0,0,1,.266-.191A.8.8,0,0,1,7.1,6.928a.708.708,0,0,1,.412.124.768.768,0,0,1,.269.343,1.28,1.28,0,0,1,.091.492,1.487,1.487,0,0,1-.092.52.733.733,0,0,1-.274.371A.7.7,0,0,1,7.111,8.9ZM7.1,7.008a.718.718,0,0,0-.312.075.74.74,0,0,0-.241.172.437.437,0,0,0-.1.2,1.549,1.549,0,0,0-.024.311,1.862,1.862,0,0,0,.077.527.783.783,0,0,0,.238.392.575.575,0,0,0,.38.136.628.628,0,0,0,.349-.106A.662.662,0,0,0,7.7,8.379a1.4,1.4,0,0,0,.087-.492,1.177,1.177,0,0,0-.085-.461.69.69,0,0,0-.241-.309A.63.63,0,0,0,7.1,7.008Z" fill="none"/></svg>